<?xml version="1.0" encoding="utf-8"?>
<!-- Generator: Adobe Illustrator 25.2.0, SVG Export Plug-In . SVG Version: 6.00 Build 0)  -->
<svg version="1.1" id="Layer_1" xmlns="http://www.w3.org/2000/svg" xmlns:xlink="http://www.w3.org/1999/xlink" x="0px" y="0px"
	 viewBox="0 0 244.27 191.51" style="enable-background:new 0 0 244.27 191.51;" xml:space="preserve">
<style type="text/css">
	.st0{opacity:0.2;}
	.st1{fill:#FED82E;}
	.st2{fill:#30302F;}
	.st3{fill:#FFFFFF;}
	.st4{fill:#2E2E2E;}
	.st5{fill:#C0C6D5;}
	.st6{fill:#DDDDDC;}
	.st7{fill:#010101;}
	.st8{fill:#ECC41C;}
</style>
<g>
	<g class="st0">
		<path class="st1" d="M128.74,30.26c27.92,2.24,51.32-16.49,83.69-4.02s50.84,98.37,1.52,137.7c-43.89,35-106.56,33.64-156.42,12.9
			C7.08,155.85-10.17,100.75,5.7,52.62C21.31,5.3,64.57,0.31,83.63,2.58S115.65,29.21,128.74,30.26z"/>
	</g>
	<g>
		<path class="st2" d="M110.77,19.39c-1.31-6.06-7.39-8.66-11.56-8.05c-9.54,1.41-7.13,9.5-13.72,15.98
			c-6.59,6.48-14.6,11.74-14.29,19.58c0.12,3.06,1.24,5.7,5.01,6.18c-4.58,12.51,0.98,18.69,4.92,20.37
			c5.94,2.54,14.61,1.43,17.83-6.95c3.2-8.33-0.11-11.51,3.1-20.31L110.77,19.39z"/>
	</g>
	<g>
		<g>
			<path class="st3" d="M110.77,19.39c-1.31-6.06-7.28-8.68-11.44-8.06c-3.58,0.53-5,1.65-6.32,3.62c1.19-0.94,2.76-1.62,4.96-1.95
				c4.17-0.62,10.25,1.99,11.56,8.05c0,0-10.08,33.59-6.86,24.79L110.77,19.39z"/>
		</g>
	</g>
	<g>
		<path class="st4" d="M32.97,171.73l-0.11,0c-0.12,0-0.21-0.1-0.21-0.22c0-0.12,0.1-0.21,0.21-0.21c0,0,0,0,0,0l0.1,0
			c1.63,0,3.24-0.34,4.77-1c0.11-0.05,0.23,0,0.28,0.11c0.05,0.11,0,0.23-0.11,0.28C36.32,171.38,34.66,171.73,32.97,171.73z
			 M27.92,170.64c-0.03,0-0.06-0.01-0.09-0.02c-1.58-0.7-3-1.7-4.22-2.96c-0.08-0.08-0.08-0.22,0.01-0.3
			c0.08-0.08,0.22-0.08,0.3,0.01c1.18,1.22,2.56,2.19,4.08,2.87c0.11,0.05,0.16,0.17,0.11,0.28C28.08,170.59,28,170.64,27.92,170.64
			z M42.03,167.87c-0.06,0-0.11-0.02-0.15-0.07c-0.08-0.09-0.08-0.22,0.01-0.3c0.14-0.13,0.27-0.26,0.4-0.4
			c0.99-1.01,1.88-2.22,2.64-3.59c0.06-0.1,0.19-0.14,0.29-0.08c0.1,0.06,0.14,0.19,0.08,0.29c-0.78,1.4-1.69,2.64-2.71,3.69
			c-0.14,0.14-0.27,0.28-0.41,0.41C42.14,167.85,42.08,167.87,42.03,167.87z M20.99,163.48c-0.08,0-0.16-0.05-0.2-0.13
			c-0.66-1.6-1-3.3-1.01-5.05c0-0.12,0.09-0.21,0.21-0.22c0,0,0,0,0,0c0.12,0,0.21,0.09,0.21,0.21c0.01,1.69,0.35,3.34,0.98,4.89
			c0.04,0.11-0.01,0.23-0.12,0.28C21.04,163.48,21.02,163.48,20.99,163.48z M47.02,159.11c-0.02,0-0.04,0-0.06-0.01
			c-0.11-0.03-0.18-0.15-0.15-0.26c0.44-1.59,0.72-3.27,0.84-4.98c0.01-0.12,0.11-0.21,0.23-0.2c0.12,0.01,0.21,0.11,0.2,0.23
			c-0.12,1.74-0.41,3.45-0.86,5.07C47.2,159.05,47.11,159.11,47.02,159.11z M20.84,153.51c-0.02,0-0.05,0-0.07-0.01
			c-0.11-0.04-0.17-0.16-0.13-0.27c0.27-0.78,0.61-1.57,1.01-2.34c0.4-0.76,0.86-1.51,1.38-2.22c0.07-0.09,0.2-0.12,0.3-0.05
			c0.1,0.07,0.12,0.2,0.05,0.3c-0.51,0.69-0.96,1.42-1.34,2.16c-0.39,0.75-0.72,1.52-0.99,2.28
			C21.01,153.45,20.93,153.51,20.84,153.51z M47.75,148.99c-0.11,0-0.2-0.08-0.21-0.19c-0.19-1.66-0.52-3.33-1-4.96
			c-0.03-0.11,0.03-0.23,0.15-0.27c0.11-0.03,0.23,0.03,0.27,0.15c0.48,1.66,0.82,3.35,1.01,5.03c0.01,0.12-0.07,0.22-0.19,0.24
			C47.77,148.99,47.76,148.99,47.75,148.99z M26.75,145.36c-0.06,0-0.13-0.03-0.17-0.08c-0.07-0.09-0.06-0.23,0.03-0.3
			c1.27-1.01,2.73-1.94,4.33-2.76c0.11-0.05,0.23-0.01,0.29,0.09c0.05,0.11,0.01,0.23-0.09,0.29c-1.58,0.8-3.01,1.72-4.26,2.71
			C26.84,145.34,26.79,145.36,26.75,145.36z M90.99,143.86c-0.02,0-0.04,0-0.06-0.01c-1.63-0.5-3.27-0.98-4.89-1.42
			c-0.11-0.03-0.18-0.15-0.15-0.26c0.03-0.11,0.15-0.18,0.26-0.15c1.62,0.44,3.28,0.92,4.91,1.42c0.11,0.03,0.18,0.15,0.14,0.27
			C91.17,143.8,91.08,143.86,90.99,143.86z M81.14,141.19c-0.02,0-0.03,0-0.05-0.01c-1.66-0.39-3.34-0.75-4.98-1.07
			c-0.12-0.02-0.19-0.13-0.17-0.25c0.02-0.12,0.13-0.19,0.25-0.17c1.65,0.32,3.33,0.68,5,1.07c0.12,0.03,0.19,0.14,0.16,0.26
			C81.33,141.12,81.24,141.19,81.14,141.19z M35.75,140.67c-0.09,0-0.17-0.06-0.2-0.15c-0.04-0.11,0.02-0.23,0.13-0.27
			c1.54-0.52,3.21-0.97,4.94-1.34c0.12-0.03,0.23,0.05,0.25,0.16c0.02,0.12-0.05,0.23-0.16,0.25c-1.72,0.37-3.37,0.82-4.9,1.33
			C35.79,140.67,35.77,140.67,35.75,140.67z M71.13,139.24c-0.01,0-0.02,0-0.03,0c-1.7-0.26-3.4-0.49-5.05-0.67
			c-0.12-0.01-0.2-0.12-0.19-0.24c0.01-0.12,0.12-0.2,0.24-0.19c1.66,0.18,3.37,0.41,5.07,0.67c0.12,0.02,0.2,0.13,0.18,0.24
			C71.32,139.16,71.23,139.24,71.13,139.24z M44.93,139.23c-0.08,0-0.16-0.05-0.19-0.12c-0.71-1.5-1.56-2.98-2.52-4.4
			c-0.07-0.1-0.04-0.23,0.06-0.3c0.1-0.07,0.23-0.04,0.3,0.06c0.97,1.43,1.82,2.93,2.55,4.45c0.05,0.11,0.01,0.23-0.1,0.29
			C44.99,139.23,44.96,139.23,44.93,139.23z M45.7,138.49c-0.11,0-0.2-0.08-0.21-0.19c-0.01-0.12,0.07-0.22,0.19-0.24
			c1.63-0.2,3.35-0.35,5.1-0.44c0.12-0.01,0.22,0.08,0.22,0.2c0.01,0.12-0.08,0.22-0.2,0.22c-1.74,0.09-3.44,0.24-5.07,0.44
			C45.72,138.49,45.71,138.49,45.7,138.49z M60.99,138.13c0,0-0.01,0-0.01,0c-1.72-0.11-3.43-0.17-5.09-0.19
			c-0.12,0-0.21-0.1-0.21-0.22c0-0.12,0.1-0.21,0.21-0.21c0,0,0,0,0,0c1.66,0.02,3.38,0.08,5.11,0.19c0.12,0.01,0.21,0.11,0.2,0.23
			C61.19,138.04,61.1,138.13,60.99,138.13z M39.26,130.79c-0.06,0-0.12-0.02-0.16-0.07c-1.1-1.23-2.31-2.43-3.61-3.57
			c-0.09-0.08-0.1-0.21-0.02-0.3c0.08-0.09,0.21-0.1,0.3-0.02c1.31,1.15,2.53,2.36,3.64,3.6c0.08,0.09,0.07,0.22-0.02,0.3
			C39.36,130.77,39.31,130.79,39.26,130.79z M31.62,124.06c-0.04,0-0.09-0.01-0.12-0.04c-1.35-0.95-2.79-1.87-4.29-2.72
			c-0.1-0.06-0.14-0.19-0.08-0.29c0.06-0.1,0.19-0.14,0.29-0.08c1.51,0.86,2.96,1.79,4.32,2.75c0.1,0.07,0.12,0.2,0.05,0.3
			C31.76,124.03,31.69,124.06,31.62,124.06z"/>
	</g>
	<g>
		<path class="st3" d="M109.1,72.62c0,0-0.47-0.21-2.16,0.5c-1.7,0.71-6.14,1.89-11.37,5.16c-5.22,3.27-5.28,3.51-8.11,5.75
			c-2.84,2.24-5.78,7.93-7.03,10.87c-1.25,2.93-3.57,8.98-4.67,12.89s-3.25,20.68-3.25,20.68L94.84,130l-0.59,8.02l17.38,1.44
			l32.22-1.29c0,0,1.75-6.67,2.17-7.9c0.42-1.23,2.38-7.03,2.31-7.78c-0.07-0.75,0.61-2.48,0.61-2.48l8.5,3.66l5.42-26.02
			c0,0-5.67-5-7.03-6.37c-1.35-1.38-7.79-6.09-9.21-6.9c-1.43-0.81-7.95-4.96-8.72-5.41c-0.77-0.44-7.51-3.6-7.51-3.6
			s-2.8,1.03-5.52,1.56c-2.73,0.53-7.45-0.44-9.65-0.83C113.02,75.72,109.1,72.62,109.1,72.62z"/>
	</g>
	<g>
		<path class="st2" d="M123.5,17.81c-4.28-0.76-9.69,0.08-12.01,1.19c-2.32,1.11-4.69,3.86-6.01,5.54
			c-1.32,1.68-2.99,6.08-3.48,8.53s-1.61,7.24-0.81,9.89c0.8,2.65,0.88,5.59,3.86,8.61c2.98,3.01,6.62,4.16,7.02,4.3
			c0.4,0.14,0.8-0.66,0.8-0.66s0.29-14.52,0.79-16.12c0.5-1.6,1.56-2.33,1.56-2.33s4.67-0.6,8.29-1.98c3.62-1.38,9.2-3.61,10.48-4.5
			c1.28-0.89,2.9-1.35,2.9-1.35s3.33,2.35,3.61,4.23c0.29,1.88,0.68,6.63,0.68,6.63l0.46,3c0,0,3.09-3.2,3.78-4.71
			c0.69-1.51,2.28-4.84,2.09-7.44s-0.55-5.81-2.8-8.95c-1.82-2.56-5.93-4.48-8.5-4.77c-2.08-0.24-4.58,0.02-5.82,0.38
			c-1.24,0.37-4.6,0.78-4.6,0.78L123.5,17.81z"/>
	</g>
	<g>
		<g>
			<path class="st3" d="M147.22,30.87c-0.18-2.6-0.55-5.81-2.8-8.95c-1.82-2.56-5.93-4.48-8.5-4.77c-2.08-0.24-4.58,0.02-5.82,0.38
				c-1.24,0.37-4.6,0.78-4.6,0.78l-2.31-0.28c-4.28-0.76-9.69,0.08-12.01,1.19c-1.08,0.52-2.18,1.39-3.17,2.35
				c0.65-0.53,1.32-0.99,1.99-1.31c2.32-1.11,7.73-1.95,12.01-1.19l2.31,0.28c0,0,3.15,0.03,4.39-0.34c1.24-0.37,4.23-0.8,6.31-0.57
				c2.57,0.29,6.4,1.95,8.22,4.51c2.25,3.15,2.47,6.32,2.4,8.92c-0.08,2.96-1.01,5.95-1.7,7.47c-0.41,0.9-1.68,2.41-2.63,3.47
				l0.03,0.19c0,0,3.09-3.2,3.78-4.71C145.81,36.79,147.4,33.47,147.22,30.87z"/>
		</g>
	</g>
	<g>
		<path class="st3" d="M136.32,28.92c0,0,2.46,1.48,3.29,2.43c0.83,0.95,1.36,3.09,1.58,5.97c0.21,2.89,0,12.52,0,12.52
			s-1.43,5.97-2.05,8.78c-0.63,2.81-2.64,4.27-4.04,4.91c-1.39,0.64-4.43,0.98-4.43,0.98l-1.49,0.2c0,0-1.12,3.51-0.76,5.11
			c0.36,1.61,0.28,2.29,1.1,3.42s1.24,1.76,1.24,1.76c-2.51,1.14-8.65,2-12.13,1.33c-3.48-0.67-6.45-1.66-7.16-2.06
			c-0.71-0.4-2.49-2.17-2.49-2.17s2.84-4.83,2.97-8.31c0.12-3.48,1.42-8.95,0.88-12.73c-0.54-3.77-0.55-11.97,2.39-14.29
			c8.04-1.74,10-2.62,13.64-4.03C132.49,31.32,136.32,28.92,136.32,28.92z"/>
	</g>
	<g>
		<path class="st4" d="M90.41,151.47c-0.35,0.79-8.03,18.81-10.14,32.22c2.23,0.05,64.88,0.05,64.88,0.05l0.72-0.45
			c0,0-2.42-21.91-2.74-24.17c-0.32-2.25-1.4-10.73-1.4-10.73L90.41,151.47z"/>
	</g>
	<g>
		<path class="st3" d="M143.34,159.12c-0.32-2.25-1.4-10.73-1.4-10.73l-2.71,0.16c0.15,1.18,1.78,10.34,2.04,12.41
			c1.04,8.15,2.27,22.35,2.27,22.35l-0.91,0.42c1.74,0,2.73,0,2.73,0l0.72-0.45C146.09,183.29,143.66,161.37,143.34,159.12z"/>
	</g>
	<g>
		<path class="st4" d="M145.92,184.25c-0.26,0-0.48-0.2-0.51-0.46c-0.02-0.23-2.16-23.08-4.18-33.25l-0.01-0.06l0-0.06
			c0.09-3.13,1.8-11.74,3.51-17.72c0.49-1.71,1-3.19,1.46-4.5c1.15-3.33,2.07-5.97,1.85-10.02c-0.3-5.53-1.25-10.68-3.01-16.21
			c-0.09-0.27,0.06-0.56,0.33-0.64c0.27-0.09,0.56,0.06,0.64,0.33c1.78,5.62,2.75,10.85,3.05,16.46c0.23,4.25-0.71,6.97-1.9,10.41
			c-0.47,1.36-0.96,2.77-1.44,4.45c-1.68,5.88-3.36,14.3-3.47,17.41c2.03,10.26,4.16,33.07,4.18,33.3c0.03,0.28-0.18,0.53-0.46,0.56
			C145.95,184.25,145.93,184.25,145.92,184.25z"/>
	</g>
	<g>
		<path class="st3" d="M198.24,95.2c0,0,4.67-4.66,5.73-6.1c1.06-1.44,4.06-5.08,4.64-6.93c0.58-1.85,0.15-3.02-0.71-3.47
			c-0.86-0.45-0.97-0.38-3.01,0.52c0.29-3.24-2.72-3.91-4.31-2.02c-0.04,0.05-0.11,0.02-0.1-0.05c0.2-1.47-0.43-2.37-1.74-2.86
			c-1.19-0.44-2.72,0.31-3.28,1.33c-0.04,0.08-0.08,0.06-0.06-0.03c0.12-0.95,1.16-3.37,1.8-6.67c0.52-2.68,0.75-4.04-0.92-4.8
			c-0.88-0.4-2.58-0.42-3.86,2.57c-1.23,2.89-1.79,6.92-3.74,12.31c-0.21,0.58-0.63,0.61-0.91,0.06c-1.24-2.4-2.91-5.75-5.02-6.09
			c-2.85-0.47-2.96,2.86-1.23,6.23c1.73,3.37,3.44,10.53,3.44,10.53l-3.31,6.25l14.49-0.63L198.24,95.2z"/>
	</g>
	<g>
		<path class="st3" d="M77.02,128.91l-2.84,0.25c0,0-0.39,5.66-0.59,7.62c-0.2,1.96-0.34,5.17,0,7.62c0.34,2.45,0.29,4.6,1.9,6.32
			s6.38,3,11.33,3.36c10.27,0.74,37.75-4.69,41.61-4.99c3.87-0.29,8.44,0.48,8.44,0.48s9.15,0.74,14-0.09
			c4.85-0.83,5.14-3.36,7.88-4.6c4-1.82,1.31-3.24,0.02-3.94c-0.3-0.16-7.15,3.55-10.49,2.78c-1.12-0.05,4.29-3.71,2.82-3.71
			c-4.98,0.01-10.93,0.25-10.93,0.25l-31.07-1.02L94,138.17l0.6-8.48L77.02,128.91z"/>
	</g>
	<g>
		<path class="st4" d="M196.09,83.43c-0.38,0-0.72-0.1-0.98-0.21c-0.71-0.32-1.19-0.83-1.44-1.51c-0.49-1.34-0.06-3.34,1.34-6.3
			c0.12-0.25,0.43-0.36,0.68-0.24c0.25,0.12,0.36,0.43,0.24,0.68c-1.25,2.61-1.69,4.47-1.31,5.51c0.15,0.42,0.45,0.72,0.9,0.92
			c1.36,0.6,2.52-1.09,3.25-2.61c0.32-0.67,1.29-2.68,1.29-2.68l0.92,0.44c0,0-0.96,2.01-1.29,2.68
			C198.42,82.78,197.09,83.43,196.09,83.43z"/>
	</g>
	<g>
		<path class="st4" d="M205.05,86.85c-0.32,0-0.61-0.07-0.88-0.18c-0.64-0.27-1.08-0.72-1.3-1.33c-0.47-1.28,0-3.21,1.52-6.26
			c0.13-0.25,0.43-0.35,0.68-0.23c0.25,0.13,0.35,0.43,0.23,0.68c-1.33,2.66-1.83,4.49-1.48,5.45c0.13,0.34,0.36,0.58,0.74,0.74
			c1.25,0.51,2.4-1.15,3.15-2.63c0.13-0.25,0.43-0.35,0.68-0.23c0.25,0.13,0.35,0.43,0.23,0.69
			C207.33,86.13,206.06,86.85,205.05,86.85z"/>
	</g>
	<g>
		<path class="st1" d="M112.14,40.37c0.03-6.01,2.23-14.65,10.34-19.79c2.42-1.54,4.21-1.81,6.06-2.21c-1.51-0.7-4.5-0.79-5.52-0.88
			c-2.05,0.32-3.15,0.64-4.96,1.68c-6.77,3.89-8.87,11.63-8.32,20.83L112.14,40.37z"/>
	</g>
	<g>
		<path class="st4" d="M224.31,184.25H28.78c-0.28,0-0.51-0.23-0.51-0.51s0.23-0.51,0.51-0.51h195.53c0.28,0,0.51,0.23,0.51,0.51
			S224.59,184.25,224.31,184.25z"/>
	</g>
	<g>
		<path class="st3" d="M157.53,73.64c-0.17,0-0.34-0.04-0.49-0.13c-0.31-0.18-0.49-0.49-0.49-0.84v-8.44c0-0.35,0.18-0.67,0.49-0.84
			c0.31-0.18,0.67-0.18,0.98,0l7.31,4.22c0.31,0.18,0.49,0.49,0.49,0.84c0,0.35-0.18,0.67-0.49,0.84l-7.31,4.22
			C157.86,73.6,157.7,73.64,157.53,73.64z M157.58,64.31v8.28l7.17-4.14L157.58,64.31z"/>
	</g>
	<g>
		<g>
			<path class="st4" d="M128.7,58.63c-1.68-0.49-2.54-1.45-2.87-2.76c-0.25-1-0.2-1.52,0.25-1.72c0.57-0.26,1.83,0.33,3.78,0.99
				c1.43,0.48,3.58,0.63,3.6,1.73C133.47,57.82,131.36,59.41,128.7,58.63z"/>
		</g>
		<g>
			<path class="st3" d="M126.55,56.64c1.15-0.95,4.14-0.69,4.25,1.76C128.94,58.59,126.92,57.4,126.55,56.64z"/>
		</g>
		<g>
			<path class="st4" d="M130.15,59.21c-0.52,0-1.06-0.08-1.59-0.23l0,0c-1.76-0.51-2.85-1.57-3.25-3.15
				c-0.14-0.56-0.47-1.89,0.56-2.35c0.63-0.29,1.49,0.02,2.92,0.53c0.38,0.13,0.8,0.29,1.26,0.44c0.34,0.11,0.74,0.21,1.13,0.31
				c1.32,0.32,2.82,0.69,2.84,1.94c0.01,0.53-0.35,1.12-0.98,1.6C132.23,58.9,131.22,59.21,130.15,59.21z M128.86,57.94
				c1.51,0.44,2.8,0.02,3.51-0.52c0.4-0.31,0.55-0.6,0.55-0.71c-0.01-0.4-1.21-0.7-2.01-0.89c-0.41-0.1-0.84-0.21-1.22-0.33
				c-0.47-0.16-0.9-0.31-1.28-0.44c-0.83-0.3-1.87-0.67-2.11-0.56c-0.12,0.06-0.1,0.47,0.05,1.09
				C126.67,56.78,127.46,57.53,128.86,57.94L128.86,57.94z"/>
		</g>
		<g>
			<path class="st4" d="M130.93,59.17c-0.02,0-0.04,0-0.06,0c-0.3-0.03-0.51-0.3-0.48-0.6c0.13-1.13-0.56-1.64-0.98-1.83
				c-0.83-0.39-1.94-0.26-2.47,0.29c-0.21,0.22-0.55,0.22-0.77,0.01c-0.22-0.21-0.22-0.55-0.01-0.77c0.86-0.89,2.46-1.11,3.72-0.52
				c1.15,0.54,1.75,1.64,1.6,2.94C131.44,58.96,131.21,59.17,130.93,59.17z"/>
		</g>
	</g>
	<g>
		<g>
			<path class="st3" d="M170.44,15.79h-2.21c-2.26,0-4.09,1.83-4.09,4.09v17.84c0,2.26,1.83,4.09,4.09,4.09h2.65l-2.36,9.8
				l11.07-9.8h44.84c2.26,0,4.09-1.83,4.09-4.09V19.88c0-2.26-1.83-4.09-4.09-4.09h-45.85H170.44z"/>
		</g>
		<g>
			<path class="st5" d="M170.44,15.79h-2.21c-2.26,0-4.09,1.83-4.09,4.09v17.84c0,2.26,1.83,4.09,4.09,4.09h2.65l-2.36,9.8
				l11.07-9.8h44.84c2.26,0,4.09-1.83,4.09-4.09V19.88c0-2.26-1.83-4.09-4.09-4.09h-45.85H170.44z"/>
		</g>
		<g>
			<path class="st6" d="M170.44,15.79h-2.21c-2.26,0-4.09,1.83-4.09,4.09v17.84c0,2.26,1.83,4.09,4.09,4.09h2.65l-2.25,9.35
				c-0.03,0.14,0.13,0.24,0.24,0.14l10.72-9.49h44.84c2.26,0,4.09-1.83,4.09-4.09V19.88c0-2.26-1.83-4.09-4.09-4.09h-45.85H170.44z"
				/>
		</g>
		<g>
			<g>
				<path class="st3" d="M226.45,39.52V21.68c0-2.26-1.83-4.09-4.09-4.09h-2.21h-8.14h-45.85c-0.32,0-0.63,0.05-0.93,0.12
					c0.7-1.23,2.02-2.07,3.54-2.07h45.85h8.14h2.21c2.26,0,3.66,1.9,3.66,4.16l-0.23,17.86c0,1.94-0.69,3.46-2.5,3.88
					C226.24,40.94,226.45,40.26,226.45,39.52z"/>
			</g>
		</g>
		<g>
			<path class="st4" d="M168.77,51.89c-0.12,0-0.25-0.03-0.36-0.1c-0.26-0.16-0.39-0.46-0.32-0.75l2.09-8.68h-1.96
				c-2.56,0-4.64-2.08-4.64-4.64V19.88c0-2.56,2.08-4.64,4.64-4.64h2.21c0.3,0,0.54,0.24,0.54,0.54c0,0.3-0.24,0.54-0.54,0.54h-2.21
				c-1.96,0-3.55,1.59-3.55,3.55v17.84c0,1.96,1.59,3.55,3.55,3.55h3.34l-2.12,8.79l9.93-8.79h45.04c1.96,0,3.55-1.59,3.55-3.55
				V19.88c0-1.96-1.59-3.55-3.55-3.55h-45.85c-0.3,0-0.54-0.24-0.54-0.54c0-0.3,0.24-0.54,0.54-0.54h45.85
				c2.56,0,4.64,2.08,4.64,4.64v17.84c0,2.56-2.08,4.64-4.64,4.64h-44.63l-10.57,9.36C169.1,51.83,168.93,51.89,168.77,51.89z"/>
		</g>
		<g>
			<path class="st4" d="M201.69,23.86h-30.64c-0.3,0-0.54-0.24-0.54-0.54s0.24-0.54,0.54-0.54h30.64c0.3,0,0.54,0.24,0.54,0.54
				S201.99,23.86,201.69,23.86z"/>
		</g>
		<g>
			<path class="st4" d="M222.24,23.86h-15.41c-0.3,0-0.54-0.24-0.54-0.54s0.24-0.54,0.54-0.54h15.41c0.3,0,0.54,0.24,0.54,0.54
				S222.54,23.86,222.24,23.86z"/>
		</g>
		<g>
			<path class="st4" d="M222.24,34.79h-51.18c-0.3,0-0.54-0.24-0.54-0.54c0-0.3,0.24-0.54,0.54-0.54h51.18
				c0.3,0,0.54,0.24,0.54,0.54C222.78,34.55,222.54,34.79,222.24,34.79z"/>
		</g>
		<g>
			<path class="st4" d="M222.24,29.32h-51.18c-0.3,0-0.54-0.24-0.54-0.54s0.24-0.54,0.54-0.54h51.18c0.3,0,0.54,0.24,0.54,0.54
				S222.54,29.32,222.24,29.32z"/>
		</g>
	</g>
	<g>
		<path class="st4" d="M136.45,44.03c-0.06,0.9,0.32,1.66,0.84,1.69c0.53,0.04,1.01-0.66,1.07-1.56c0.06-0.9-0.32-1.66-0.84-1.69
			C136.99,42.43,136.51,43.13,136.45,44.03z"/>
	</g>
	<g>
		<path class="st4" d="M125.56,44.23c-0.06,0.9-0.54,1.6-1.07,1.56c-0.53-0.04-0.91-0.79-0.84-1.69c0.06-0.9,0.54-1.6,1.07-1.56
			C125.24,42.58,125.62,43.33,125.56,44.23z"/>
	</g>
	<g>
		<path class="st4" d="M120.48,40.01c-0.17,0-0.34-0.09-0.44-0.25c-0.15-0.24-0.07-0.55,0.17-0.7c2.22-1.35,5.67-1.71,8.02-0.84
			c0.26,0.1,0.4,0.39,0.3,0.66c-0.1,0.26-0.39,0.4-0.66,0.3c-2.09-0.77-5.16-0.44-7.14,0.76C120.66,39.99,120.57,40.01,120.48,40.01
			z"/>
	</g>
	<g>
		<path class="st4" d="M132.47,51.56c-0.08,0-0.15,0-0.22-0.01c-0.28-0.04-0.48-0.29-0.44-0.57c0.04-0.28,0.29-0.47,0.57-0.44
			c0.28,0.04,0.93-0.11,1.35-0.45c0.14-0.11,0.3-0.28,0.32-0.48c0.05-0.48-0.18-0.76-0.71-1.37c-0.17-0.2-0.37-0.42-0.57-0.67
			c-0.74-0.94-1.5-2.16-1.25-4.76c0.31-3.2,2.99-4.6,3.91-4.84c1.95-0.51,4.44,0.08,6.07,1.43c0.22,0.18,0.25,0.5,0.07,0.72
			c-0.18,0.22-0.5,0.25-0.72,0.07c-1.37-1.14-3.54-1.65-5.16-1.23c-0.74,0.19-2.89,1.33-3.15,3.95c-0.22,2.22,0.39,3.21,1.03,4.03
			c0.18,0.23,0.36,0.43,0.53,0.63c0.57,0.65,1.06,1.2,0.96,2.15c-0.05,0.44-0.29,0.85-0.71,1.17
			C133.78,51.34,133.01,51.56,132.47,51.56z"/>
	</g>
	<g>
		<path class="st4" d="M112.7,56.64c-0.04,0-0.07,0-0.11-0.01c-4.59-0.99-8.08-3.83-10.1-8.19c-1.83-3.96-2.3-8.93-1.31-14
			c1.11-5.75,3.24-10.19,6.33-13.2c3.9-3.8,9.22-5.2,15.83-4.14c0.32,0.01,0.91,0.07,1.65,0.14c1.11,0.11,2.62,0.26,3.29,0.22
			c5.19-2,10.4-1.43,14.32,1.56c3.34,2.55,5.25,6.69,5.23,11.36c-0.02,5.2-2.42,10.23-6.26,13.13c-0.22,0.17-0.54,0.13-0.71-0.1
			c-0.17-0.23-0.12-0.54,0.1-0.71c3.59-2.71,5.84-7.43,5.85-12.32c0.01-4.34-1.75-8.18-4.83-10.54c-3.64-2.78-8.52-3.29-13.4-1.4
			l-0.07,0.03l-0.07,0.01c-0.72,0.07-2.22-0.08-3.55-0.21c-0.69-0.07-1.34-0.13-1.6-0.13l-0.08-0.01
			c-14.29-2.3-19.32,7.71-21.03,16.52c-1.68,8.64,0.94,18.89,10.63,21c0.28,0.06,0.45,0.33,0.39,0.61
			C113.15,56.48,112.94,56.64,112.7,56.64z"/>
	</g>
	<g>
		<path class="st4" d="M122.85,77.1c-5.08,0-11.11-1.09-14.36-4.36c-0.2-0.2-0.2-0.52,0-0.72c0.2-0.2,0.52-0.2,0.72,0
			c5.2,5.22,18.52,4.5,21.29,2.88c0.24-0.14,0.56-0.06,0.7,0.18c0.14,0.24,0.06,0.56-0.18,0.7C129.75,76.52,126.55,77.1,122.85,77.1
			z"/>
	</g>
	<g>
		<path class="st4" d="M80,184.2c-0.04,0-0.07,0-0.11-0.01c-0.28-0.06-0.45-0.33-0.39-0.61c0.04-0.18,4.06-18.41,8.86-29.36
			c0.11-0.26,0.41-0.38,0.67-0.26c0.26,0.11,0.38,0.41,0.26,0.67c-4.76,10.85-8.75,28.98-8.79,29.17
			C80.44,184.04,80.23,184.2,80,184.2z"/>
	</g>
	<g>
		<path class="st4" d="M113.36,42.3c-0.28,0-0.51-0.23-0.51-0.51c0-3.15,1.91-5.29,1.99-5.38l0.13-0.15l0.2-0.02
			c5.33-0.52,17.24-4.59,22.77-9.14c0.22-0.18,0.54-0.15,0.72,0.07c0.18,0.22,0.15,0.54-0.07,0.72c-5.6,4.6-17.56,8.73-23.11,9.35
			c-0.39,0.49-1.61,2.23-1.61,4.55C113.87,42.07,113.64,42.3,113.36,42.3z"/>
	</g>
	<g>
		<path class="st4" d="M125.06,140.89c-0.01,0-0.02,0-0.04,0c-0.25-0.02-25.4-1.74-33.86-2.37c-0.28-0.02-0.49-0.27-0.47-0.55
			c0.02-0.28,0.27-0.49,0.55-0.47c8.46,0.63,33.6,2.35,33.86,2.37c0.28,0.02,0.49,0.26,0.47,0.54
			C125.55,140.69,125.33,140.89,125.06,140.89z"/>
	</g>
	<g>
		<path class="st4" d="M94.01,138.52c-0.01,0-0.03,0-0.04,0c-0.28-0.02-0.49-0.27-0.46-0.55c0.09-1.05,0.27-2.66,0.43-4.22
			c0.16-1.51,0.33-3.08,0.42-4.1c0.02-0.28,0.27-0.49,0.55-0.46c0.28,0.02,0.49,0.27,0.46,0.55c-0.09,1.04-0.26,2.61-0.43,4.12
			c-0.17,1.55-0.34,3.16-0.43,4.2C94.49,138.32,94.27,138.52,94.01,138.52z"/>
	</g>
	<g>
		<g>
			<path class="st1" d="M25.95,73.51h-8.91c-0.26,0-0.48-0.21-0.48-0.48v-8.7c0-0.26,0.21-0.48,0.48-0.48h8.91
				c0.26,0,0.48,0.21,0.48,0.48v8.7C26.43,73.29,26.21,73.51,25.95,73.51z"/>
		</g>
		<g>
			<path class="st1" d="M25.95,91.89h-8.91c-0.26,0-0.48-0.21-0.48-0.48v-8.7c0-0.26,0.21-0.48,0.48-0.48h8.91
				c0.26,0,0.48,0.21,0.48,0.48v8.7C26.43,91.68,26.21,91.89,25.95,91.89z"/>
		</g>
		<g>
			<path class="st4" d="M26.33,74.02h-9.67c-0.33,0-0.61-0.27-0.61-0.61v-9.46c0-0.33,0.27-0.61,0.61-0.61h9.67
				c0.33,0,0.61,0.27,0.61,0.61v9.46C26.94,73.75,26.67,74.02,26.33,74.02z M17.08,73h8.84v-8.63h-8.84V73z"/>
		</g>
		<g>
			<path class="st7" d="M21.65,71.72l-3.72-3.38c-0.39-0.36-0.42-0.97-0.07-1.36c0.36-0.39,0.97-0.42,1.36-0.07l2.13,1.94l5.76-7.95
				c0.31-0.43,0.91-0.53,1.34-0.21c0.43,0.31,0.53,0.91,0.21,1.34L21.65,71.72z"/>
		</g>
		<g>
			<path class="st4" d="M26.33,92.4h-9.67c-0.33,0-0.61-0.27-0.61-0.61v-9.46c0-0.33,0.27-0.61,0.61-0.61h9.67
				c0.33,0,0.61,0.27,0.61,0.61v9.46C26.94,92.13,26.67,92.4,26.33,92.4z M17.08,91.38h8.84v-8.63h-8.84V91.38z"/>
		</g>
		<g>
			<path class="st7" d="M21.65,90.1l-3.72-3.38c-0.39-0.36-0.42-0.97-0.07-1.36c0.36-0.39,0.97-0.42,1.36-0.07l2.13,1.94l5.76-7.95
				c0.31-0.43,0.91-0.53,1.34-0.21c0.43,0.31,0.53,0.91,0.21,1.34L21.65,90.1z"/>
		</g>
		<g>
			<path class="st4" d="M26.33,110.78h-9.67c-0.33,0-0.61-0.27-0.61-0.61v-9.46c0-0.33,0.27-0.61,0.61-0.61h9.67
				c0.33,0,0.61,0.27,0.61,0.61v9.46C26.94,110.51,26.67,110.78,26.33,110.78z M17.08,109.76h8.84v-8.63h-8.84V109.76z"/>
		</g>
		<g>
			<path class="st4" d="M60.73,66.91H34.27c-0.28,0-0.51-0.23-0.51-0.51c0-0.28,0.23-0.51,0.51-0.51h26.46
				c0.28,0,0.51,0.23,0.51,0.51C61.24,66.69,61.01,66.91,60.73,66.91z"/>
		</g>
		<g>
			<path class="st4" d="M55.23,70.93H34.27c-0.28,0-0.51-0.23-0.51-0.51c0-0.28,0.23-0.51,0.51-0.51h20.96
				c0.28,0,0.51,0.23,0.51,0.51C55.74,70.7,55.51,70.93,55.23,70.93z"/>
		</g>
		<g>
			<path class="st4" d="M60.73,84.76h-9.56c-0.28,0-0.51-0.23-0.51-0.51c0-0.28,0.23-0.51,0.51-0.51h9.56
				c0.28,0,0.51,0.23,0.51,0.51C61.24,84.53,61.01,84.76,60.73,84.76z"/>
		</g>
		<g>
			<path class="st4" d="M47.61,84.76H34.27c-0.28,0-0.51-0.23-0.51-0.51c0-0.28,0.23-0.51,0.51-0.51h13.34
				c0.28,0,0.51,0.23,0.51,0.51C48.12,84.53,47.89,84.76,47.61,84.76z"/>
		</g>
		<g>
			<path class="st4" d="M60.73,88.78H34.27c-0.28,0-0.51-0.23-0.51-0.51c0-0.28,0.23-0.51,0.51-0.51h26.46
				c0.28,0,0.51,0.23,0.51,0.51C61.24,88.55,61.01,88.78,60.73,88.78z"/>
		</g>
		<g>
			<path class="st4" d="M60.73,103.74H44.16c-0.28,0-0.51-0.23-0.51-0.51c0-0.28,0.23-0.51,0.51-0.51h16.57
				c0.28,0,0.51,0.23,0.51,0.51C61.24,103.52,61.01,103.74,60.73,103.74z"/>
		</g>
		<g>
			<path class="st4" d="M40.19,103.74h-5.92c-0.28,0-0.51-0.23-0.51-0.51c0-0.28,0.23-0.51,0.51-0.51h5.92
				c0.28,0,0.51,0.23,0.51,0.51C40.7,103.52,40.47,103.74,40.19,103.74z"/>
		</g>
		<g>
			<path class="st4" d="M50.75,107.76H34.27c-0.28,0-0.51-0.23-0.51-0.51c0-0.28,0.23-0.51,0.51-0.51h16.48
				c0.28,0,0.51,0.23,0.51,0.51C51.26,107.53,51.03,107.76,50.75,107.76z"/>
		</g>
	</g>
	<g>
		<path class="st4" d="M90.03,154.66c-8.38,0-13.46-1.32-15.17-3.95c-2.79-4.29-2.04-13.49-1.44-20.88l0.07-0.9
			c0.02-0.28,0.27-0.49,0.55-0.47c0.28,0.02,0.49,0.27,0.47,0.55l-0.07,0.9c-0.59,7.24-1.32,16.24,1.28,20.24
			c2.24,3.45,11.9,4.36,27.95,2.64c12.26-1.31,23.97-3.74,24.09-3.76l0.1-0.01c4.31-0.08,8.21,0.08,11.65,0.22
			c5.85,0.24,10.48,0.42,12.78-0.82c5.73-3.09,8.06-5.37,7.8-6.18c-0.3-0.95-2.24-1.34-2.9-1.41c-0.28-0.03-0.49-0.28-0.46-0.56
			c0.03-0.28,0.28-0.48,0.56-0.46c0.33,0.03,3.22,0.35,3.78,2.12c0.31,0.98-0.46,2.14-2.4,3.67c-1.8,1.42-4.2,2.8-5.89,3.71
			c-2.55,1.37-7.06,1.19-13.3,0.94c-3.41-0.14-7.28-0.29-11.55-0.22c-0.83,0.17-12.23,2.49-24.13,3.77
			C98.5,154.38,93.91,154.66,90.03,154.66z"/>
	</g>
	<g>
		<path class="st4" d="M96.33,130.22l-24.39-1l0.04-0.53c1.12-14.02,5.2-27.43,6.99-31.73c4.74-11.35,8.87-15.67,20.09-21.01
			c1.99-0.95,3.76-1.67,5.33-2.31c1.58-0.65,2.95-1.21,4.15-1.83c2.22-2.14,4.64-11.58,3.48-20.45c-0.04-0.28,0.16-0.54,0.44-0.57
			c0.28-0.04,0.54,0.16,0.57,0.44c1.15,8.82-1.16,18.91-3.85,21.38l-0.05,0.05l-0.06,0.03c-1.26,0.66-2.67,1.24-4.3,1.9
			c-1.55,0.64-3.31,1.36-5.28,2.29c-11.07,5.26-14.91,9.28-19.59,20.48c-1.75,4.2-5.7,17.19-6.87,30.89l22.37,0.92l1.46-13.38
			c0.03-0.28,0.28-0.48,0.56-0.45c0.28,0.03,0.48,0.28,0.45,0.56L96.33,130.22z"/>
	</g>
	<g>
		<path class="st4" d="M87.03,75.17c-2.06,0-4.16-0.42-6.1-1.24c-4.08-1.74-9.72-7.99-5.4-20.43c-3.06-0.63-4.69-2.83-4.84-6.57
			c-0.26-6.52,4.94-11.24,10.44-16.23c1.33-1.21,2.7-2.45,4-3.73c2.54-2.49,3.73-5.3,4.78-7.77c1.7-4,3.17-7.46,9.22-8.35
			c4.19-0.62,10.73,1.97,12.13,8.45c0.06,0.28-0.12,0.55-0.39,0.61c-0.28,0.06-0.55-0.12-0.61-0.39c-1.27-5.86-7.2-8.21-10.99-7.65
			c-5.48,0.81-6.79,3.87-8.43,7.74c-1.09,2.56-2.33,5.46-5.01,8.1c-1.32,1.29-2.7,2.55-4.03,3.76c-5.32,4.83-10.34,9.39-10.1,15.44
			c0.14,3.5,1.59,5.31,4.57,5.7l0.63,0.08l-0.22,0.6c-4.43,12.11,0.83,18.1,4.64,19.72c3.48,1.49,7.51,1.55,10.77,0.17
			c2.94-1.24,5.15-3.61,6.39-6.84c1.56-4.07,1.54-6.84,1.51-9.78c-0.03-2.96-0.05-6.03,1.59-10.52c0.1-0.26,0.39-0.4,0.65-0.3
			c0.26,0.1,0.4,0.39,0.3,0.65c-1.58,4.32-1.55,7.29-1.53,10.16c0.03,2.9,0.05,5.9-1.58,10.15c-1.34,3.5-3.74,6.06-6.94,7.41
			C90.81,74.81,88.94,75.17,87.03,75.17z"/>
	</g>
	<g>
		<path class="st4" d="M131.04,65.02c-3.47,0-7.81-1.24-10.54-2.92c-0.24-0.15-0.31-0.46-0.17-0.7c0.15-0.24,0.46-0.31,0.7-0.17
			c3.53,2.17,10.2,3.64,13.17,2.21c2.01-0.97,5.48-3.86,6.12-12.35c0.73-9.68,0.26-13.46-0.04-15.97c-0.54-3.26-1.91-4.29-3.81-5.73
			l-0.26-0.2c-0.22-0.17-0.27-0.49-0.1-0.72c0.17-0.22,0.49-0.27,0.72-0.1l0.26,0.2c1.93,1.46,3.59,2.72,4.2,6.39l0,0.02
			c0.31,2.56,0.78,6.4,0.05,16.18c-0.68,9-4.48,12.13-6.69,13.2C133.7,64.82,132.44,65.02,131.04,65.02z"/>
	</g>
	<g>
		<path class="st4" d="M157.38,124.35l-9.02-4.02c-0.26-0.11-0.37-0.42-0.26-0.67c0.11-0.26,0.42-0.37,0.67-0.26l8.1,3.62
			c1.08-2.31,6.06-12.92,9.67-20.43c-6.85-7.49-18.56-18.16-35.84-26.96l-0.06-0.03l-0.05-0.04c-0.96-0.86-1.79-1.59-2.15-3.05
			c-0.55-2.19-0.25-6.12,0.13-8.21c0.05-0.28,0.32-0.46,0.59-0.41c0.28,0.05,0.46,0.32,0.41,0.59c-0.36,1.94-0.65,5.75-0.15,7.77
			c0.27,1.08,0.83,1.63,1.79,2.49c17.58,8.96,29.44,19.85,36.3,27.4l0.23,0.25l-0.15,0.31c-4.05,8.42-9.97,21.05-10.03,21.18
			L157.38,124.35z"/>
	</g>
	<g>
		<path class="st4" d="M177.87,130.09c-4.48,0-19.6-7.13-20.26-7.44c-0.25-0.12-0.36-0.42-0.24-0.68c0.12-0.25,0.42-0.36,0.68-0.24
			c0.16,0.08,16.07,7.58,19.99,7.33c3.65-0.23,8.29-6.19,13.42-17.23c3.93-8.46,6.76-16.96,6.78-17.04l0.04-0.11l0.08-0.08
			c5.07-5.13,9.03-10.58,9.65-12.22c0.62-1.66,0.38-2.82-0.7-3.45c-0.38-0.22-0.77-0.17-1.03-0.1c-0.42,0.12-0.81,0.41-0.98,0.73
			l-1.42,2.9c-0.63,1.22-1.6,2.08-2.66,2.38c-0.71,0.2-1.41,0.12-1.97-0.22c-1.41-0.86-1.73-2.15-0.99-3.95
			c0.11-0.26,0.41-0.38,0.67-0.28c0.26,0.11,0.38,0.41,0.28,0.67c-0.64,1.55-0.23,2.19,0.58,2.69c0.31,0.19,0.72,0.23,1.16,0.1
			c0.79-0.22,1.53-0.9,2.03-1.86l1.43-2.91c0.31-0.58,0.92-1.06,1.61-1.25c0.64-0.18,1.29-0.11,1.82,0.2
			c1.54,0.89,1.95,2.56,1.15,4.69c-0.73,1.95-4.92,7.54-9.79,12.5c-0.35,1.04-3.08,9.05-6.79,17.03
			c-5.38,11.57-10.19,17.57-14.29,17.83C178.03,130.09,177.95,130.09,177.87,130.09z"/>
	</g>
	<g>
		<path class="st4" d="M174.69,110.01l-8.4-5.9c-0.23-0.16-0.29-0.48-0.12-0.71c0.16-0.23,0.48-0.29,0.71-0.12l7.47,5.24l10.36-18.7
			c-0.27-1.12-1.69-6.97-3.25-10.81c-1.31-3.24-1.55-5.02-0.81-5.95c0.44-0.55,1.18-0.75,2.19-0.58c2.3,0.38,3.95,3.58,5.28,6.15
			l0.09,0.18c0.99-2.74,1.61-5.12,2.16-7.21c0.52-1.97,0.96-3.66,1.57-5.1c0.65-1.53,1.49-2.5,2.49-2.89
			c0.91-0.35,1.67-0.12,2.05,0.06c2.07,0.95,1.71,2.8,1.21,5.37c-0.39,2-0.92,3.68-1.31,4.91c-0.02,0.06-0.04,0.11-0.05,0.17
			c0.77-0.43,1.72-0.61,2.59-0.29c1.21,0.45,1.91,1.25,2.07,2.34c0.83-0.54,1.82-0.67,2.68-0.31c1.19,0.5,1.82,1.78,1.67,3.44
			c-0.03,0.28-0.27,0.49-0.55,0.46c-0.28-0.03-0.49-0.27-0.46-0.55c0.11-1.21-0.27-2.08-1.05-2.41c-0.74-0.31-1.67-0.02-2.3,0.73
			c-0.17,0.2-0.43,0.26-0.66,0.16c-0.23-0.1-0.37-0.34-0.33-0.6c0.16-1.18-0.28-1.89-1.41-2.31c-0.96-0.36-2.22,0.3-2.65,1.1
			c-0.16,0.3-0.44,0.36-0.65,0.29c-0.2-0.06-0.41-0.27-0.36-0.63c0.05-0.43,0.25-1.05,0.52-1.91c0.38-1.2,0.9-2.85,1.28-4.79
			c0.56-2.9,0.57-3.69-0.63-4.24c-0.23-0.1-0.7-0.25-1.25-0.03c-0.73,0.28-1.39,1.09-1.92,2.34c-0.58,1.37-1.02,3.03-1.53,4.96
			c-0.56,2.12-1.19,4.52-2.2,7.32c-0.25,0.68-0.69,0.78-0.88,0.79c-0.18,0.01-0.64-0.03-0.97-0.67l-0.11-0.21
			c-1.16-2.24-2.75-5.32-4.54-5.61c-0.62-0.1-1.04-0.03-1.23,0.21c-0.46,0.57-0.14,2.23,0.96,4.93c1.75,4.32,3.33,11.09,3.34,11.16
			l0.04,0.19l-0.1,0.17L174.69,110.01z M188.33,78.97L188.33,78.97L188.33,78.97z M195.03,75.39
			C195.03,75.39,195.03,75.39,195.03,75.39C195.03,75.39,195.03,75.39,195.03,75.39z"/>
	</g>
	<g>
		<g>
			<path class="st1" d="M113.05,140.38c0,0-1.86-0.7-1.86-1.92s-0.06-2.61,5.05-2.5c5.11,0.12,37.24-0.02,37.24-0.02l9.76-38.44
				c0,0-0.46-2.27,2.52-2.27s57.16-0.08,57.16-0.08s1.59,0.72,1.56,1.88s-10.5,42.46-10.5,42.46s-0.54,0.62-1.36,0.74
				C211.81,140.36,113.05,140.38,113.05,140.38z"/>
		</g>
		<g>
			<g>
				<path class="st3" d="M220.99,99.22c0.01-0.39-0.04-0.86-0.27-1.14c-0.49-0.59-1.35-0.74-2.12-0.74
					c-6.77,0.01-52.15,0.07-55.72,0.08c-0.05-0.43-0.08-2.17,2.53-2.17c2.98,0,57.16-0.08,57.16-0.08s1.59,0.72,1.56,1.88
					c-0.04,1.16-10.5,42.46-10.5,42.46s-0.54,0.62-1.36,0.74c-0.04,0.01-0.87,0.01-1.43,0.02
					C212.68,133.01,220.95,100.25,220.99,99.22z"/>
			</g>
		</g>
		<g>
			<path class="st4" d="M211.92,140.81h-57.16c-0.27,0-0.48-0.22-0.48-0.48c0-0.27,0.22-0.48,0.48-0.48h57.16
				c0.54,0,1.2-0.17,1.46-1.54l0.01-0.03l10.22-41.22c0.07-0.34,0.03-0.64-0.14-0.85c-0.23-0.29-0.69-0.46-1.34-0.48l-57.15,0
				c-0.55,0-1.11,0.19-1.47,1.57l-9.61,38.73c-0.06,0.26-0.33,0.42-0.59,0.35c-0.26-0.06-0.42-0.33-0.35-0.59l9.61-38.74
				c0.15-0.57,0.6-2.3,2.41-2.3h57.16c1.2,0.03,1.8,0.48,2.09,0.85c0.35,0.45,0.46,1.02,0.32,1.67l-10.23,41.22
				C213.96,140.41,212.82,140.81,211.92,140.81z"/>
		</g>
		<g>
			<path class="st4" d="M155.08,140.84h-42.16c-1.47,0-2.66-1.19-2.66-2.66c0-1.54,1.25-2.66,2.97-2.67h40.15
				c0.28,0,0.51,0.23,0.51,0.51c0,0.28-0.23,0.51-0.51,0.51h-40.14c-1.15,0.01-1.95,0.68-1.95,1.65c0,0.9,0.74,1.64,1.64,1.64h42.16
				c0.28,0,0.51,0.23,0.51,0.51C155.59,140.61,155.36,140.84,155.08,140.84z"/>
		</g>
		<g>
			<ellipse transform="matrix(0.5 -0.866 0.866 0.5 -9.1975 223.4151)" class="st3" cx="188.88" cy="119.67" rx="5.73" ry="4.69"/>
		</g>
		<g>
			<path class="st4" d="M188.02,125.67c-0.79,0-1.56-0.19-2.25-0.59c-2.48-1.43-3.11-5.03-1.39-8.01c0.82-1.43,2.06-2.51,3.48-3.05
				c1.45-0.55,2.93-0.46,4.15,0.24c1.22,0.7,2.03,1.94,2.28,3.47c0.25,1.5-0.07,3.11-0.9,4.54
				C192.15,124.42,190.03,125.67,188.02,125.67z M189.74,114.69c-0.5,0-1.01,0.1-1.52,0.29c-1.2,0.45-2.25,1.38-2.96,2.6
				c-1.44,2.49-0.99,5.46,1.01,6.61c2,1.15,4.79,0.06,6.23-2.43v0c0.71-1.22,0.98-2.59,0.77-3.86c-0.2-1.23-0.84-2.21-1.79-2.75
				C190.96,114.84,190.37,114.69,189.74,114.69z"/>
		</g>
	</g>
	<g>
		<path class="st4" d="M143.09,144.05c-0.8,0-1.66-0.03-2.58-0.06c-1.06-0.04-2.16-0.08-3.35-0.08c-0.28,0-0.51-0.23-0.51-0.51
			c0-0.28,0.23-0.51,0.51-0.51c1.21,0,2.31,0.04,3.39,0.08c1.87,0.07,3.49,0.12,4.8-0.07c0.18-0.03,0.36-0.05,0.54-0.08
			c2.74-0.4,4.43-0.73,4.5-2.46c0.01-0.28,0.25-0.5,0.53-0.49c0.28,0.01,0.5,0.25,0.49,0.53c-0.1,2.67-2.78,3.05-5.37,3.43
			c-0.18,0.03-0.36,0.05-0.54,0.08C144.77,144.02,143.97,144.05,143.09,144.05z"/>
	</g>
	<g>
		<path class="st4" d="M149.71,144.3c-1.81,0-3.62-0.38-3.73-0.4c-0.28-0.06-0.45-0.33-0.39-0.6c0.06-0.28,0.33-0.45,0.6-0.39
			c1.11,0.23,4.31,0.7,5.73,0.04c0.35-0.16,0.77-0.38,1.21-0.62c1.91-1.01,4.53-2.4,6.75-1.71c0.27,0.08,0.42,0.37,0.34,0.64
			c-0.08,0.27-0.37,0.42-0.64,0.34c-1.81-0.57-4.22,0.71-5.97,1.64c-0.45,0.24-0.88,0.46-1.26,0.64
			C151.65,144.2,150.68,144.3,149.71,144.3z"/>
	</g>
	<g>
		<g>
			<circle class="st3" cx="49.9" cy="19.35" r="18.79"/>
		</g>
		<g>
			<path class="st3" d="M48.47,0.57c-1.79,0.14-3.51,0.53-5.11,1.13c0.96-0.23,1.96-0.39,2.97-0.48
				c10.34-0.82,19.39,6.91,20.21,17.25c0.67,8.55-4.49,16.22-12.14,19.08c8.81-2.14,15.01-10.41,14.28-19.73
				C67.86,7.48,58.81-0.25,48.47,0.57z"/>
		</g>
		<g>
			<g>
				<path class="st4" d="M49.9,38.69c-10.67,0-19.35-8.68-19.35-19.35C30.55,8.68,39.23,0,49.9,0c10.67,0,19.35,8.68,19.35,19.35
					C69.24,30.01,60.57,38.69,49.9,38.69z M49.9,1.02c-10.11,0-18.33,8.22-18.33,18.33s8.22,18.33,18.33,18.33
					c10.11,0,18.33-8.22,18.33-18.33S60,1.02,49.9,1.02z"/>
			</g>
			<g>
				<path class="st4" d="M49.9,3.92c-0.28,0-0.51-0.23-0.51-0.51V0.56c0-0.28,0.23-0.51,0.51-0.51c0.28,0,0.51,0.23,0.51,0.51v2.85
					C50.41,3.69,50.18,3.92,49.9,3.92z"/>
			</g>
			<g>
				<path class="st4" d="M49.9,38.65c-0.28,0-0.51-0.23-0.51-0.51v-2.9c0-0.28,0.23-0.51,0.51-0.51c0.28,0,0.51,0.23,0.51,0.51v2.9
					C50.41,38.42,50.18,38.65,49.9,38.65z"/>
			</g>
			<g>
				<path class="st4" d="M33.96,19.86h-2.9c-0.28,0-0.51-0.23-0.51-0.51c0-0.28,0.23-0.51,0.51-0.51h2.9c0.28,0,0.51,0.23,0.51,0.51
					C34.47,19.63,34.24,19.86,33.96,19.86z"/>
			</g>
			<g>
				<path class="st4" d="M68.69,19.86h-2.9c-0.28,0-0.51-0.23-0.51-0.51c0-0.28,0.23-0.51,0.51-0.51h2.9c0.28,0,0.51,0.23,0.51,0.51
					C69.2,19.63,68.97,19.86,68.69,19.86z"/>
			</g>
		</g>
		<g>
			<path class="st4" d="M43.86,27.36c-0.1,0-0.21-0.03-0.3-0.1c-0.23-0.16-0.28-0.48-0.12-0.71c0.01-0.02,1.44-2.01,2.89-3.97
				c1.7-2.29,2.51-3.33,2.95-3.79L44.65,5.63c-0.09-0.27,0.05-0.56,0.31-0.65c0.27-0.09,0.56,0.05,0.65,0.31l4.77,13.51
				c0,0,0,0,0,0.01l-0.49,0.17l-0.16,0.47c0.19,0.06,0.35-0.02,0.39-0.05c-0.44,0.34-3.34,4.25-5.85,7.75
				C44.18,27.29,44.02,27.36,43.86,27.36z"/>
		</g>
		<g>
			<circle class="st3" cx="49.9" cy="19.35" r="1.64"/>
		</g>
		<g>
			<path class="st4" d="M49.9,21.49c-1.18,0-2.15-0.96-2.15-2.15c0-1.18,0.96-2.15,2.15-2.15s2.15,0.96,2.15,2.15
				C52.04,20.53,51.08,21.49,49.9,21.49z M49.9,18.22c-0.62,0-1.12,0.5-1.12,1.12c0,0.62,0.5,1.12,1.12,1.12s1.12-0.5,1.12-1.12
				C51.02,18.73,50.52,18.22,49.9,18.22z"/>
		</g>
	</g>
	<g>
		
			<ellipse transform="matrix(0.9902 -0.1395 0.1395 0.9902 -5.3393 15.9874)" class="st1" cx="111.38" cy="46.08" rx="4.86" ry="6.53"/>
	</g>
	<g>
		<path class="st8" d="M111.69,50.18c-0.11,0-0.22,0-0.34-0.01c-2.64-0.18-4.64-2.48-4.46-5.11c0.09-1.28,0.67-2.45,1.63-3.29
			c0.97-0.84,2.2-1.26,3.48-1.17c0.66,0.05,1.29,0.22,1.88,0.52c0.25,0.13,0.35,0.44,0.22,0.69c-0.13,0.25-0.44,0.35-0.69,0.22
			c-0.46-0.24-0.96-0.38-1.48-0.41c-1.01-0.07-1.98,0.26-2.74,0.92c-0.76,0.66-1.22,1.58-1.29,2.59c-0.14,2.08,1.43,3.88,3.51,4.03
			c0.57,0.04,1.12-0.05,1.64-0.25c0.26-0.1,0.56,0.03,0.66,0.29c0.1,0.26-0.03,0.56-0.29,0.66
			C112.88,50.07,112.3,50.18,111.69,50.18z"/>
	</g>
	<g>
		<path class="st8" d="M108.94,45.66c-0.01,0-0.02,0-0.03,0c-0.28-0.02-0.5-0.26-0.48-0.54c0.05-0.85,0.44-1.61,1.07-2.07
			c0.63-0.46,1.44-0.59,2.28-0.38c0.27,0.07,0.44,0.35,0.37,0.62c-0.07,0.27-0.35,0.44-0.62,0.37c-0.53-0.14-1.04-0.06-1.42,0.21
			c-0.39,0.28-0.62,0.75-0.65,1.3C109.43,45.45,109.2,45.66,108.94,45.66z"/>
	</g>
	<g>
		<g>
			<path class="st1" d="M121.44,59.87c-0.05,0-0.1-0.01-0.15-0.02c-4.64-1.39-8.06-4.26-9.62-8.09c-0.11-0.26,0.02-0.56,0.28-0.67
				c0.26-0.11,0.56,0.02,0.67,0.28c1.45,3.54,4.63,6.2,8.97,7.5c0.27,0.08,0.42,0.36,0.34,0.63
				C121.86,59.72,121.66,59.87,121.44,59.87z"/>
		</g>
		<g>
			<path class="st1" d="M125.82,60.52c-0.21,0.76-1.42,1.09-2.72,0.74c-1.3-0.35-2.18-1.25-1.98-2.01c0.21-0.76,1.42-1.09,2.72-0.74
				C125.14,58.86,126.03,59.76,125.82,60.52z"/>
		</g>
	</g>
</g>
</svg>
