<?xml version="1.0" encoding="utf-8"?>
<!-- Generator: Adobe Illustrator 25.2.0, SVG Export Plug-In . SVG Version: 6.00 Build 0)  -->
<svg version="1.1" id="Layer_1" xmlns="http://www.w3.org/2000/svg" xmlns:xlink="http://www.w3.org/1999/xlink" x="0px" y="0px"
	 viewBox="0 0 253.06 189.51" style="enable-background:new 0 0 253.06 189.51;" xml:space="preserve">
<style type="text/css">
	.st0{opacity:0.2;}
	.st1{fill:#FED82E;}
	.st2{fill:#2E2E2E;}
	.st3{fill:#FFFFFF;}
	.st4{fill:#DDDDDC;}
	.st5{fill:#30302F;}
	.st6{fill:#C0C6D5;}
	.st7{fill:#FCBD2F;}
	.st8{fill:#9559A2;}
	.st9{fill:#010101;}
</style>
<g id="Scene_4_00000109740239645786904550000009141359121306086057_">
	<g class="st0">
		<path class="st1" d="M232.48,62.19c-7.21-5.62-15.37-9.19-23.77-10.79c-26.78-5.11-52.13-16.15-73.42-33.17
			c-0.26-0.21-0.52-0.41-0.78-0.62C98.24-10.67,45.9-4.2,17.62,32.07C3.54,50.11-1.93,72.13,0.59,93.19
			c4.6,50.89,52.87,96.32,134.56,96.32s110.31-37.34,116.27-66.88C256.03,99.83,251.27,76.84,232.48,62.19z"/>
	</g>
	<g>
		<path class="st2" d="M195.63,177.18c-0.11,0-0.2-0.08-0.2-0.19c0-0.11,0.08-0.2,0.19-0.21c1.54-0.07,3.11-0.33,4.66-0.78
			c0.1-0.03,0.22,0.03,0.25,0.14c0.03,0.11-0.03,0.22-0.14,0.25C198.81,176.84,197.21,177.11,195.63,177.18
			C195.63,177.18,195.63,177.18,195.63,177.18z M190.88,176.75c-0.02,0-0.03,0-0.05-0.01c-1.6-0.38-3.1-0.98-4.49-1.79
			c-0.1-0.06-0.13-0.18-0.07-0.27c0.06-0.1,0.18-0.13,0.27-0.07c1.35,0.79,2.82,1.38,4.37,1.74c0.11,0.03,0.17,0.13,0.15,0.24
			C191.05,176.68,190.97,176.75,190.88,176.75z M204.77,174.59c-0.07,0-0.14-0.04-0.18-0.11c-0.05-0.1-0.01-0.22,0.08-0.27
			c0.1-0.05,0.19-0.1,0.29-0.15c1.25-0.68,2.44-1.56,3.53-2.61c0.08-0.08,0.21-0.07,0.28,0c0.08,0.08,0.07,0.21,0,0.28
			c-1.11,1.08-2.33,1.98-3.61,2.67c-0.1,0.05-0.2,0.11-0.29,0.16C204.83,174.58,204.8,174.59,204.77,174.59z M182.76,171.95
			c-0.06,0-0.11-0.02-0.15-0.07c-1.07-1.21-1.94-2.58-2.6-4.07c-0.04-0.1,0-0.22,0.1-0.26c0.1-0.04,0.22,0,0.26,0.1
			c0.64,1.46,1.49,2.79,2.53,3.97c0.07,0.08,0.07,0.21-0.02,0.28C182.86,171.94,182.81,171.95,182.76,171.95z M211.63,168.08
			c-0.04,0-0.07-0.01-0.11-0.03c-0.09-0.06-0.12-0.18-0.06-0.28c0.82-1.28,1.55-2.7,2.17-4.22c0.04-0.1,0.16-0.15,0.26-0.11
			c0.1,0.04,0.15,0.16,0.11,0.26c-0.63,1.55-1.37,2.99-2.2,4.29C211.76,168.04,211.7,168.08,211.63,168.08z M178.94,163.33
			c-0.1,0-0.19-0.07-0.2-0.18c-0.09-0.75-0.14-1.52-0.14-2.3c0-0.83,0.05-1.68,0.16-2.53c0.01-0.11,0.11-0.19,0.22-0.17
			c0.11,0.01,0.19,0.11,0.17,0.22c-0.11,0.83-0.16,1.67-0.16,2.48c0,0.76,0.05,1.51,0.14,2.25c0.01,0.11-0.06,0.21-0.17,0.22
			C178.96,163.33,178.95,163.33,178.94,163.33z M215.29,159.27c-0.02,0-0.03,0-0.05-0.01c-0.11-0.03-0.17-0.14-0.15-0.24
			c0.37-1.5,0.66-3.07,0.85-4.68c0.01-0.11,0.11-0.19,0.22-0.18c0.11,0.01,0.19,0.11,0.18,0.22c-0.2,1.63-0.49,3.22-0.86,4.73
			C215.46,159.21,215.38,159.27,215.29,159.27z M180.2,153.95c-0.03,0-0.06-0.01-0.09-0.02c-0.1-0.05-0.14-0.17-0.1-0.27
			c0.63-1.35,1.53-2.71,2.66-4.03c0.07-0.08,0.2-0.09,0.28-0.02c0.08,0.07,0.09,0.2,0.02,0.28c-1.11,1.3-1.98,2.62-2.6,3.94
			C180.34,153.91,180.27,153.95,180.2,153.95z M234.31,151.58c-0.05,0-0.09-0.02-0.13-0.05c-1.21-1.07-2.46-2.09-3.7-3.02
			c-0.09-0.07-0.11-0.19-0.04-0.28c0.07-0.09,0.19-0.11,0.28-0.04c1.25,0.94,2.5,1.96,3.72,3.04c0.08,0.07,0.09,0.2,0.02,0.28
			C234.42,151.55,234.37,151.58,234.31,151.58z M216.47,149.79C216.47,149.79,216.47,149.79,216.47,149.79c-0.11,0-0.2-0.09-0.2-0.2
			c0-0.27,0.01-0.54,0.01-0.81c0-1.3-0.05-2.63-0.15-3.95c-0.01-0.11,0.07-0.21,0.18-0.22c0.11-0.01,0.21,0.07,0.22,0.18
			c0.1,1.34,0.16,2.68,0.16,3.98c0,0.27,0,0.55-0.01,0.82C216.67,149.7,216.58,149.79,216.47,149.79z M186.28,146.65
			c-0.06,0-0.12-0.03-0.16-0.08c-0.07-0.09-0.06-0.21,0.03-0.28c1.23-0.98,2.57-1.89,3.99-2.7c0.1-0.05,0.22-0.02,0.27,0.08
			c0.05,0.1,0.02,0.22-0.08,0.27c-1.4,0.79-2.73,1.69-3.94,2.66C186.36,146.64,186.32,146.65,186.28,146.65z M226.65,145.85
			c-0.04,0-0.07-0.01-0.1-0.03c-1.38-0.85-2.78-1.61-4.18-2.28c-0.1-0.05-0.14-0.17-0.09-0.27c0.05-0.1,0.17-0.14,0.27-0.09
			c1.41,0.68,2.83,1.45,4.22,2.3c0.09,0.06,0.12,0.18,0.07,0.28C226.78,145.82,226.71,145.85,226.65,145.85z M194.57,141.94
			c-0.08,0-0.16-0.05-0.19-0.13c-0.04-0.1,0.01-0.22,0.12-0.26c1.49-0.57,3.04-1.04,4.61-1.39c0.11-0.02,0.22,0.04,0.24,0.15
			c0.02,0.11-0.04,0.22-0.15,0.24c-1.55,0.35-3.08,0.81-4.55,1.37C194.62,141.93,194.59,141.94,194.57,141.94z M218.02,141.74
			c-0.02,0-0.04,0-0.07-0.01c-1.52-0.52-3.06-0.94-4.59-1.26c-0.11-0.02-0.18-0.13-0.16-0.24c0.02-0.11,0.13-0.18,0.24-0.16
			c1.55,0.32,3.11,0.75,4.64,1.27c0.1,0.04,0.16,0.15,0.12,0.26C218.18,141.69,218.1,141.74,218.02,141.74z M215.75,140.25
			c-0.1,0-0.18-0.07-0.2-0.17c-0.26-1.55-0.58-3.12-0.97-4.67c-0.03-0.11,0.04-0.22,0.15-0.24c0.11-0.03,0.22,0.04,0.24,0.15
			c0.39,1.56,0.72,3.14,0.98,4.7c0.02,0.11-0.06,0.21-0.17,0.23C215.77,140.25,215.76,140.25,215.75,140.25z M203.88,139.85
			c-0.1,0-0.19-0.08-0.2-0.19c-0.01-0.11,0.07-0.21,0.19-0.22c1.59-0.12,3.21-0.13,4.81-0.02c0.11,0.01,0.19,0.1,0.19,0.21
			c-0.01,0.11-0.1,0.2-0.21,0.19c-1.58-0.11-3.18-0.1-4.76,0.02C203.89,139.85,203.89,139.85,203.88,139.85z M213.42,130.97
			c-0.08,0-0.16-0.05-0.19-0.14c-0.5-1.49-1.07-3-1.69-4.46c-0.04-0.1,0-0.22,0.11-0.26c0.1-0.04,0.22,0,0.26,0.11
			c0.62,1.48,1.2,2.99,1.7,4.49c0.04,0.11-0.02,0.22-0.13,0.25C213.46,130.97,213.44,130.97,213.42,130.97z M209.7,122.15
			c-0.07,0-0.14-0.04-0.18-0.11c-0.72-1.4-1.5-2.81-2.32-4.17c-0.06-0.09-0.03-0.22,0.07-0.28c0.09-0.06,0.22-0.03,0.28,0.07
			c0.83,1.37,1.61,2.78,2.34,4.19c0.05,0.1,0.01,0.22-0.09,0.27C209.77,122.14,209.73,122.15,209.7,122.15z M204.76,113.96
			c-0.06,0-0.13-0.03-0.16-0.09c-0.91-1.29-1.88-2.57-2.88-3.81c-0.07-0.09-0.06-0.21,0.03-0.28c0.09-0.07,0.21-0.06,0.28,0.03
			c1.01,1.24,1.98,2.53,2.89,3.83c0.06,0.09,0.04,0.22-0.05,0.28C204.84,113.95,204.8,113.96,204.76,113.96z M198.74,106.53
			c-0.05,0-0.11-0.02-0.15-0.06c-1.07-1.16-2.2-2.3-3.35-3.4c-0.08-0.08-0.08-0.2-0.01-0.28c0.08-0.08,0.2-0.08,0.28-0.01
			c1.16,1.1,2.29,2.25,3.37,3.42c0.08,0.08,0.07,0.21-0.01,0.28C198.83,106.51,198.79,106.53,198.74,106.53z M191.8,99.93
			c-0.05,0-0.09-0.02-0.13-0.05c-1.21-1.01-2.47-2.01-3.75-2.96c-0.09-0.07-0.11-0.19-0.04-0.28c0.07-0.09,0.19-0.11,0.28-0.04
			c1.29,0.96,2.55,1.96,3.77,2.97c0.08,0.07,0.1,0.2,0.02,0.28C191.92,99.91,191.86,99.93,191.8,99.93z M184.12,94.22
			c-0.04,0-0.08-0.01-0.11-0.03c-1.31-0.86-2.68-1.71-4.06-2.51c-0.1-0.06-0.13-0.18-0.07-0.27c0.06-0.1,0.18-0.13,0.27-0.07
			c1.39,0.81,2.76,1.65,4.08,2.52c0.09,0.06,0.12,0.19,0.06,0.28C184.25,94.19,184.19,94.22,184.12,94.22z M175.85,89.41
			c-0.03,0-0.06-0.01-0.09-0.02c-1.4-0.72-2.84-1.42-4.3-2.07c-0.1-0.05-0.15-0.16-0.1-0.27c0.05-0.1,0.16-0.15,0.27-0.1
			c1.46,0.66,2.92,1.36,4.32,2.08c0.1,0.05,0.14,0.17,0.09,0.27C176,89.37,175.93,89.41,175.85,89.41z"/>
	</g>
	<g>
		<path class="st3" d="M187.91,156.92H62.27c-6.79,0-12.29-5.5-12.29-12.29V73.71c0-6.79,5.5-12.29,12.29-12.29h125.64
			c6.79,0,12.29,5.5,12.29,12.29v70.92C200.2,151.41,194.7,156.92,187.91,156.92z"/>
	</g>
	<g>
		
			<rect x="81.55" y="38.27" transform="matrix(-1.836970e-16 1 -1 -1.836970e-16 234.2557 -15.9244)" class="st4" width="87.07" height="141.79"/>
	</g>
	<g>
		<rect x="54.19" y="65.63" class="st3" width="143.22" height="6.97"/>
	</g>
	<g>
		<path class="st2" d="M197.9,157.4H52.27c-1.53,0-2.78-1.25-2.78-2.78V63.71c0-1.53,1.25-2.78,2.78-2.78H197.9
			c1.53,0,2.78,1.25,2.78,2.78v90.91C200.68,156.15,199.44,157.4,197.9,157.4z M52.27,61.89c-1,0-1.82,0.82-1.82,1.82v90.91
			c0,1,0.82,1.82,1.82,1.82H197.9c1,0,1.82-0.82,1.82-1.82V63.71c0-1-0.82-1.82-1.82-1.82H52.27z"/>
	</g>
	<g>
		<g>
			<rect x="62.75" y="82.16" class="st3" width="25.2" height="1.62"/>
		</g>
		<g>
			<rect x="91.83" y="82.16" class="st3" width="27.26" height="1.62"/>
		</g>
	</g>
	<g>
		<path class="st2" d="M196.47,153.18H53.71V65.15h142.75V153.18z M54.67,152.22h140.84V66.11H54.67V152.22z"/>
	</g>
	<g>
		<rect x="62.75" y="90.17" class="st3" width="56.34" height="1.62"/>
	</g>
	<g>
		<rect x="62.75" y="98.17" class="st3" width="56.34" height="1.62"/>
	</g>
	<g>
		<rect x="62.75" y="106.16" class="st3" width="56.34" height="1.62"/>
	</g>
	<g>
		<rect x="110.25" y="156.92" class="st3" width="29.68" height="20.97"/>
	</g>
	<g>
		<path class="st2" d="M140.41,178.36h-30.64v-21.92h30.64V178.36z M110.73,177.41h28.73V157.4h-28.73V177.41z"/>
	</g>
	<g>
		<path class="st3" d="M155.09,173.67H95.48c-4.28,0-7.75,3.47-7.75,7.75v0.28h75.11v-0.28
			C162.84,177.14,159.37,173.67,155.09,173.67z"/>
	</g>
	<g>
		<path class="st2" d="M163.32,182.18H87.25v-2.59c0-3.53,2.87-6.4,6.4-6.4h63.27c3.53,0,6.4,2.87,6.4,6.4V182.18z M88.21,181.22
			h74.16v-1.63c0-3-2.44-5.44-5.44-5.44H93.65c-3,0-5.44,2.44-5.44,5.44V181.22z"/>
	</g>
	<g>
		<path class="st3" d="M58.78,159.67c12.93-7.38,18.62-23.68,15.95-37.6c-14.51,3.93-24.23,14.02-26.18,28.27v9.04l8.63,0.36
			L58.78,159.67z"/>
	</g>
	<g>
		<path class="st3" d="M50.08,159.23c3.65-14.62-5.87-27.23-25.06-24.5c1.03,11.07,7.74,18.65,16.14,24.79L50.08,159.23z"/>
	</g>
	<g>
		<path class="st3" d="M39.59,140c-4.32-11.99-1.2-20.7,1.58-26.19c14.41,5.13,14.66,12.53,15.5,25.69l-7.46,8.07L39.59,140z"/>
	</g>
	<g>
		<path class="st3" d="M168.71,114.26l-1.77,0.61l-12.53,7.58l0.71,7.46c0,0,4.84,5.56,6.81,7.37c1.97,1.81,3.78,3.25,6.9,3.48
			c3.13,0.23,4.61,0.35,6.05-0.41c1.43-0.76,3.9-2.68,4.8-3.78s3.81-5.9,3.81-5.9l13.39-23.25l2.15-3.81c0,0,5.26-1.95,7.48-2.28
			c2.22-0.32,5.63-1.8,7.04-2.39c1.41-0.6,1.9-1.01,2.58-2.15c0.68-1.13,0.98-1.84,0.86-2.22c-0.13-0.38-0.16-1.2-0.16-1.2
			s0.66-1.34,0.7-2.07c0.04-0.73-0.67-1.35-0.93-1.46c-0.26-0.11-0.58-0.51-0.58-0.51s-0.56-1.66-1.61-1.69
			c-1.05-0.04-1.49-0.13-1.49-0.13s-0.84-0.75-1.75-0.45c-0.91,0.31-2.11,1.43-2.67,1.96c-0.56,0.52-2.06,1.58-2.06,1.58
			s-3.16,1.22-4.44,1.16c-1.28-0.06-1.58-0.44-1.58-0.44s3.68-3.47,3.83-4.1c0.15-0.64,0.76-1.56,0.28-2.39
			c-0.48-0.83-0.15-1.4-1.53-1.22c-1.38,0.19-2.77,1.25-3.66,1.79c-0.88,0.53-6.1,3.12-7.46,3.8c-1.37,0.68-3.68,2.05-4.3,2.82
			c-0.62,0.76-1.75,3.06-1.92,4.04c-0.17,0.98-0.3,2.11-0.3,2.11l-14.97,18.87l-0.5-0.34L168.71,114.26z"/>
	</g>
	<g>
		<path class="st5" d="M112.16,50.08c0.02-0.11-0.86-1.78-0.86-3.48c-0.01-1.7-0.25-3.28,0.38-6.2c0.63-2.93,2.34-5.29,3.7-6.72
			c1.35-1.43,3.1-2.83,4.56-3.55c-1.32-1.61-1.55-4.24-0.34-5.62c1.2-1.38,3.9-2.68,7.37-3c3.47-0.32,5.34,0.31,7.98,1.34
			c2.64,1.03,2.65,3.04,2.38,4.08c-0.28,1.04-1.12,2.58-1.12,2.58s3.87,1.93,5.89,4.26c2.02,2.33,4,6.26,4.35,8.04
			c0.34,1.78,0.54,7.45-0.54,8.6C144.8,51.55,112.16,50.08,112.16,50.08z"/>
	</g>
	<g>
		<path class="st3" d="M90.16,119.09l14.33,3.36l-1.74,30.15l-17.95-0.36c0,0,4.07-27.99,4.07-28.03
			C88.88,124.17,90.16,119.09,90.16,119.09z"/>
	</g>
	<g>
		<path class="st3" d="M112.79,49.51c-0.37-1.54-0.31-5.19,0.32-8.11c0.63-2.93,2.13-5.34,3.48-6.77c1.35-1.43,8.39-6.51,18.92-4.76
			c-4.88-2.15-11.21-0.83-14.48-0.09c-1.05-1.23-0.84-2.82,0.05-4c1.12-1.48,4.16-2.8,7.63-3.13c3.13-0.29,4.96,0.2,7.22,1.05
			c-0.28-0.19-0.61-0.36-1-0.51c-2.64-1.03-4.51-1.66-7.98-1.34c-3.47,0.32-6.17,1.63-7.37,3c-1.2,1.38-0.98,4.02,0.34,5.62
			c-1.46,0.72-3.21,2.12-4.56,3.55c-1.35,1.43-3.06,3.79-3.7,6.72c-0.63,2.93-0.38,4.5-0.38,6.2c0.01,1.7,0.89,3.38,0.86,3.48
			C112.16,50.43,113.04,50.55,112.79,49.51z"/>
	</g>
	<g>
		<path class="st1" d="M120.64,80.4c0,0-1,0.3-2.3,0.82c-1.31,0.52-6.45,2.58-8.67,3.54c-2.22,0.95-6.28,3.18-7.96,4.75
			c-1.67,1.57-6.15,7.62-7.5,9.55c-1.35,1.93-3.81,9.74-3.81,9.74l-2.56,9.53l16.84,3.55l-1.36,30.63l52.21,0.19l0.43-0.47
			l-1.38-30.62l14.13-7.8c0,0-5.63-13.05-7.16-15.58c-1.53-2.52-6.07-9.09-11.15-11.9c-5.08-2.81-12.35-5.54-12.35-5.54l-0.91-0.4
			c0,0-4.31,1.78-7.04,1.95c-2.72,0.17-4.04-0.4-5.56-0.6C123.03,81.55,120.64,80.4,120.64,80.4z"/>
	</g>
	<g>
		<g>
			<path class="st3" d="M96.09,100.22c2.08-4.19,6.04-9.94,15.72-14.34c2.2-1,10.1-4.12,10.82-4.42c-1.32-0.41-2.68-1.06-2.68-1.06
				s-1,0.3-2.3,0.82c-1.31,0.52-6.45,2.58-8.67,3.54c-2.22,0.95-6.28,3.18-7.96,4.75c-1.67,1.57-5.36,7.44-6.71,9.37
				c-1.35,1.93-4.01,10.29-4.01,10.29l-2,9.41l1.82,0.38C90.12,118.96,92.03,108.4,96.09,100.22z"/>
		</g>
	</g>
	<g>
		<path class="st2" d="M195.99,72.76H54.19c-0.26,0-0.48-0.21-0.48-0.48c0-0.26,0.21-0.48,0.48-0.48h141.79
			c0.26,0,0.48,0.21,0.48,0.48C196.47,72.55,196.25,72.76,195.99,72.76z"/>
	</g>
	<g>
		<path class="st2" d="M200.7,63.44h-5.41c0,0-1.41,0-1.97,0.53c-0.56,0.53-0.55,1.79-0.28,2.26c0.27,0.47,0.57,1.02,0.57,1.02
			s-0.67,1.06-0.75,1.96c-0.07,0.9,0.73,1.62,0.73,1.62s-0.52,0.99-0.66,1.95c-0.14,0.96-0.03,1.42,1.26,1.46
			c1.29,0.04,2.36,0.34,2.36,0.34s1.59,2.79,3.67,3c2.08,0.21,2.82-0.08,3.47-0.49c0.64-0.4,1.4-0.79,1.88-1.71
			c0.48-0.92,0.77-1.24,0.77-1.24s1.09,0.04,2.19-0.2c1.1-0.24,1.42-1.4,1.21-1.9c-0.21-0.5,0.01-1.06-0.84-1.5
			c0.75-1.23,0.53-2.36,0.36-2.62c-0.17-0.26-0.57-0.85-0.57-0.85s1.08-0.87,0.85-1.8s-0.1-1.87-2.08-1.83
			C205.47,63.47,200.7,63.44,200.7,63.44z"/>
	</g>
	<g>
		<path class="st3" d="M106.27,105.04l-2.95,47.48l2.37,0.19c0,0,1.26-29.38,1.26-43.13C106.94,106.26,106.27,105.04,106.27,105.04z
			"/>
	</g>
	<g>
		<g>
			<path class="st3" d="M201.72,77.58c-2.08-0.21-3.67-3-3.67-3s-0.59-0.64-2.09-1c-1.26-0.3-1.51-0.8-1.51-1.35
				c0.01-0.97,1.19-1.41,1.19-1.41s-1.41-0.59-1.35-1.86c0.04-0.91,2.46-1.72,2.46-1.72s-1.8-0.6-2.25-1.43
				c-0.26-0.48-0.24-1.33,0.32-1.85c0.56-0.53,1.97-0.53,1.97-0.53h-1.61c0,0-1.41,0-1.97,0.53c-0.56,0.53-0.55,1.79-0.28,2.26
				c0.27,0.47,0.57,1.02,0.57,1.02s-0.67,1.06-0.75,1.96c-0.07,0.9,0.73,1.62,0.73,1.62s-0.52,0.99-0.66,1.95
				c-0.14,0.96-0.03,1.42,1.26,1.46c1.29,0.04,2.36,0.34,2.36,0.34s1.59,2.79,3.67,3c0.84,0.08,1.46,0.08,1.95,0.03
				C201.96,77.61,201.84,77.6,201.72,77.58z"/>
		</g>
	</g>
	<g>
		<path class="st2" d="M214.87,182.18H13.58c-0.26,0-0.48-0.21-0.48-0.48c0-0.26,0.21-0.48,0.48-0.48h201.28
			c0.26,0,0.48,0.21,0.48,0.48C215.34,181.96,215.13,182.18,214.87,182.18z"/>
	</g>
	<g>
		<g>
			<path class="st2" d="M21.96,88.94l-0.15-0.72c-0.22-1.04-0.24-1.93-0.06-2.67c0.18-0.74,0.62-1.57,1.34-2.5
				c0.99-1.28,1.59-2.2,1.8-2.79c0.21-0.58,0.23-1.24,0.08-1.96c-0.19-0.91-0.63-1.55-1.31-1.92c-0.68-0.37-1.57-0.44-2.67-0.21
				c-0.7,0.15-1.37,0.37-2,0.68c-0.63,0.3-1.33,0.76-2.1,1.38l-1.17-1.63c1.5-1.23,3.16-2.04,4.99-2.42c1.7-0.36,3.1-0.22,4.22,0.42
				c1.12,0.64,1.83,1.72,2.15,3.23c0.14,0.65,0.17,1.24,0.1,1.77c-0.07,0.53-0.23,1.05-0.47,1.56c-0.25,0.51-0.83,1.37-1.74,2.58
				c-0.74,0.95-1.2,1.71-1.38,2.28c-0.18,0.57-0.19,1.27-0.01,2.12l0.09,0.44L21.96,88.94z M22.14,93.03
				c-0.25-1.21,0.15-1.92,1.22-2.15c0.52-0.11,0.94-0.04,1.29,0.22c0.34,0.25,0.58,0.67,0.7,1.26c0.12,0.57,0.07,1.04-0.15,1.41
				c-0.22,0.38-0.58,0.62-1.09,0.72c-0.46,0.1-0.87,0.04-1.23-0.18C22.52,94.1,22.27,93.67,22.14,93.03z"/>
		</g>
	</g>
	<g>
		<path class="st2" d="M201.03,92.31c-1.04,0-2.14-0.24-3.43-0.87c-0.24-0.12-0.34-0.4-0.22-0.64c0.12-0.24,0.4-0.34,0.64-0.22
			c2.53,1.24,4.15,0.77,6.61,0.06c0.48-0.14,0.97-0.28,1.52-0.42c1.1-0.58,1.8-1.31,2.48-2c0.68-0.7,1.33-1.37,2.25-1.7
			c0.66-0.24,1.6-0.21,2.21,0.39c0.28,0.27,0.41,0.77,0.33,1.25c-0.04,0.26-0.29,0.44-0.55,0.39c-0.26-0.04-0.44-0.29-0.39-0.55
			c0.04-0.21-0.03-0.37-0.05-0.4c-0.29-0.28-0.85-0.3-1.22-0.17c-0.72,0.26-1.26,0.82-1.89,1.46c-0.71,0.73-1.51,1.55-2.77,2.21
			l-0.05,0.03l-0.05,0.01c-0.55,0.14-1.06,0.29-1.55,0.43C203.49,91.96,202.29,92.31,201.03,92.31z"/>
	</g>
	<g>
		<path class="st2" d="M206.13,94.94c-0.22,0-0.42-0.16-0.47-0.39c-0.05-0.26,0.12-0.51,0.38-0.56l0.51-0.1
			c1.21-0.23,2.58-0.5,3.15-0.79c0.63-0.32,1.61-1.05,2.56-1.75c1-0.74,1.86-1.38,2.38-1.61c0.98-0.44,2.36-0.39,3.06,0.77
			c0.74,1.21,0.16,2.59-0.69,3.35c-0.2,0.18-0.5,0.16-0.68-0.04c-0.18-0.2-0.16-0.5,0.04-0.68c0.47-0.42,1-1.34,0.51-2.14
			c-0.46-0.76-1.38-0.61-1.85-0.4c-0.43,0.19-1.33,0.86-2.21,1.51c-0.98,0.73-1.99,1.48-2.69,1.83c-0.69,0.35-2.01,0.61-3.41,0.88
			l-0.51,0.1C206.19,94.94,206.16,94.94,206.13,94.94z"/>
	</g>
	<g>
		<path class="st2" d="M205.41,92.82c-0.23,0-0.44-0.17-0.47-0.4c-0.04-0.26,0.14-0.51,0.4-0.55c0.81-0.13,3.07-0.63,3.81-1.45
			c0.91-1.01,3.87-3.39,5.19-3.24c0.71,0.08,1.32,0.44,1.68,1c0.33,0.52,0.41,1.17,0.21,1.77c-0.08,0.25-0.36,0.39-0.61,0.3
			c-0.25-0.08-0.38-0.36-0.3-0.61c0.11-0.33,0.07-0.67-0.11-0.95c-0.2-0.31-0.56-0.52-0.98-0.57c-0.71-0.08-3.29,1.73-4.38,2.93
			c-1.1,1.21-4.04,1.7-4.37,1.75C205.46,92.82,205.43,92.82,205.41,92.82z"/>
	</g>
	<g>
		<g>
			<path class="st3" d="M86.28,12.32h2.45c2.51,0,4.54,2.03,4.54,4.54v19.59c0,2.51-2.03,4.54-4.54,4.54h-2.94l2.62,10.87
				L76.14,40.99H49.06c-2.51,0-4.54-2.03-4.54-4.54V16.86c0-2.51,2.03-4.54,4.54-4.54h28.2H86.28z"/>
		</g>
		<g>
			<path class="st6" d="M86.28,12.32h2.45c2.51,0,4.54,2.03,4.54,4.54v19.59c0,2.51-2.03,4.54-4.54,4.54h-2.94l2.62,10.87
				L76.14,40.99H49.06c-2.51,0-4.54-2.03-4.54-4.54V16.86c0-2.51,2.03-4.54,4.54-4.54h28.2H86.28z"/>
		</g>
		<g>
			<path class="st3" d="M86.28,12.32h2.45c2.51,0,4.54,2.03,4.54,4.54v19.59c0,2.51-2.03,4.54-4.54,4.54h-2.94l2.5,10.36
				c0.04,0.15-0.15,0.27-0.27,0.16L76.14,40.99H49.06c-2.51,0-4.54-2.03-4.54-4.54V16.86c0-2.51,2.03-4.54,4.54-4.54h28.2H86.28z"/>
		</g>
		<g>
			<g>
				<path class="st3" d="M47.02,38.44V18.85c0-2.51,2.03-4.54,4.54-4.54H54h9.02h28.2c0.36,0,0.7,0.05,1.03,0.13
					c-0.78-1.37-2.24-2.3-3.92-2.3h-28.2h-9.02h-2.45c-2.51,0-4.14,2.09-4.14,4.59l-0.4,19.54c0,2.15,1.5,3.94,3.51,4.41
					C47.26,40.02,47.02,39.26,47.02,38.44z"/>
			</g>
		</g>
		<g>
			<path class="st2" d="M88.13,52.03c-0.15,0-0.3-0.05-0.42-0.16l-11.75-10.4h-26.9c-2.77,0-5.02-2.25-5.02-5.02V16.86
				c0-2.77,2.25-5.02,5.02-5.02h4.85c0.26,0,0.48,0.21,0.48,0.48c0,0.26-0.21,0.48-0.48,0.48h-4.85c-2.24,0-4.06,1.82-4.06,4.06
				v19.59c0,2.24,1.82,4.06,4.06,4.06h27.26l11.27,9.98l-2.41-9.98h3.54c2.24,0,4.06-1.82,4.06-4.06V16.86
				c0-2.24-1.82-4.06-4.06-4.06H62.93c-0.26,0-0.48-0.21-0.48-0.48c0-0.26,0.21-0.48,0.48-0.48h25.79c2.77,0,5.02,2.25,5.02,5.02
				v19.59c0,2.77-2.25,5.02-5.02,5.02H86.4l2.36,9.77c0.07,0.27-0.05,0.56-0.29,0.7C88.36,52,88.24,52.03,88.13,52.03z"/>
		</g>
		<g>
			<path class="st2" d="M85.6,21.14H74.26c-0.26,0-0.48-0.21-0.48-0.48c0-0.26,0.21-0.48,0.48-0.48H85.6c0.26,0,0.48,0.21,0.48,0.48
				C86.08,20.92,85.86,21.14,85.6,21.14z"/>
		</g>
		<g>
			<path class="st2" d="M68.57,21.14H51.49c-0.26,0-0.48-0.21-0.48-0.48c0-0.26,0.21-0.48,0.48-0.48h17.09
				c0.26,0,0.48,0.21,0.48,0.48C69.05,20.92,68.84,21.14,68.57,21.14z"/>
		</g>
		<g>
			<path class="st2" d="M75.98,33.07h-24.5c-0.26,0-0.48-0.21-0.48-0.48c0-0.26,0.21-0.48,0.48-0.48h24.5
				c0.26,0,0.48,0.21,0.48,0.48C76.46,32.86,76.25,33.07,75.98,33.07z"/>
		</g>
		<g>
			<path class="st2" d="M85.6,27.16H51.49c-0.26,0-0.48-0.21-0.48-0.48c0-0.26,0.21-0.48,0.48-0.48H85.6c0.26,0,0.48,0.21,0.48,0.48
				C86.08,26.95,85.86,27.16,85.6,27.16z"/>
		</g>
	</g>
	<g>
		<path class="st3" d="M121.7,71.19c0,0-0.09,7.33-1.51,9.14c-1.42,1.81-5.29,2.26-5.29,2.26l-0.26,0.54c0,0,4.67,3.02,8.65,3.1
			c3.98,0.08,8.47,0.32,11.19-0.28c2.72-0.59,7.45-1.93,7.57-1.93s1.21-1.34,1.21-1.34s-5.56-2.46-5.99-2.74
			c-0.43-0.28-0.86-5.65-0.86-5.65l-0.39-3.4c0,0,3.43-1.64,5.51-7.19c0.61-1.63,1.09-4.5,1.09-4.5s2.32,1.23,3.21,0
			c0.9-1.23,1.88-1.39,1.19-2.74c-0.69-1.35-1.64-2.48-2.08-2.58c-0.44-0.1-2.28-1.16-2.28-1.16s-0.97-4.49-2.41-8.29
			c-3.66,0-13.73-2.77-16.7-5.85c-1.47,4.47-6.32,6.61-7.44,9.45c-1.12,2.84-2.87,5.54-2.87,5.54s-2.48,1.4-2.52,3.01
			c-0.04,1.61,0.28,2.2,1.7,2.9c1.42,0.7,2.51,0.01,2.51,0.01s1.35,6.17,2.26,7.51c0.91,1.34,2.58,2.54,2.83,2.78
			C120.25,70.02,121.7,71.19,121.7,71.19z"/>
	</g>
	<g>
		<path class="st2" d="M171.52,141.49c-7.13,0-10.96-4.22-17.02-11.57c-0.17-0.2-0.14-0.51,0.06-0.67c0.2-0.17,0.51-0.14,0.67,0.07
			c6,7.27,9.73,11.38,16.71,11.21c3.95-0.1,7.59-3.38,11.47-10.34c2.67-4.8,5.17-9.14,7.37-12.98c2.95-5.14,5.5-9.57,7.63-13.63
			c0.4-0.75,3.04-1.58,10.49-3.29c0.65-0.15,1.18-0.27,1.5-0.35c3.47-1.24,5.47-3.41,5.77-4.03c0.57-1.16,0.24-1.55,0.14-1.68
			c-0.34-0.4-1.23-0.18-1.92,0.09c-0.69,0.26-1.51,0.84-2.29,1.39c-1.14,0.81-2.22,1.57-3.21,1.66c-0.57,0.06-1.44-0.05-2.55-0.19
			c-2.23-0.28-5.27-0.66-7.23,0.19c-0.24,0.11-0.52-0.01-0.63-0.25c-0.1-0.24,0.01-0.52,0.25-0.63c2.2-0.95,5.4-0.55,7.73-0.26
			c1.01,0.13,1.88,0.23,2.34,0.19c0.74-0.07,1.76-0.79,2.75-1.49c0.84-0.59,1.7-1.2,2.51-1.51c0.53-0.2,2.16-0.82,3,0.2
			c0.55,0.67,0.55,1.56-0.01,2.71c-0.42,0.86-2.6,3.19-6.33,4.52l-0.05,0.01c-0.33,0.08-0.87,0.2-1.54,0.36
			c-2.28,0.52-9.2,2.11-9.86,2.82c-2.14,4.06-4.69,8.5-7.64,13.64c-2.2,3.83-4.69,8.17-7.36,12.96
			c-4.06,7.28-7.96,10.72-12.28,10.83C171.82,141.48,171.67,141.49,171.52,141.49z M199.25,104.06L199.25,104.06L199.25,104.06z"/>
	</g>
	<g>
		<path class="st2" d="M167.18,121.35c-0.1,0-0.21-0.03-0.3-0.1c-0.21-0.17-0.24-0.47-0.07-0.67l18.07-22.59
			c0.5-4.94,1.95-6.92,6.62-9.14c0.51-0.24,0.98-0.46,1.42-0.67c3.41-1.61,5.12-2.41,7.9-4.33c1.3-0.9,2.65-0.94,3.6-0.13
			c0.78,0.67,1.04,1.78,0.61,2.64c-1.34,2.72-3.84,4.91-4.66,5.63c-0.2,0.17-0.5,0.15-0.68-0.05c-0.17-0.2-0.15-0.5,0.05-0.68
			c0.79-0.69,3.18-2.78,4.43-5.33c0.23-0.47,0.07-1.1-0.38-1.49c-0.61-0.52-1.49-0.46-2.43,0.19c-2.85,1.96-4.59,2.78-8.04,4.41
			c-0.44,0.21-0.92,0.43-1.42,0.67c-4.39,2.08-5.64,3.83-6.09,8.51l-0.01,0.14l-18.24,22.81
			C167.46,121.29,167.32,121.35,167.18,121.35z"/>
	</g>
	<g>
		<path class="st2" d="M156.15,153.18c-0.25,0-0.46-0.2-0.48-0.45c-0.26-4.36-0.63-10.7-1.01-17.42
			c-0.69-12.08-1.47-25.76-1.83-30.48c-0.02-0.26,0.18-0.49,0.44-0.51c0.26-0.02,0.49,0.18,0.51,0.44
			c0.36,4.73,1.14,18.42,1.83,30.5c0.38,6.72,0.75,13.06,1.01,17.42c0.02,0.26-0.19,0.49-0.45,0.51
			C156.17,153.18,156.16,153.18,156.15,153.18z"/>
	</g>
	<g>
		<path class="st2" d="M103.08,153.08c-0.01,0-0.02,0-0.03,0c-0.26-0.02-0.46-0.24-0.45-0.51c0.26-4.35,0.62-10.65,1-17.31
			c0.69-12.08,1.47-25.77,1.83-30.5c0.02-0.26,0.25-0.46,0.51-0.44c0.26,0.02,0.46,0.25,0.44,0.51c-0.36,4.72-1.14,18.41-1.83,30.48
			c-0.38,6.67-0.74,12.96-1,17.32C103.54,152.88,103.33,153.08,103.08,153.08z"/>
	</g>
	<g>
		<path class="st2" d="M131.09,66.28c1.39-0.75,1.98-1.76,2.02-2.98c0.03-0.93-0.11-1.38-0.55-1.48c-0.55-0.12-1.55,0.64-3.16,1.59
			c-1.17,0.69-3.05,1.24-2.86,2.22C126.71,66.47,128.88,67.48,131.09,66.28z"/>
	</g>
	<g>
		<path class="st3" d="M132.98,63.84c-1.21-0.51-3.65,0.45-3.13,2.55C131.46,66.08,132.86,64.57,132.98,63.84z"/>
	</g>
	<g>
		<path class="st2" d="M129.78,73.08h-1.86c-3.79,0-7.01-1.15-9.32-3.32c-2.56-2.41-3.89-5.9-3.94-10.38c0-0.26,0.21-0.48,0.47-0.48
			c0,0,0,0,0.01,0c0.26,0,0.48,0.21,0.48,0.47c0.1,7.99,4.69,12.75,12.3,12.75h1.86c7.04,0,12.15-5.36,12.15-12.75
			c0-0.26,0.21-0.48,0.48-0.48c0.26,0,0.48,0.21,0.48,0.48c0,3.89-1.35,7.4-3.81,9.91C136.68,71.73,133.38,73.08,129.78,73.08z"/>
	</g>
	<g>
		<path class="st2" d="M113.62,60.19c-2.23,0-4.04-1.81-4.04-4.04c0-2.23,1.81-4.04,4.04-4.04c0.56,0,1.1,0.11,1.61,0.33
			c0.24,0.11,0.35,0.39,0.25,0.63c-0.11,0.24-0.39,0.35-0.63,0.25c-0.39-0.17-0.8-0.25-1.23-0.25c-1.7,0-3.08,1.38-3.08,3.08
			c0,1.7,1.38,3.08,3.08,3.08c0.46,0,0.91-0.1,1.32-0.3c0.24-0.11,0.52-0.01,0.64,0.23c0.11,0.24,0.01,0.52-0.23,0.64
			C114.81,60.06,114.22,60.19,113.62,60.19z"/>
	</g>
	<g>
		<path class="st2" d="M112.06,56.7c-0.26,0-0.48-0.21-0.48-0.47c-0.01-0.72,0.22-1.32,0.67-1.73c0.33-0.3,0.95-0.65,1.99-0.55
			c0.26,0.03,0.46,0.26,0.43,0.52c-0.03,0.26-0.26,0.46-0.52,0.43c-0.55-0.05-0.98,0.05-1.25,0.3c-0.3,0.28-0.36,0.71-0.36,1.01
			C112.54,56.48,112.33,56.7,112.06,56.7C112.06,56.7,112.06,56.7,112.06,56.7z"/>
	</g>
	<g>
		<path class="st2" d="M143.94,60.19c-0.61,0-1.19-0.13-1.74-0.39c-0.24-0.11-0.34-0.4-0.23-0.64c0.11-0.24,0.4-0.34,0.64-0.23
			c0.41,0.2,0.86,0.3,1.32,0.3c1.7,0,3.08-1.38,3.08-3.08c0-1.7-1.38-3.08-3.08-3.08c-0.45,0-0.8,0.07-1.17,0.23
			c-0.24,0.1-0.52-0.01-0.63-0.25c-0.11-0.24,0.01-0.52,0.25-0.63c0.49-0.21,0.97-0.31,1.55-0.31c2.23,0,4.04,1.81,4.04,4.04
			C147.98,58.38,146.17,60.19,143.94,60.19z"/>
	</g>
	<g>
		<path class="st2" d="M145.5,56.7C145.5,56.7,145.5,56.7,145.5,56.7c-0.27,0-0.48-0.22-0.48-0.48c0-0.31-0.06-0.73-0.36-1.01
			c-0.27-0.25-0.7-0.35-1.25-0.3c-0.26,0.02-0.5-0.17-0.52-0.43c-0.03-0.26,0.17-0.5,0.43-0.52c1.04-0.1,1.66,0.24,1.99,0.55
			c0.45,0.41,0.68,1.01,0.67,1.73C145.98,56.49,145.76,56.7,145.5,56.7z"/>
	</g>
	<g>
		<path class="st2" d="M122.95,54.31c0,0.82-0.39,1.48-0.87,1.48c-0.48,0-0.87-0.66-0.87-1.48s0.39-1.48,0.87-1.48
			C122.56,52.83,122.95,53.49,122.95,54.31z"/>
	</g>
	<g>
		<path class="st2" d="M118.55,50.88c-0.13,0-0.27-0.06-0.36-0.17c-0.17-0.2-0.15-0.5,0.05-0.68c1.62-1.4,4.27-1.88,6.44-1.18
			c0.25,0.08,0.39,0.35,0.31,0.6c-0.08,0.25-0.35,0.39-0.6,0.31c-1.87-0.6-4.14-0.19-5.53,1C118.77,50.84,118.66,50.88,118.55,50.88
			z"/>
	</g>
	<g>
		<path class="st2" d="M138.34,50.88c-0.11,0-0.22-0.04-0.31-0.12c-1.38-1.19-3.65-1.6-5.53-1c-0.25,0.08-0.52-0.06-0.6-0.31
			c-0.08-0.25,0.06-0.52,0.31-0.6c2.17-0.7,4.82-0.21,6.44,1.18c0.2,0.17,0.22,0.47,0.05,0.68
			C138.6,50.82,138.47,50.88,138.34,50.88z"/>
	</g>
	<g>
		<path class="st2" d="M134.22,54.31c0,0.82,0.39,1.48,0.87,1.48s0.87-0.66,0.87-1.48s-0.39-1.48-0.87-1.48
			S134.22,53.49,134.22,54.31z"/>
	</g>
	<g>
		<path class="st2" d="M128.97,67.16c-0.87,0-1.51-0.25-1.77-0.37c-0.65-0.3-1.07-0.75-1.16-1.22c-0.22-1.09,1.03-1.7,2.14-2.23
			c0.33-0.16,0.67-0.32,0.95-0.49c0.38-0.22,0.72-0.43,1.03-0.63c1.16-0.72,1.87-1.15,2.47-1.02c0.99,0.21,0.94,1.44,0.93,1.96
			c-0.05,1.46-0.81,2.6-2.27,3.39l0,0C130.42,67.02,129.63,67.16,128.97,67.16z M132.38,62.14c-0.27,0-1.05,0.48-1.73,0.9
			c-0.32,0.2-0.66,0.41-1.05,0.64c-0.31,0.18-0.67,0.36-1.01,0.52c-0.71,0.35-1.69,0.82-1.61,1.19c0.02,0.1,0.21,0.34,0.63,0.54
			c0.73,0.34,1.96,0.47,3.22-0.21l0,0c1.17-0.63,1.73-1.45,1.77-2.58c0.02-0.6-0.04-0.96-0.17-0.99
			C132.4,62.14,132.39,62.14,132.38,62.14z M131.04,66.13L131.04,66.13L131.04,66.13z"/>
	</g>
	<g>
		<path class="st2" d="M126.56,61.12c-0.72,0-1.28-0.18-1.66-0.53c-0.35-0.32-0.53-0.77-0.54-1.33c-0.02-1.24,1.34-2.07,1.92-2.43
			c0.48-0.29,0.95-1.38,0.84-3.55c-0.01-0.26,0.19-0.49,0.45-0.5c0.27-0.01,0.49,0.19,0.5,0.45c0.12,2.26-0.34,3.83-1.29,4.42
			c-0.69,0.42-1.47,0.98-1.47,1.6c0,0.29,0.08,0.5,0.23,0.64c0.16,0.15,0.51,0.32,1.27,0.27c0.26-0.02,0.49,0.18,0.51,0.45
			c0.02,0.26-0.18,0.49-0.45,0.51C126.77,61.12,126.66,61.12,126.56,61.12z"/>
	</g>
	<g>
		<path class="st2" d="M145.37,54.09c-0.04,0-0.07,0-0.11-0.01c-0.26-0.06-0.42-0.32-0.36-0.58l0.01-0.05
			c1.07-4.5,2.18-9.16-0.07-14.52c-4.2-9.99-14.45-10.07-17.49-9.85c-5.67,0.4-12.48,3.2-14.59,9.88
			c-2.37,7.5,0.21,14.25,0.24,14.32c0.1,0.25-0.02,0.52-0.27,0.62c-0.25,0.1-0.52-0.02-0.62-0.27c-0.11-0.29-2.74-7.14-0.26-14.96
			c2.26-7.14,9.46-10.13,15.44-10.55c3.2-0.22,14-0.14,18.44,10.44c2.37,5.64,1.18,10.67,0.12,15.11l-0.01,0.05
			C145.79,53.94,145.59,54.09,145.37,54.09z"/>
	</g>
	<g>
		<path class="st2" d="M129.79,67.09c-0.19,0-0.36-0.11-0.44-0.29c-0.45-1.06-0.22-2.13,0.61-2.88c0.91-0.82,2.31-1.03,3.26-0.5
			c0.23,0.13,0.31,0.42,0.18,0.65c-0.13,0.23-0.42,0.31-0.65,0.18c-0.59-0.33-1.55-0.16-2.15,0.38c-0.3,0.27-0.76,0.87-0.37,1.79
			c0.1,0.24-0.01,0.52-0.25,0.63C129.92,67.08,129.85,67.09,129.79,67.09z"/>
	</g>
	<g>
		<path class="st2" d="M154.74,122.68c-0.16,0-0.32-0.08-0.41-0.23c-0.14-0.23-0.06-0.52,0.16-0.66l13.72-8.24
			c-1.08-2.71-2.79-6.35-3.84-8.56c-0.27-0.57-0.49-1.03-0.63-1.34c-4.43-9.64-9.17-16.06-20.25-20.36
			c-0.88-0.34-3.33-1.29-5.03-1.94c-1.04-0.4-1.86-1.46-2.21-2.83c-0.71-2.78-0.66-6.16-0.64-7.43c0-0.26,0.23-0.48,0.49-0.47
			c0.26,0,0.48,0.22,0.47,0.49c-0.02,1.24-0.07,4.52,0.61,7.18c0.27,1.07,0.88,1.88,1.63,2.17c1.7,0.65,4.15,1.6,5.03,1.94
			c5.49,2.13,9.82,4.97,13.21,8.68c3.49,3.81,5.78,8.29,7.56,12.17c0.14,0.31,0.36,0.77,0.63,1.34c1.1,2.33,2.93,6.23,4.01,9
			l0.15,0.38l-14.42,8.65C154.9,122.66,154.82,122.68,154.74,122.68z"/>
	</g>
	<g>
		<path class="st2" d="M104.62,122.55c-0.03,0-0.07,0-0.1-0.01l-17.27-3.85l0.13-0.48c0.22-0.83,0.44-1.68,0.66-2.55
			c1.62-6.28,3.46-13.39,6.74-18.51c4.36-6.79,8.3-10.72,18.92-14.67c0.14-0.05,0.33-0.12,0.56-0.21c1.15-0.42,3.29-1.21,4.59-1.78
			c0.99-0.44,1.62-1.11,1.85-2c0.56-2.15,1.04-5.1,0.67-6.93c-0.05-0.26,0.12-0.51,0.38-0.56c0.26-0.05,0.51,0.12,0.56,0.38
			c0.5,2.51-0.39,6.27-0.68,7.36c-0.31,1.19-1.12,2.07-2.39,2.63c-1.33,0.59-3.49,1.38-4.65,1.81c-0.22,0.08-0.41,0.15-0.55,0.2
			c-10.43,3.89-14.12,7.55-18.45,14.29c-3.2,4.99-5.02,12.03-6.62,18.24c-0.18,0.7-0.36,1.39-0.54,2.07l16.3,3.64
			c0.26,0.06,0.42,0.31,0.36,0.57C105.04,122.4,104.84,122.55,104.62,122.55z"/>
	</g>
	<g>
		<path class="st2" d="M84.59,153.08c-0.03,0-0.05,0-0.08-0.01c-0.26-0.04-0.44-0.29-0.39-0.55c0.55-3.17,0.94-6.16,1.39-9.61
			c0.82-6.2,1.74-13.24,3.91-24.06c0.05-0.26,0.3-0.43,0.56-0.37c0.26,0.05,0.43,0.3,0.38,0.56c-2.17,10.79-3.09,17.81-3.9,23.99
			c-0.44,3.32-0.85,6.46-1.4,9.65C85.02,152.91,84.82,153.08,84.59,153.08z"/>
	</g>
	<g>
		<path class="st2" d="M128.51,87.03c-5.41,0-10.59-1.22-14.54-3.66c-0.23-0.14-0.29-0.43-0.16-0.66c0.14-0.23,0.43-0.3,0.66-0.16
			c7.56,4.67,19.87,4.7,29.25,0.07c0.24-0.12,0.52-0.02,0.64,0.22c0.12,0.24,0.02,0.52-0.22,0.64
			C139.37,85.85,133.83,87.03,128.51,87.03z"/>
	</g>
	<g>
		<path class="st2" d="M128.72,82.64c-3.18,0-6.38-0.62-8.64-2.01c-0.23-0.14-0.29-0.43-0.16-0.66c0.14-0.22,0.43-0.3,0.66-0.16
			c4.39,2.71,12.99,2.24,16.68-0.03c0.23-0.14,0.52-0.07,0.66,0.16s0.07,0.52-0.16,0.66C135.67,81.89,132.21,82.64,128.72,82.64z"/>
	</g>
	<g>
		
			<ellipse transform="matrix(0.9732 -0.2298 0.2298 0.9732 -14.2814 15.3695)" class="st7" cx="58.86" cy="69.01" rx="1.58" ry="1.58"/>
	</g>
	<g>
		<circle class="st2" cx="65.07" cy="69.01" r="1.58"/>
	</g>
	<g>
		<circle class="st8" cx="71.28" cy="69.01" r="1.58"/>
	</g>
	<g>
		<path class="st3" d="M208.53,63.51c0.96-6.19,8.12-11.84,6.81-21.45c-1.31-9.61-9.08-12.61-14.06-12.61
			c-4.98,0-12.75,3-14.06,12.61c-1.31,9.61,5.85,15.26,6.81,21.45H208.53z"/>
	</g>
	<g>
		<path class="st2" d="M208.53,63.99c-0.02,0-0.05,0-0.07-0.01c-0.26-0.04-0.44-0.29-0.4-0.55c0.38-2.43,1.66-4.75,3.02-7.21
			c2.15-3.89,4.58-8.29,3.79-14.11c-1.31-9.63-9.16-12.2-13.59-12.2s-12.28,2.57-13.59,12.2c-0.79,5.81,1.64,10.22,3.79,14.11
			c1.36,2.46,2.64,4.78,3.02,7.21c0.04,0.26-0.14,0.51-0.4,0.55c-0.26,0.04-0.51-0.14-0.55-0.4c-0.35-2.26-1.59-4.51-2.91-6.89
			c-2.22-4.02-4.74-8.57-3.9-14.7c1.4-10.28,9.8-13.03,14.54-13.03c4.74,0,13.14,2.74,14.54,13.03c0.84,6.13-1.68,10.68-3.9,14.7
			c-1.32,2.38-2.56,4.63-2.91,6.89C208.96,63.82,208.76,63.99,208.53,63.99z"/>
	</g>
	<g>
		<path class="st2" d="M205.02,63.92c-0.04,0-0.08,0-0.11-0.01c-0.26-0.06-0.41-0.32-0.35-0.58c1.2-4.88,3.68-15.04,1.97-16.49
			c-0.25-0.21-0.62-0.08-1.1,0.39c-0.2,0.19-0.38,0.42-0.56,0.66c0.36,0.75,0.52,1.58,0.49,2.28c-0.06,1.27-0.74,2.06-1.73,2.03
			c-0.45-0.02-0.8-0.3-0.92-0.76c-0.22-0.82,0.28-2.33,1.04-3.58c-0.43-0.64-1.06-1.12-1.89-1.17c-0.68-0.04-1.2,0.5-1.55,1.04
			c0.72,1.35,1.25,2.98,0.78,4.07c-0.18,0.43-0.6,0.96-1.56,1.05c-0.34,0.03-0.65-0.13-0.85-0.44c-0.55-0.86-0.28-3.08,0.53-4.68
			c-0.2-0.34-0.43-0.67-0.66-0.96c-0.31-0.39-0.78-0.55-1.3-0.44c-0.67,0.15-1.21,0.7-1.37,1.41c-0.53,2.23,0.8,7.88,1.96,12.86
			c0.22,0.93,0.43,1.85,0.63,2.73c0.06,0.26-0.1,0.51-0.36,0.57c-0.26,0.06-0.51-0.1-0.57-0.36c-0.2-0.87-0.41-1.79-0.63-2.72
			c-1.25-5.33-2.54-10.85-1.96-13.3c0.25-1.07,1.08-1.9,2.1-2.13c0.88-0.19,1.72,0.1,2.25,0.78c0.15,0.19,0.31,0.41,0.47,0.66
			c0.61-0.76,1.34-1.14,2.13-1.1c1.04,0.06,1.85,0.58,2.42,1.29c0.32-0.39,0.65-0.72,0.99-0.93c0.9-0.57,1.53-0.24,1.83,0.01
			c1.81,1.53,0.76,7.55-1.66,17.45C205.43,63.77,205.24,63.92,205.02,63.92z M199.77,48.83c-0.54,1.45-0.48,2.8-0.3,3.07
			c0.5-0.06,0.66-0.29,0.73-0.47C200.45,50.86,200.22,49.85,199.77,48.83z M203.65,51.24c0,0,0.01,0,0.02,0
			c0.61,0.02,0.72-0.77,0.73-1.11c0.02-0.37-0.04-0.79-0.16-1.2C203.73,49.97,203.48,51,203.65,51.24z M203.64,51.24L203.64,51.24
			L203.64,51.24z"/>
	</g>
	<g>
		<path class="st2" d="M170.06,117.53c-0.17,0-0.33-0.09-0.42-0.24l-1.67-2.91c-0.13-0.23-0.05-0.52,0.18-0.65
			c0.23-0.13,0.52-0.05,0.65,0.18l1.67,2.91c0.13,0.23,0.05,0.52-0.18,0.65C170.22,117.51,170.14,117.53,170.06,117.53z"/>
	</g>
	<g>
		<path class="st2" d="M129.27,31.1h-0.57c-14.05,0.58-16.48,10.31-15.51,18.39l1.27,0.2c0.09-13.01,7.12-16.14,14.53-16.07
			c7.54,0.07,14.44,3.06,14.53,16.07l1.27-0.2C145.75,41.41,143.31,31.68,129.27,31.1z"/>
	</g>
	<g>
		<path class="st2" d="M120.21,30.84c-0.1,0-0.21-0.03-0.29-0.1c-1.24-0.97-1.85-2.47-1.61-4.02c0.31-2.01,1.98-3.76,4.45-4.68
			c4.12-1.53,9.52-1.32,12.57,0.47c1.44,0.85,2.39,2.32,2.47,3.85c0.08,1.4-0.6,2.71-1.9,3.68c-0.21,0.16-0.51,0.12-0.67-0.1
			c-0.16-0.21-0.12-0.51,0.1-0.67c1.05-0.79,1.57-1.77,1.51-2.86c-0.07-1.19-0.85-2.4-2-3.07c-2.82-1.66-7.88-1.83-11.75-0.4
			c-2.14,0.79-3.58,2.26-3.84,3.93c-0.19,1.21,0.27,2.35,1.25,3.11c0.21,0.16,0.25,0.46,0.08,0.67
			C120.49,30.78,120.35,30.84,120.21,30.84z"/>
	</g>
	<g>
		<path class="st2" d="M207.99,67.56c-0.26,0-0.48-0.21-0.48-0.48c0-0.26,0.21-0.48,0.48-0.48c0.73,0,1.32-0.59,1.32-1.32
			s-0.59-1.32-1.32-1.32h-13.43c-0.73,0-1.32,0.59-1.32,1.32s0.59,1.32,1.32,1.32h2.2c0.26,0,0.48,0.21,0.48,0.48
			c0,0.26-0.21,0.48-0.48,0.48h-2.2c-1.26,0-2.28-1.02-2.28-2.28s1.02-2.28,2.28-2.28h13.43c1.26,0,2.28,1.02,2.28,2.28
			S209.25,67.56,207.99,67.56z"/>
	</g>
	<g>
		<path class="st2" d="M194.56,71.16c-1.26,0-2.28-1.02-2.28-2.28c0-1.26,1.02-2.28,2.28-2.28h2.2c0.26,0,0.48,0.21,0.48,0.48
			c0,0.26-0.21,0.48-0.48,0.48h-2.2c-0.73,0-1.32,0.59-1.32,1.32c0,0.73,0.59,1.32,1.32,1.32c0.26,0,0.48,0.21,0.48,0.48
			C195.04,70.95,194.82,71.16,194.56,71.16z"/>
	</g>
	<g>
		<path class="st2" d="M207.99,71.16h-4.36c-0.26,0-0.48-0.21-0.48-0.48c0-0.26,0.21-0.48,0.48-0.48h4.36
			c0.73,0,1.32-0.59,1.32-1.32c0-0.73-0.59-1.32-1.32-1.32c-0.26,0-0.48-0.21-0.48-0.48c0-0.26,0.21-0.48,0.48-0.48
			c1.26,0,2.28,1.02,2.28,2.28C210.27,70.14,209.25,71.16,207.99,71.16z"/>
	</g>
	<g>
		<path class="st2" d="M207.99,74.77h-13.43c-1.26,0-2.28-1.02-2.28-2.28c0-1.26,1.02-2.28,2.28-2.28c0.26,0,0.48,0.21,0.48,0.48
			c0,0.26-0.21,0.48-0.48,0.48c-0.73,0-1.32,0.59-1.32,1.32s0.59,1.32,1.32,1.32h13.43c0.73,0,1.32-0.59,1.32-1.32
			s-0.59-1.32-1.32-1.32h-4.56c-0.26,0-0.48-0.21-0.48-0.48c0-0.26,0.21-0.48,0.48-0.48h4.56c1.26,0,2.28,1.02,2.28,2.28
			C210.27,73.74,209.25,74.77,207.99,74.77z"/>
	</g>
	<g>
		<path class="st2" d="M201.27,78.17c-2.35,0-4.48-1.48-5.28-3.7c-0.09-0.25,0.04-0.52,0.29-0.61c0.25-0.09,0.52,0.04,0.61,0.29
			c0.67,1.83,2.43,3.07,4.38,3.07c1.96,0,3.72-1.24,4.39-3.08c0.09-0.25,0.37-0.38,0.61-0.29c0.25,0.09,0.38,0.36,0.29,0.61
			C205.76,76.68,203.63,78.17,201.27,78.17z"/>
	</g>
	<g>
		<path class="st2" d="M142.66,51.51c-0.23,0-0.44-0.17-0.47-0.41c-0.13-0.9-0.78-2.52-1.36-3.95c-0.28-0.7-0.55-1.38-0.76-1.95
			c-2.27-0.13-11.49-1.69-16.38-5.84c-1.37,2.55-3.22,4.56-4.87,6.35c-1.57,1.71-2.93,3.19-3.23,4.52
			c-0.06,0.26-0.32,0.42-0.57,0.36c-0.26-0.06-0.42-0.32-0.36-0.57c0.36-1.58,1.8-3.14,3.46-4.95c1.72-1.87,3.67-4,5-6.69l0.29-0.58
			l0.47,0.44c4.8,4.53,15.35,6.07,16.51,6.01l0.36-0.02l0.12,0.35c0.2,0.61,0.52,1.39,0.85,2.22c0.62,1.55,1.27,3.16,1.42,4.17
			c0.04,0.26-0.14,0.5-0.4,0.54C142.71,51.51,142.68,51.51,142.66,51.51z"/>
	</g>
	<g>
		<path class="st5" d="M62.79,159.74H37.91c-0.54,0-0.95,0.48-0.87,1.02l2.33,15.39c0.48,3.19,3.23,5.56,6.46,5.56h9.03
			c3.23,0,5.98-2.36,6.46-5.56l2.33-15.39C63.74,160.22,63.33,159.74,62.79,159.74z"/>
	</g>
	<g>
		<path class="st3" d="M42.09,176.14l-2.33-15.39c-0.08-0.53,0.33-1.02,0.87-1.02h-2.88c-0.54,0-0.95,0.48-0.87,1.02l2.33,15.39
			c0.48,3.19,3.23,5.56,6.46,5.56h2.88C45.33,181.7,42.58,179.34,42.09,176.14z"/>
	</g>
	<g>
		<path class="st2" d="M54.86,182.18h-9.03c-3.49,0-6.41-2.51-6.94-5.96l-2.33-15.39c-0.06-0.39,0.05-0.79,0.31-1.09
			c0.26-0.3,0.64-0.47,1.03-0.47h24.88c0.4,0,0.77,0.17,1.03,0.47s0.37,0.7,0.31,1.09l-2.33,15.39
			C61.27,179.67,58.36,182.18,54.86,182.18z M37.91,160.22c-0.16,0-0.26,0.09-0.31,0.14c-0.05,0.05-0.12,0.16-0.09,0.32l2.33,15.39
			c0.45,2.98,2.97,5.15,5.99,5.15h9.03c3.02,0,5.54-2.17,5.99-5.15l2.33-15.39c0.02-0.16-0.05-0.27-0.09-0.32
			c-0.05-0.05-0.15-0.14-0.31-0.14H37.91z"/>
	</g>
	<g>
		<path class="st2" d="M58.78,160.15c-0.17,0-0.33-0.09-0.42-0.24c-0.13-0.23-0.05-0.52,0.18-0.65
			c11.79-6.72,18.38-22.04,15.81-36.58c-13.27,3.76-22.81,13.13-24.38,23.98c-0.04,0.26-0.28,0.44-0.54,0.41
			c-0.26-0.04-0.44-0.28-0.41-0.54c0.79-5.45,3.51-10.64,7.88-15.02c4.55-4.57,10.67-7.99,17.7-9.89l0.5-0.13l0.1,0.51
			c1.35,7.05,0.59,14.7-2.15,21.52c-2.92,7.28-7.78,13.01-14.03,16.58C58.94,160.13,58.86,160.15,58.78,160.15z"/>
	</g>
	<g>
		<path class="st2" d="M41.16,160.01c-0.1,0-0.2-0.03-0.28-0.09c-9.95-7.27-16.02-16.71-16.22-25.24l-0.01-0.4l0.39-0.08
			c8.14-1.72,15.67,0.26,20.67,5.45c4.85,5.03,6.66,12.4,4.84,19.71c-0.06,0.26-0.33,0.41-0.58,0.35c-0.26-0.06-0.41-0.32-0.35-0.58
			c1.75-6.98,0.03-14.02-4.6-18.81c-4.69-4.86-11.74-6.77-19.39-5.26c0.38,8.13,6.26,17.11,15.82,24.09
			c0.21,0.16,0.26,0.46,0.1,0.67C41.46,159.94,41.31,160.01,41.16,160.01z"/>
	</g>
	<g>
		<path class="st2" d="M46.87,160.01c-0.25,0-0.46-0.19-0.48-0.44c-0.62-8.27-5.34-15.97-12.03-19.6c-0.23-0.13-0.32-0.42-0.19-0.65
			c0.13-0.23,0.42-0.32,0.65-0.19c6.96,3.79,11.88,11.79,12.52,20.37c0.02,0.26-0.18,0.49-0.44,0.51
			C46.9,160.01,46.89,160.01,46.87,160.01z"/>
	</g>
	<g>
		<path class="st2" d="M54.87,160.22c-0.25,0-0.46-0.19-0.48-0.44c-0.57-7.89,3.99-19.85,10.18-26.65c0.18-0.2,0.48-0.21,0.68-0.03
			c0.2,0.18,0.21,0.48,0.03,0.68c-6.04,6.64-10.5,18.28-9.94,25.94c0.02,0.26-0.18,0.49-0.44,0.51
			C54.89,160.22,54.88,160.22,54.87,160.22z"/>
	</g>
	<g>
		<path class="st2" d="M38.08,135.67c-0.22,0-0.41-0.15-0.46-0.36c-1.88-7.68-0.83-14.99,3.15-21.74l0.2-0.34l0.37,0.13
			c7.17,2.55,14.6,6.88,15.41,19.55c0.02,0.26-0.18,0.49-0.45,0.51c-0.26,0.02-0.49-0.18-0.51-0.45c-0.76-11.9-7.65-16.1-14.4-18.57
			c-3.73,6.51-4.66,13.28-2.84,20.68c0.06,0.26-0.09,0.52-0.35,0.58C38.15,135.67,38.11,135.67,38.08,135.67z"/>
	</g>
	<g>
		<path class="st2" d="M50.76,142.07c0,0-0.01,0-0.01,0c-0.26-0.01-0.47-0.22-0.47-0.49c0.18-8.29-2.07-12.9-3.41-15.65l-0.2-0.42
			c-0.12-0.24-0.02-0.52,0.22-0.64c0.24-0.12,0.52-0.02,0.64,0.22l0.2,0.41c1.38,2.83,3.7,7.57,3.51,16.09
			C51.24,141.86,51.02,142.07,50.76,142.07z"/>
	</g>
	<g>
		<path class="st2" d="M159.57,153.18H78.35c-0.26,0-0.48-0.21-0.48-0.48c0-0.26,0.21-0.48,0.48-0.48h81.22
			c0.26,0,0.48,0.21,0.48,0.48C160.05,152.97,159.83,153.18,159.57,153.18z"/>
	</g>
	<g>
		<path class="st2" d="M201.27,24.38c-0.26,0-0.48-0.21-0.48-0.48v-9.64c0-0.26,0.21-0.48,0.48-0.48c0.26,0,0.48,0.21,0.48,0.48
			v9.64C201.75,24.16,201.54,24.38,201.27,24.38z"/>
	</g>
	<g>
		<path class="st2" d="M186.91,30.36c-0.1,0-0.21-0.03-0.3-0.1l-5.73-4.56c-0.21-0.16-0.24-0.47-0.08-0.67
			c0.16-0.21,0.47-0.24,0.67-0.08l5.73,4.56c0.21,0.16,0.24,0.47,0.08,0.67C187.19,30.3,187.05,30.36,186.91,30.36z"/>
	</g>
	<g>
		<path class="st2" d="M215.11,30.36c-0.14,0-0.28-0.06-0.38-0.18c-0.16-0.21-0.13-0.51,0.08-0.67l5.73-4.56
			c0.21-0.16,0.51-0.13,0.67,0.08c0.16,0.21,0.13,0.51-0.08,0.67l-5.73,4.56C215.32,30.33,215.22,30.36,215.11,30.36z"/>
	</g>
	<g>
		<path class="st2" d="M242.77,182.18h-18.24c-0.26,0-0.48-0.21-0.48-0.48c0-0.26,0.21-0.48,0.48-0.48h18.24
			c0.26,0,0.48,0.21,0.48,0.48C243.25,181.96,243.04,182.18,242.77,182.18z"/>
	</g>
	<g>
		<path class="st9" d="M226.91,118.85c-0.15,0-0.31-0.04-0.45-0.12c-0.28-0.16-0.45-0.45-0.45-0.78v-7.61
			c0-0.32,0.17-0.62,0.45-0.78c0.28-0.16,0.62-0.16,0.9,0l6.59,3.81c0.28,0.16,0.45,0.45,0.45,0.78c0,0.32-0.17,0.62-0.45,0.78
			l-6.59,3.81C227.21,118.81,227.06,118.85,226.91,118.85z M226.97,110.44v7.41l6.41-3.7L226.97,110.44z"/>
	</g>
	<g>
		<path class="st9" d="M37.84,56.9c-0.14,0-0.28-0.04-0.4-0.11c-0.25-0.15-0.4-0.41-0.4-0.7v-5.97c0-0.29,0.15-0.55,0.4-0.7
			c0.25-0.15,0.55-0.15,0.81,0l5.17,2.99c0.25,0.15,0.4,0.41,0.4,0.7c0,0.29-0.15,0.55-0.4,0.7l-5.17,2.99
			C38.12,56.87,37.98,56.9,37.84,56.9z M37.99,50.38v5.45l4.72-2.73L37.99,50.38z"/>
	</g>
	<g>
		<g>
			<path class="st9" d="M31.45,110.47c0.44-1.29,1.22-1.74,2.36-1.36c0.55,0.19,0.92,0.49,1.11,0.93s0.17,0.96-0.04,1.59
				c-0.2,0.61-0.52,1.03-0.93,1.26c-0.42,0.23-0.9,0.26-1.44,0.08c-0.49-0.17-0.85-0.45-1.07-0.86
				C31.22,111.7,31.22,111.16,31.45,110.47z M35.35,107.08l-1.49-0.5l4.36-15.32l2.95,0.99L35.35,107.08z"/>
		</g>
	</g>
</g>
</svg>
