<?xml version="1.0" encoding="utf-8"?>
<!-- Generator: Adobe Illustrator 25.2.0, SVG Export Plug-In . SVG Version: 6.00 Build 0)  -->
<svg version="1.1" id="Layer_1" xmlns="http://www.w3.org/2000/svg" xmlns:xlink="http://www.w3.org/1999/xlink" x="0px" y="0px"
	 viewBox="0 0 267.14 204.94" style="enable-background:new 0 0 267.14 204.94;" xml:space="preserve">
<style type="text/css">
	.st0{opacity:0.2;}
	.st1{fill:#FED82E;}
	.st2{fill:#2E2E2E;}
	.st3{fill:#FFFFFF;}
	.st4{fill:#DDDDDC;}
	.st5{fill:#30302F;}
</style>
<g>
	<g class="st0">
		<path class="st1" d="M242.01,86.83c-1.12-34.02-30.53-60.86-65.05-60.86c-9.58,0-18.67,2.07-26.86,5.78
			c-17.18,7.78-36.33,10.23-54.95,7.24c-4.24-0.68-8.59-1.04-13.02-1.06C36.63,37.73,2.4,69.01,2.4,120.47
			c0,54.96,35.86,75.78,78.72,81.85C196.57,218.66,244.28,155.84,242.01,86.83z"/>
	</g>
	<g id="scene_2_00000165216949896894034020000003302215491115452302_">
		<g>
			<g>
				<path class="st2" d="M48.67,50.33c-0.01,0-0.01,0-0.02,0c-1.58-0.1-3.16-0.33-4.7-0.68c-0.15-0.03-0.25-0.19-0.21-0.34
					c0.03-0.15,0.19-0.25,0.34-0.21c1.51,0.34,3.06,0.56,4.61,0.66c0.16,0.01,0.27,0.14,0.26,0.3
					C48.94,50.21,48.82,50.33,48.67,50.33z M53.37,50.26c-0.14,0-0.27-0.11-0.28-0.26c-0.01-0.16,0.1-0.29,0.26-0.31
					c1.53-0.14,3.07-0.4,4.6-0.76c0.15-0.03,0.3,0.06,0.34,0.21c0.04,0.15-0.06,0.3-0.21,0.34c-1.55,0.38-3.12,0.64-4.68,0.78
					C53.39,50.26,53.38,50.26,53.37,50.26z M62.5,48.07c-0.11,0-0.22-0.07-0.26-0.18c-0.06-0.15,0.01-0.31,0.16-0.37
					c1.43-0.56,2.85-1.23,4.22-1.99c0.14-0.08,0.31-0.03,0.38,0.11c0.08,0.14,0.03,0.31-0.11,0.38c-1.39,0.77-2.83,1.45-4.29,2.02
					C62.57,48.07,62.53,48.07,62.5,48.07z M70.72,43.55c-0.09,0-0.17-0.04-0.23-0.12c-0.09-0.13-0.06-0.3,0.06-0.39
					c1.26-0.91,2.47-1.91,3.61-2.97c0.11-0.1,0.29-0.1,0.4,0.01c0.11,0.11,0.1,0.29-0.01,0.4c-1.15,1.07-2.38,2.09-3.66,3.02
					C70.84,43.53,70.78,43.55,70.72,43.55z M77.59,37.14c-0.06,0-0.13-0.02-0.18-0.07c-0.12-0.1-0.14-0.28-0.04-0.4
					c1.01-1.21,1.93-2.48,2.75-3.77c0.08-0.13,0.26-0.17,0.39-0.09c0.13,0.08,0.17,0.26,0.09,0.39c-0.83,1.32-1.77,2.61-2.79,3.83
					C77.75,37.1,77.67,37.14,77.59,37.14z M82.58,29.19c-0.04,0-0.08-0.01-0.11-0.02c-0.14-0.06-0.21-0.23-0.14-0.37
					c0.64-1.45,1.16-2.93,1.53-4.39c0.04-0.15,0.19-0.24,0.34-0.2c0.15,0.04,0.24,0.19,0.2,0.34c-0.38,1.5-0.91,3-1.56,4.48
					C82.79,29.13,82.69,29.19,82.58,29.19z M74.67,24.29c-0.76,0-1.53-0.05-2.29-0.15c-0.15-0.02-0.26-0.16-0.24-0.32
					c0.02-0.16,0.16-0.25,0.32-0.24c1.52,0.19,3.1,0.19,4.62-0.02c0.15-0.02,0.3,0.09,0.32,0.24c0.02,0.16-0.09,0.3-0.24,0.32
					C76.33,24.23,75.5,24.29,74.67,24.29z M67.88,22.96c-0.03,0-0.07-0.01-0.11-0.02c-1.49-0.6-2.89-1.38-4.16-2.32
					c-0.13-0.09-0.15-0.27-0.06-0.4c0.09-0.12,0.27-0.15,0.39-0.06c1.23,0.91,2.59,1.67,4.04,2.25c0.14,0.06,0.22,0.22,0.16,0.37
					C68.09,22.89,67.99,22.96,67.88,22.96z M81.63,22.87c-0.11,0-0.22-0.07-0.26-0.17c-0.06-0.14,0.01-0.31,0.15-0.37
					c1.39-0.58,2.74-1.35,4.03-2.28c0.13-0.09,0.3-0.06,0.39,0.06c0.09,0.13,0.06,0.3-0.06,0.39c-1.32,0.96-2.72,1.74-4.14,2.34
					C81.7,22.86,81.67,22.87,81.63,22.87z M84.87,20.11c-0.01,0-0.01,0-0.02,0c-0.16-0.01-0.27-0.14-0.26-0.3
					c0.03-0.45,0.04-0.89,0.04-1.34c0-1.11-0.09-2.22-0.25-3.29c-0.02-0.15,0.08-0.3,0.24-0.32c0.15-0.03,0.3,0.08,0.32,0.23
					c0.17,1.1,0.26,2.24,0.26,3.38c0,0.46-0.01,0.91-0.04,1.37C85.14,19.99,85.01,20.11,84.87,20.11z M89.24,17.45
					c-0.07,0-0.14-0.03-0.19-0.08c-0.11-0.11-0.12-0.29-0.01-0.4c1.02-1.08,2.01-2.3,2.93-3.62c0.09-0.13,0.26-0.16,0.39-0.07
					c0.13,0.09,0.16,0.27,0.07,0.39c-0.94,1.34-1.95,2.58-2.99,3.68C89.39,17.42,89.31,17.45,89.24,17.45z M60.43,17.39
					c-0.09,0-0.17-0.04-0.23-0.11c-1.04-1.39-1.75-2.84-2.11-4.3c-0.04-0.15,0.06-0.3,0.21-0.34c0.15-0.03,0.3,0.06,0.34,0.21
					c0.34,1.39,1.01,2.77,2.01,4.09c0.09,0.13,0.07,0.3-0.06,0.4C60.55,17.37,60.49,17.39,60.43,17.39z M83.43,10.88
					c-0.11,0-0.22-0.07-0.26-0.18c-0.58-1.53-1.28-2.92-2.08-4.14c-0.09-0.13-0.05-0.31,0.08-0.39c0.13-0.09,0.31-0.05,0.39,0.08
					c0.83,1.25,1.55,2.68,2.14,4.25c0.06,0.15-0.02,0.31-0.17,0.36C83.49,10.88,83.46,10.88,83.43,10.88z M94.66,9.79
					c-0.05,0-0.09-0.01-0.13-0.03c-0.14-0.07-0.19-0.25-0.11-0.38c0.49-0.9,0.96-1.85,1.41-2.83c0.07-0.14,0.24-0.2,0.37-0.14
					c0.14,0.07,0.2,0.23,0.14,0.38c-0.45,0.99-0.93,1.95-1.43,2.86C94.86,9.74,94.76,9.79,94.66,9.79z M58.62,8.57
					c-0.03,0-0.07-0.01-0.1-0.02c-0.15-0.06-0.22-0.22-0.16-0.36c0.56-1.49,1.42-2.85,2.55-4.05c0.11-0.11,0.29-0.12,0.4-0.01
					c0.11,0.11,0.12,0.28,0.01,0.4c-1.08,1.14-1.9,2.44-2.44,3.86C58.84,8.5,58.74,8.57,58.62,8.57z M78.18,3.21
					c-0.06,0-0.12-0.02-0.18-0.06c-1.23-0.98-2.59-1.7-4.04-2.14c-0.15-0.05-0.23-0.2-0.19-0.35c0.04-0.15,0.2-0.23,0.35-0.19
					c1.52,0.46,2.94,1.21,4.23,2.24c0.12,0.1,0.14,0.27,0.04,0.4C78.35,3.17,78.26,3.21,78.18,3.21z M64.89,1.84
					c-0.1,0-0.2-0.06-0.25-0.16c-0.07-0.14-0.01-0.31,0.13-0.38c1.46-0.72,3.01-1.16,4.6-1.31c0.16-0.02,0.29,0.1,0.31,0.25
					c0.01,0.16-0.1,0.29-0.25,0.31c-1.52,0.14-3,0.57-4.41,1.25C64.98,1.83,64.93,1.84,64.89,1.84z"/>
			</g>
		</g>
		<g>
			<g>
				<g>
					<path class="st3" d="M177.14,20.27h61.05c1.13,0,2.04,0.91,2.04,2.04v85.34c0,1.13-0.91,2.04-2.04,2.04h-19.4H94.6
						c6.29,0,5.37-0.91,5.37-2.04V22.31c0-1.13,0.91-2.04,2.04-2.04h40.61H177.14z"/>
				</g>
			</g>
			<g>
				<g>
					<path class="st2" d="M99.98,33.6c-0.26,0-0.47-0.21-0.47-0.47V22.36c0-1.39,1.13-2.51,2.51-2.51h40.61
						c0.26,0,0.47,0.21,0.47,0.47c0,0.26-0.21,0.47-0.47,0.47h-40.61c-0.87,0-1.57,0.71-1.57,1.57v10.77
						C100.45,33.39,100.24,33.6,99.98,33.6z"/>
				</g>
			</g>
			<g>
				<g>
					<path class="st2" d="M238.19,110.21h-22.11c-0.26,0-0.47-0.21-0.47-0.47c0-0.26,0.21-0.47,0.47-0.47h22.11
						c0.87,0,1.57-0.7,1.57-1.57V22.36c0-0.87-0.7-1.57-1.57-1.57h-61.05c-0.26,0-0.47-0.21-0.47-0.47c0-0.26,0.21-0.47,0.47-0.47
						h61.05c1.38,0,2.51,1.13,2.51,2.51v85.34C240.7,109.08,239.57,110.21,238.19,110.21z"/>
				</g>
			</g>
			<g>
				<g>
					<path class="st3" d="M182.16,36.66h27.84c1.13,0,2.04,0.91,2.04,2.04v85.34c0,1.13-0.91,2.04-2.04,2.04H73.84
						c-1.13,0-2.04-0.91-2.04-2.04V38.7c0-1.13,0.91-2.04,2.04-2.04h73.81H182.16z"/>
				</g>
			</g>
			<g>
				<g>
					<path class="st2" d="M210.01,126.6H73.84c-1.38,0-2.51-1.13-2.51-2.51V38.75c0-1.39,1.13-2.51,2.51-2.51h73.81
						c0.26,0,0.47,0.21,0.47,0.47c0,0.26-0.21,0.47-0.47,0.47H73.84c-0.87,0-1.57,0.71-1.57,1.57v85.34c0,0.87,0.7,1.57,1.57,1.57
						h136.17c0.87,0,1.57-0.7,1.57-1.57V38.75c0-0.87-0.7-1.57-1.57-1.57h-27.84c-0.26,0-0.47-0.21-0.47-0.47
						c0-0.26,0.21-0.47,0.47-0.47h27.84c1.38,0,2.51,1.13,2.51,2.51v85.34C212.52,125.47,211.39,126.6,210.01,126.6z"/>
				</g>
			</g>
			<g>
				<g>
					<path class="st2" d="M229.1,90.31c-0.26,0-0.47-0.21-0.47-0.47V31.48c0-0.26,0.21-0.47,0.47-0.47s0.47,0.21,0.47,0.47v58.36
						C229.57,90.1,229.36,90.31,229.1,90.31z"/>
				</g>
			</g>
		</g>
		<g id="laptop_2_00000035497562876015609860000013368321897763651507_">
			<g>
				<g>
					<path class="st4" d="M90.18,197.86H53.53c0,0-2.78-0.54-4.16,0.4c-1.37,0.94-1.53,1.76-1.1,2.7c0.43,0.94,0.86,1.49,2.12,1.45
						c1.26-0.04,67.42-0.35,67.42-0.35l31.92,0.22c0,0,1.28,0.06,1.58-1c0.29-1.06,9.6-39.72,9.6-39.72s1.13-3.55,0.69-4.11
						c-0.44-0.56-2.82-0.74-2.82-0.74l-56.42-0.05c0,0-1.89,0.18-2.21,1.07c-0.32,0.89-0.76,2.08-0.76,2.08L90.18,197.86z"/>
				</g>
			</g>
			<g>
				<g>
					<path class="st3" d="M50.33,200.45c1.37-0.94,4.28-1.21,4.28-1.21h34.93c1.29,0,2.41-0.88,2.72-2.14l8.69-35.93
						c0,0-0.17-0.37,0.15-1.26c0.32-0.89,2.21-1.64,2.21-1.64l58.31,0.06c0,0,0-0.94-0.18-1.16c-0.44-0.56-3.13-0.46-3.13-0.46
						l-56.42-0.05c0,0-1.89,0.18-2.21,1.07c-0.32,0.89-0.76,2.08-0.76,2.08l-9.21,38.06H53.07c0,0-2.78-0.54-4.16,0.4
						c-1.37,0.94-1.53,1.76-1.1,2.7c0.3,0.66,0.61,1.13,1.21,1.33C49.03,201.68,49.39,201.09,50.33,200.45z"/>
				</g>
			</g>
			<g>
				<g>
					<path class="st2" d="M149.33,202.78H91.44c-0.26,0-0.47-0.21-0.47-0.47c0-0.26,0.21-0.47,0.47-0.47h57.89
						c0.56,0,1.23-0.18,1.5-1.57l10.36-41.77c0.08-0.36,0.03-0.66-0.15-0.88c-0.24-0.3-0.71-0.47-1.37-0.49h-57.88
						c-0.54,0-1.14,0.19-1.51,1.6l-9.73,39.22c-0.06,0.25-0.32,0.4-0.57,0.34c-0.25-0.06-0.41-0.32-0.34-0.57l9.73-39.23
						c0.15-0.58,0.6-2.31,2.42-2.31h57.89c1.21,0.03,1.81,0.48,2.1,0.85c0.35,0.45,0.46,1.02,0.33,1.67l-10.36,41.76
						C151.38,202.37,150.23,202.78,149.33,202.78z"/>
				</g>
			</g>
			<g>
				<g>
					<path class="st2" d="M87.06,202.78H50.39c-1.46,0-2.65-1.19-2.65-2.65c0-1.53,1.25-2.65,2.96-2.66h101.03
						c0.26,0,0.47,0.21,0.47,0.47c0,0.26-0.21,0.47-0.47,0.47H50.71c-1.19,0.01-2.02,0.71-2.02,1.71c0,0.94,0.77,1.71,1.71,1.71
						h36.66c0.26,0,0.47,0.21,0.47,0.47C87.53,202.56,87.32,202.78,87.06,202.78z"/>
				</g>
			</g>
			<g>
				<g>
					<path class="st2" d="M129.73,202.78h-23.48c-1.46,0-2.65-1.19-2.65-2.65c0-1.53,1.25-2.65,2.96-2.66c0,0,0,0,0,0
						c0.26,0,0.47,0.21,0.47,0.47c0,0.26-0.21,0.47-0.47,0.47c-1.19,0.01-2.03,0.71-2.03,1.71c0,0.94,0.77,1.71,1.71,1.71h23.48
						c0.26,0,0.47,0.21,0.47,0.47C130.2,202.56,129.99,202.78,129.73,202.78z"/>
				</g>
			</g>
			<g>
				<g>
					<polygon class="st3" points="94.95,193.74 103.12,160.38 157.3,160.19 149,193.74 					"/>
				</g>
			</g>
			<g>
				<g>
					<path class="st2" d="M149.37,194.21H94.35l8.4-34.3l0.37,0l54.78-0.19L149.37,194.21z M95.55,193.27h53.08l8.07-32.6
						l-53.21,0.18L95.55,193.27z"/>
				</g>
			</g>
		</g>
		<g id="person_3_00000088851772709290798700000003890858455937779127_">
			<g>
				<g>
					<path class="st4" d="M158.04,61.2c0,0-1.14,0.02-2.47,0.68c-1.33,0.66-7.15,2.89-9.56,6.56c-2.41,3.67-3.44,5.71-4.09,8.59
						c-0.65,2.88-2.23,14.64-2.23,14.64l-3.12,23.95l-1.18,10.15l2.29,0.28l59.77-0.09l3.65-0.21c0,0,0.27-18.66-0.97-29.12
						c-1.25-10.46-2.5-18.24-4.2-22.06c-1.71-3.82-7.94-9.65-9.06-10.18c-1.12-0.53-6.81-3.41-6.81-3.41l-20.42,34.12L158.04,61.2z"
						/>
				</g>
			</g>
			<g>
				<g>
					<g>
						<path class="st3" d="M138.35,116.95L141.47,93c0,0,1.59-11.76,2.23-14.64c0.65-2.88,1.08-5.39,3.89-8.77
							c2.97-3.58,8.43-5.73,9.76-6.38c0.17-0.08,0.33-0.16,0.49-0.22l-0.08-1.79c0,0-1.14,0.02-2.47,0.68
							c-1.33,0.66-7.15,2.89-9.56,6.56c-2.41,3.67-3.44,5.71-4.09,8.59c-0.65,2.88-2.23,14.64-2.23,14.64l-3.12,23.95l-1.18,10.15
							l2.18,0.26L138.35,116.95z"/>
					</g>
				</g>
			</g>
			<g>
				<g>
					<path class="st3" d="M184.03,87.85c0,0,0.99,3.39,1.13,4.46c1.44,11.38,2.26,29.86,2.3,33.81c-0.55,0.1-1.84-0.53-1.84-0.53
						L184.03,87.85z"/>
				</g>
			</g>
			<g>
				<g>
					<path class="st3" d="M149.02,77.01c0.03-0.16,0.77,2.78,0.67,8.26c-0.2,10.43-0.7,20.49-0.82,23.97
						c-0.24,6.62-0.45,16.88-0.45,16.88l-2.14-0.16c0,0,0.71-24.98,0.94-26.45C147.46,98.03,149.02,77.01,149.02,77.01z"/>
				</g>
			</g>
			<g>
				<g>
					<path class="st2" d="M163.74,48.67c1.11-0.29,1.69-0.87,1.9-1.69c0.16-0.62,0.12-0.95-0.18-1.08
						c-0.38-0.17-1.22,0.19-2.52,0.57c-0.95,0.28-2.38,0.35-2.39,1.04C160.56,48.1,161.97,49.13,163.74,48.67z"/>
				</g>
			</g>
			<g>
				<g>
					<path class="st3" d="M165.47,47.33c-0.8-0.53-3.24-0.46-3.27,1.29C163.4,48.66,165.27,47.8,165.47,47.33z"/>
				</g>
			</g>
			<g>
				<g>
					<path class="st2" d="M162.89,53.61c-2.81,0-4.9-0.88-6.29-2.62c-1.23-1.54-1.9-3.74-1.98-6.54l-0.29-10.26
						c-0.03-1.24,0.17-2.46,0.61-3.61c0.09-0.24,0.36-0.37,0.61-0.27c0.24,0.09,0.36,0.36,0.27,0.61c-0.39,1.04-0.58,2.13-0.55,3.25
						l0.29,10.26c0.07,2.59,0.67,4.6,1.77,5.98c1.26,1.58,3.22,2.35,5.84,2.26c0.67-0.02,1.65-0.05,3.38-0.36
						c0.25-0.04,0.5,0.12,0.55,0.38c0.05,0.26-0.12,0.5-0.38,0.55c-1.8,0.33-2.82,0.36-3.44,0.38
						C163.16,53.6,163.02,53.61,162.89,53.61z"/>
				</g>
			</g>
			<g>
				<g>
					<path class="st2" d="M174.2,44.66c-0.48,0-0.94-0.1-1.38-0.29c-0.24-0.1-0.35-0.38-0.24-0.62c0.1-0.24,0.38-0.34,0.62-0.24
						c0.33,0.15,0.68,0.22,1.06,0.21c1.36-0.04,2.43-1.17,2.39-2.53c-0.02-0.66-0.29-1.27-0.77-1.72c-0.48-0.45-1.11-0.69-1.76-0.67
						c-0.34,0.01-0.67,0.09-0.97,0.23c-0.24,0.11-0.52,0.01-0.63-0.23c-0.11-0.24-0.01-0.52,0.23-0.63c0.42-0.2,0.88-0.3,1.35-0.32
						c0.9-0.02,1.77,0.3,2.43,0.93c0.66,0.63,1.04,1.47,1.06,2.38c0.05,1.88-1.43,3.44-3.31,3.5
						C174.27,44.66,174.24,44.66,174.2,44.66z"/>
				</g>
			</g>
			<g>
				<g>
					<path class="st2" d="M175.66,41.59c-0.26,0-0.47-0.21-0.47-0.46c0-0.24-0.06-0.56-0.29-0.77c-0.27-0.23-0.68-0.24-0.98-0.2
						c-0.26,0.04-0.49-0.15-0.52-0.41c-0.03-0.26,0.15-0.49,0.41-0.52c0.88-0.11,1.42,0.17,1.71,0.42c0.39,0.34,0.61,0.85,0.62,1.47
						C176.14,41.37,175.93,41.58,175.66,41.59C175.67,41.59,175.66,41.59,175.66,41.59z"/>
				</g>
			</g>
			<g>
				<g>
					<path class="st2" d="M157.87,39.46c0.02,0.62-0.26,1.12-0.62,1.13c-0.36,0.01-0.67-0.48-0.69-1.1
						c-0.02-0.62,0.26-1.12,0.62-1.13C157.55,38.36,157.85,38.85,157.87,39.46z"/>
				</g>
			</g>
			<g>
				<g>
					<path class="st2" d="M154.85,36.96c-0.13,0-0.26-0.06-0.36-0.16c-0.17-0.2-0.15-0.49,0.05-0.66c1.19-1.02,2.67-1.43,4.18-1.14
						c0.26,0.05,0.42,0.3,0.37,0.55c-0.05,0.25-0.29,0.42-0.55,0.37c-1.22-0.23-2.42,0.1-3.39,0.93
						C155.07,36.92,154.96,36.96,154.85,36.96z"/>
				</g>
			</g>
			<g>
				<g>
					<path class="st2" d="M165.89,39.24c0.02,0.62,0.32,1.11,0.69,1.1c0.36-0.01,0.64-0.52,0.62-1.13c-0.02-0.62-0.32-1.11-0.69-1.1
						C166.15,38.11,165.87,38.62,165.89,39.24z"/>
				</g>
			</g>
			<g>
				<g>
					<path class="st2" d="M169.11,36.74c-0.11,0-0.22-0.04-0.31-0.11c-1.01-0.88-2.68-1.19-4.06-0.75
						c-0.25,0.08-0.51-0.06-0.59-0.31c-0.08-0.25,0.06-0.51,0.31-0.59c1.68-0.53,3.72-0.15,4.97,0.94c0.2,0.17,0.22,0.47,0.05,0.66
						C169.38,36.68,169.25,36.74,169.11,36.74z"/>
				</g>
			</g>
			<g>
				<g>
					<path class="st2" d="M162.85,49.15c-0.91,0-1.66-0.32-2.13-0.68c-0.42-0.32-0.64-0.7-0.64-1.06c0-0.89,1.05-1.12,1.98-1.31
						c0.26-0.06,0.52-0.11,0.75-0.18c0.3-0.09,0.58-0.18,0.83-0.26c0.97-0.31,1.55-0.49,2.01-0.29c0.78,0.34,0.54,1.28,0.45,1.63
						c-0.27,1.03-1.02,1.72-2.24,2.03l0,0C163.5,49.11,163.17,49.15,162.85,49.15z M165.22,46.2c-0.18,0-0.77,0.19-1.3,0.35
						c-0.26,0.08-0.54,0.17-0.85,0.26c-0.25,0.07-0.53,0.14-0.82,0.19c-0.4,0.08-1.14,0.24-1.24,0.41c0.01,0.02,0.1,0.2,0.42,0.4
						c0.22,0.14,1.04,0.58,2.18,0.29c0.88-0.23,1.38-0.66,1.56-1.35c0.11-0.43,0.07-0.55,0.07-0.56
						C165.24,46.2,165.23,46.2,165.22,46.2z"/>
				</g>
			</g>
			<g>
				<g>
					<path class="st2" d="M160.63,44.64c-0.53,0-0.95-0.13-1.25-0.39c-0.2-0.18-0.45-0.51-0.47-1.07c-0.03-0.74,0.55-1.25,1.01-1.66
						c0.11-0.1,0.22-0.2,0.32-0.3c0.48-0.48,0.75-1.08,0.62-2.6c-0.02-0.26,0.17-0.49,0.43-0.51c0.25-0.01,0.49,0.17,0.51,0.43
						c0.13,1.63-0.12,2.57-0.9,3.35c-0.11,0.11-0.23,0.22-0.36,0.33c-0.35,0.31-0.71,0.63-0.7,0.92c0.01,0.28,0.12,0.37,0.15,0.4
						c0.09,0.08,0.32,0.21,0.88,0.15c0.26-0.01,0.49,0.17,0.51,0.42c0.02,0.26-0.17,0.49-0.42,0.51
						C160.85,44.64,160.74,44.64,160.63,44.64z"/>
				</g>
			</g>
			<g>
				<g>
					<path class="st2" d="M161.64,59.58c-0.07,0-0.14-0.02-0.21-0.05c-0.23-0.11-0.33-0.4-0.22-0.63c0.46-0.94,0.61-2.83,0.45-5.63
						c-0.01-0.26,0.18-0.48,0.44-0.5c0.26-0.03,0.48,0.18,0.5,0.44c0.17,3.05,0,4.99-0.54,6.1
						C161.98,59.49,161.82,59.58,161.64,59.58z"/>
				</g>
			</g>
			<g>
				<g>
					<path class="st2" d="M175.38,58.12c-0.19,0-0.36-0.11-0.44-0.29c-1.01-2.47-1.29-9.66-1.45-13.53
						c-0.01-0.26,0.19-0.52,0.45-0.53c0.26-0.04,0.48,0.15,0.49,0.41c0.15,3.62,0.44,10.98,1.38,13.29c0.1,0.24-0.02,0.51-0.26,0.61
						C175.5,58.11,175.44,58.12,175.38,58.12z"/>
				</g>
			</g>
			<g>
				<g>
					<path class="st2" d="M162.29,48.7l-0.69-0.12c0.17-0.96,0.72-1.63,1.55-1.9c0.85-0.27,1.89-0.04,2.48,0.55l-0.5,0.5
						c-0.4-0.4-1.17-0.56-1.77-0.37C162.96,47.48,162.45,47.82,162.29,48.7z"/>
				</g>
			</g>
			<g>
				<g>
					<path class="st2" d="M171.09,76.32c-0.16,0-0.31-0.08-0.4-0.23l-6.76-11.2l12.43-7.94l4.18,3.42c0.2,0.16,0.23,0.46,0.07,0.66
						c-0.16,0.2-0.46,0.23-0.66,0.07l-3.65-2.99l-11.08,7.08l6.28,10.41c0.13,0.22,0.06,0.51-0.16,0.65
						C171.25,76.3,171.17,76.32,171.09,76.32z"/>
				</g>
			</g>
			<g>
				<g>
					<path class="st2" d="M158.63,71.84c-0.12,0-0.23-0.04-0.32-0.13c-0.19-0.18-0.2-0.48-0.02-0.67l5.71-6.08l-3.02-5.98
						l-2.56,2.03c-0.2,0.16-0.5,0.13-0.66-0.08c-0.16-0.2-0.13-0.5,0.08-0.66l3.46-2.75l3.83,7.6l-6.17,6.56
						C158.88,71.79,158.75,71.84,158.63,71.84z"/>
				</g>
			</g>
			<g>
				<g>
					<path class="st2" d="M135.1,126.42c-0.02,0-0.04,0-0.06,0c-0.26-0.03-0.44-0.27-0.41-0.53c0.05-0.41,5.22-41.64,7.24-50.23
						c1.84-7.78,7.03-11.39,15.97-15.35c0.24-0.11,0.52,0,0.62,0.24c0.1,0.24,0,0.52-0.24,0.62c-8.67,3.83-13.69,7.31-15.44,14.7
						c-2.02,8.54-7.18,49.72-7.23,50.13C135.54,126.25,135.34,126.42,135.1,126.42z"/>
				</g>
			</g>
			<g>
				<g>
					<path class="st2" d="M146.01,126.51c-0.01,0-0.02,0-0.03,0c-0.26-0.01-0.46-0.24-0.44-0.5c0.2-3.71,0.37-7.95,0.48-10.75
						l0.05-1.36c0.28-6.84,1.69-25.43,2.37-34.36l0.22-2.83c0.02-0.26,0.25-0.46,0.5-0.43c0.26,0.02,0.45,0.25,0.43,0.51l-0.22,2.83
						c-0.68,8.93-2.1,27.5-2.37,34.33l-0.05,1.36c-0.11,2.81-0.28,7.04-0.49,10.76C146.47,126.32,146.26,126.51,146.01,126.51z"/>
				</g>
			</g>
			<g>
				<g>
					<path class="st2" d="M185.46,126.51c-0.25,0-0.46-0.2-0.47-0.45l-0.47-12.84l-1.36-25.72c-0.01-0.26,0.19-0.48,0.45-0.49
						c0.25-0.04,0.48,0.19,0.5,0.44l1.36,25.73l0.47,12.84c0.01,0.26-0.19,0.48-0.45,0.49
						C185.47,126.51,185.47,126.51,185.46,126.51z"/>
				</g>
			</g>
			<g>
				<g>
					<path class="st2" d="M201.19,126.48C201.19,126.48,201.19,126.48,201.19,126.48c-0.26,0-0.47-0.21-0.47-0.47
						c0.01-2.93,0.01-8.33-0.08-11.61c-0.51-18.79-2.26-32.8-4.8-38.46c-2.84-6.32-7.51-10.7-15.63-14.65
						c-0.23-0.11-0.33-0.4-0.22-0.63c0.11-0.23,0.4-0.33,0.63-0.22c8.34,4.06,13.15,8.58,16.08,15.11
						c2.59,5.76,4.37,19.91,4.88,38.82c0.09,3.3,0.09,8.71,0.08,11.64C201.66,126.27,201.45,126.48,201.19,126.48z"/>
				</g>
			</g>
			<g>
				<g>
					<path class="st2" d="M166.03,73.84l-4.7-0.64l-1.1-3.9c-0.07-0.25,0.08-0.51,0.33-0.58c0.25-0.07,0.51,0.08,0.58,0.33
						l0.93,3.31l3.53,0.48l1.81-2.52c0.15-0.21,0.45-0.26,0.66-0.11c0.21,0.15,0.26,0.45,0.11,0.66L166.03,73.84z"/>
				</g>
			</g>
			<g>
				<g>
					<path class="st2" d="M165.62,85.46C165.61,85.46,165.61,85.46,165.62,85.46c-0.27,0-0.47-0.22-0.47-0.48l0.19-11.65
						c0-0.26,0.21-0.46,0.47-0.46c0,0,0.01,0,0.01,0c0.26,0,0.47,0.22,0.46,0.48l-0.19,11.65
						C166.08,85.25,165.87,85.46,165.62,85.46z"/>
				</g>
			</g>
			<g>
				<g>
					<path class="st2" d="M159.24,84.72c-0.03,0-0.07,0-0.1-0.01c-0.25-0.06-0.42-0.31-0.36-0.56l2.46-11.47
						c0.05-0.25,0.31-0.41,0.56-0.36c0.25,0.06,0.42,0.31,0.36,0.56l-2.46,11.47C159.65,84.57,159.46,84.72,159.24,84.72z"/>
				</g>
			</g>
			<g>
				<g>
					<path class="st2" d="M159.25,96.82l-1.59-36.15c-0.01-0.26,0.19-0.48,0.45-0.49c0.27,0,0.48,0.19,0.49,0.45l1.45,32.99
						l19.6-33.16c0.13-0.22,0.42-0.3,0.64-0.17c0.22,0.13,0.3,0.42,0.17,0.65L159.25,96.82z"/>
				</g>
			</g>
			<g>
				<g>
					<path class="st2" d="M172.84,39.08c-0.13,0-0.26-0.06-0.36-0.16c-1.37-1.6-1.81-4.59-1.09-6.96c-2.3,0.6-5.41,0.04-7.01-1.82
						c-1.88,1.45-4.28,2.12-6.65,1.83c-1.85-0.22-3.38-1-4.19-2.14c-0.15-0.21-0.1-0.51,0.11-0.66c0.21-0.15,0.51-0.1,0.66,0.11
						c0.65,0.91,1.97,1.56,3.53,1.75c2.27,0.27,4.57-0.43,6.31-1.92l0.4-0.34l0.3,0.44c1.44,2.13,4.96,2.4,6.86,1.67
						c0.23-0.09,0.49-0.04,0.66,0.14c0.17,0.17,0.22,0.44,0.12,0.67c-0.88,2.12-0.56,5.16,0.71,6.64c0.17,0.2,0.15,0.49-0.05,0.66
						C173.06,39.05,172.95,39.08,172.84,39.08z M172.05,31.74C172.05,31.74,172.05,31.74,172.05,31.74
						C172.05,31.74,172.05,31.74,172.05,31.74z"/>
				</g>
			</g>
			<g>
				<g>
					<path class="st2" d="M176.65,40.07c-0.16,0-0.32-0.08-0.4-0.23c-0.13-0.22-0.06-0.51,0.16-0.64l0,0
						c0.11-0.07,2.7-1.71,0.94-6.06l-0.1-0.24l0.14-0.21c1.04-1.5,1.21-3.1,0.51-4.77c-1.05-2.5-3.07-3.61-6.01-3.28l-0.47,0.05
						l-0.05-0.48c-0.25-2.58-1.82-4.26-4.66-5c-2.11-0.55-4.98-0.17-6.7,2.54l-0.27,0.42l-0.41-0.29c-2.04-1.48-4.34-0.85-5.72,0.42
						c-1.25,1.15-2.22,3.32-0.81,5.64l0.21,0.35l-0.31,0.26c-1.93,1.6-2.05,3.91-1.51,5.53c0.6,1.8,1.99,3.02,3.55,3.11
						c0.26,0.01,0.46,0.24,0.45,0.49c-0.01,0.26-0.23,0.47-0.5,0.44c-1.95-0.1-3.67-1.57-4.39-3.75c-0.61-1.83-0.51-4.41,1.5-6.29
						c-1.16-2.22-0.72-4.73,1.18-6.47c1.57-1.45,4.15-2.2,6.51-0.76c2.01-2.78,5.14-3.16,7.46-2.55c3.05,0.79,4.88,2.64,5.3,5.36
						c3.92-0.25,5.71,1.95,6.52,3.89c0.79,1.88,0.62,3.76-0.47,5.46c1.88,4.95-1.38,6.96-1.42,6.99
						C176.82,40.05,176.73,40.07,176.65,40.07z"/>
				</g>
			</g>
		</g>
		<g>
			<g>
				<g>
					<g>
						<path class="st1" d="M86.39,70.03V48.51c0-0.67,0.55-1.22,1.22-1.22h18.39l7.31,8.15v24.74c0,0.67-0.55,1.22-1.22,1.22H87.6
							c-0.67,0-1.22-0.55-1.22-1.22v-4.81V70.03z"/>
					</g>
				</g>
				<g>
					<g>
						<path class="st3" d="M88.42,77.6v-5.34V50.74c0-0.67,0.55-1.22,1.22-1.22h16.23l0.12-2.04H87.6c-0.67,0-1.22,0.55-1.22,1.22
							l-0.08,21.34l-0.01,5.57l0.09,4.77c0,0.67,0.55,1.22,1.22,1.22h0.82V77.6z"/>
					</g>
				</g>
				<g>
					<g>
						<path class="st2" d="M112.08,82.07H87.6c-0.93,0-1.69-0.76-1.69-1.69v-8.09c0-0.26,0.21-0.47,0.47-0.47
							c0.26,0,0.47,0.21,0.47,0.47v8.09c0,0.41,0.34,0.75,0.75,0.75h24.48c0.41,0,0.75-0.34,0.75-0.75V55.81l-7.05-7.86H87.6
							c-0.41,0-0.75,0.34-0.75,0.75v18.25c0,0.26-0.21,0.47-0.47,0.47c-0.26,0-0.47-0.21-0.47-0.47V48.7c0-0.93,0.76-1.69,1.69-1.69
							h18.6l7.57,8.44v24.92C113.77,81.31,113.02,82.07,112.08,82.07z"/>
					</g>
				</g>
				<g>
					<g>
						<path class="st2" d="M113.19,56.08h-6.68c-0.54,0-0.98-0.44-0.98-0.98V47.6c0-0.26,0.21-0.47,0.47-0.47
							c0.26,0,0.47,0.21,0.47,0.47v7.49l6.72,0.04c0.26,0,0.47,0.21,0.47,0.47C113.66,55.86,113.45,56.08,113.19,56.08z"/>
					</g>
				</g>
				<g>
					<g>
						<path class="st2" d="M99.3,58.09h-8.43c-0.26,0-0.47-0.21-0.47-0.47c0-0.26,0.21-0.47,0.47-0.47h8.43
							c0.26,0,0.47,0.21,0.47,0.47C99.77,57.88,99.56,58.09,99.3,58.09z"/>
					</g>
				</g>
				<g>
					<g>
						<path class="st2" d="M104.89,62.71H90.87c-0.26,0-0.47-0.21-0.47-0.47c0-0.26,0.21-0.47,0.47-0.47h14.02
							c0.26,0,0.47,0.21,0.47,0.47C105.36,62.5,105.15,62.71,104.89,62.71z"/>
					</g>
				</g>
				<g>
					<g>
						<path class="st2" d="M101.7,66.89H90.87c-0.26,0-0.47-0.21-0.47-0.47c0-0.26,0.21-0.47,0.47-0.47h10.83
							c0.26,0,0.47,0.21,0.47,0.47C102.17,66.67,101.96,66.89,101.7,66.89z"/>
					</g>
				</g>
			</g>
			<g>
				<g>
					<g>
						<rect x="94.27" y="72.09" class="st3" width="32.79" height="38.75"/>
					</g>
				</g>
				<g>
					<g>
						<path class="st2" d="M126.01,111.31h-30.7c-0.84,0-1.52-0.68-1.52-1.51V73.13c0-0.84,0.68-1.51,1.52-1.51h30.7
							c0.84,0,1.52,0.68,1.52,1.51v22.87c0,0.26-0.21,0.47-0.47,0.47c-0.26,0-0.47-0.21-0.47-0.47V73.13c0-0.32-0.26-0.57-0.57-0.57
							h-30.7c-0.32,0-0.57,0.26-0.57,0.57v36.66c0,0.32,0.26,0.57,0.57,0.57h30.7c0.32,0,0.57-0.26,0.57-0.57v-7.75
							c0-0.26,0.21-0.47,0.47-0.47c0.26,0,0.47,0.21,0.47,0.47v7.75C127.53,110.63,126.85,111.31,126.01,111.31z"/>
					</g>
				</g>
				<g>
					<g>
						<path class="st2" d="M121.93,88.39H99.39c-0.26,0-0.47-0.21-0.47-0.47c0-0.26,0.21-0.47,0.47-0.47h22.54
							c0.26,0,0.47,0.21,0.47,0.47C122.41,88.18,122.19,88.39,121.93,88.39z"/>
					</g>
				</g>
				<g>
					<g>
						<path class="st2" d="M121.93,94.76H99.39c-0.26,0-0.47-0.21-0.47-0.47c0-0.26,0.21-0.47,0.47-0.47h22.54
							c0.26,0,0.47,0.21,0.47,0.47C122.41,94.55,122.19,94.76,121.93,94.76z"/>
					</g>
				</g>
				<g>
					<g>
						<path class="st2" d="M121.93,101.08H99.39c-0.26,0-0.47-0.21-0.47-0.47c0-0.26,0.21-0.47,0.47-0.47h22.54
							c0.26,0,0.47,0.21,0.47,0.47C122.41,100.87,122.19,101.08,121.93,101.08z"/>
					</g>
				</g>
				<g>
					<g>
						<path class="st2" d="M110.66,81.11c-1.42,0-2.58-1.16-2.58-2.58c0-1.42,1.16-2.58,2.58-2.58c1.42,0,2.58,1.16,2.58,2.58
							C113.25,79.95,112.09,81.11,110.66,81.11z M110.66,76.88c-0.91,0-1.64,0.74-1.64,1.64c0,0.91,0.74,1.64,1.64,1.64
							c0.91,0,1.64-0.74,1.64-1.64C112.31,77.62,111.57,76.88,110.66,76.88z"/>
					</g>
				</g>
			</g>
		</g>
		<g id="person_2_00000093170893488150817490000011584685649516924088_">
			<g>
				<g>
					<path class="st3" d="M58.06,84.51c1.37,2.35,1.76,3.51,1.8,4.74c0.04,1.23,0.12,4.36,0.75,6.76c0.63,2.39,1.51,2.89,2.04,3.29
						c0.53,0.4,1.41,1.33,1.37,2.12c-0.04,0.79-2.08,1.3-2.08,1.3s0.04,4.39-0.35,5.8c-0.39,1.41-2.57,4.31-3.53,4.82
						c-0.96,0.52-5.44,1.89-5.44,1.89s-1.06,6.06,0.2,9.24c-2.24,2.12-16.94-0.97-18.28-2.45c1.19-1.25,2.6-6.08,2.48-8.66
						c-0.12-2.59,0.68-13.93,5.7-18.25C47.74,90.78,58.06,84.51,58.06,84.51z"/>
				</g>
			</g>
			<g>
				<g>
					<g>
						<path class="st1" d="M88.26,152.61l-6.2,8.01c0,0-7-11.64-8.02-15.56c-1.02-3.92-6.35-10.75-8.47-13.65
							c-2.12-2.9-11.61-7.37-11.61-7.37l-0.21,0.45l-1.22-0.33c0,0-4.59,0.76-6.56,0.79c-1.97,0.03-4.8-0.57-6.97-1.12
							c-2.18-0.56-4.59-1.23-4.59-1.23s-8.07,3.19-11.51,7.23c-3.44,4.04-6.14,6.34-9.36,12.63c-3.22,6.28-9.14,20.47-9.14,20.47
							s-1.29,4.47-2.82,8.71c-1.53,4.24-1.27,9.31,0.25,11.6c1.52,2.28,4.17,3.12,6.64,3.29c2.47,0.17,4.55-0.6,4.55-0.6
							l-1.41,16.63l48.07-0.03l5.23-27.74c4.72,5.23,11.62,8.69,16.04,8.44c4.86-0.28,10.98-5.76,14.49-10.11
							c1.61-2,4.5-6.46,7.15-10.7C98.6,159.57,88.26,152.61,88.26,152.61z"/>
					</g>
				</g>
				<g>
					<g>
						<path class="st5" d="M44.88,104.73c-0.34,2.51-2.45,7.58-7.98,8.76c-8.75-2.84-12.82-11.61-12.55-20.41
							c0.21-7.04,2.62-12.44,11.18-16.41c5.82-2.71,13.62-2.33,18.97,0.34c3.21,1.6,5.36,4.36,4.49,7.39
							c-1.58,5.44-4.28,9.33-11.12,13.15L44.88,104.73z"/>
					</g>
				</g>
				<g>
					<g>
						<path class="st3" d="M26.13,94.89c0.21-7.04,3.08-12.61,11.63-16.59c4.56-2.12,10.32-2.34,15.17-1.06
							c-5.32-2.38-12.72-2.64-18.31-0.04c-8.56,3.98-9.53,10.12-9.74,17.17c-0.27,8.8,2.5,16.2,11.25,19.04
							c0.12-0.03,0.1,0.56,0.22,0.53C29.53,110.3,25.89,102.7,26.13,94.89z"/>
					</g>
				</g>
				<g>
					<g>
						<g>
							<path class="st3" d="M38.57,123.63c-2.18-0.56-4.59-1.23-4.59-1.23s-8.54,3.96-11.98,8c-3.44,4.04-5.67,5.57-8.88,11.85
								c-3.22,6.28-9.14,20.47-9.14,20.47s-0.75,3.73-2.28,7.97c-1.53,4.24-1.81,10.05-0.29,12.34c1.35,2.03,3.59,2.91,5.8,3.2
								c-1.02-0.51-2.46-0.39-3.14-1.42c-1.52-2.28-1.48-6.97,0.12-12.59c1.62-5.68,8.55-22.81,11.77-29.09
								c3.22-6.28,5.81-8.98,9.71-12.57c4.35-3.99,11.04-7.37,11.04-7.37L38.57,123.63z"/>
						</g>
					</g>
					<g>
						<g>
							<path class="st3" d="M15.53,186.9c0.47-6.94,1.84-27.89-0.04-27.81l-4.31,43.46l3.26,0
								C14.43,202.55,15.26,190.82,15.53,186.9z"/>
						</g>
					</g>
				</g>
				<g>
					<g>
						<path class="st3" d="M96.32,141.89c0,0,0.15-0.52,0.1-1.04c-0.04-0.52-1.46-8.78-1.42-9.64c0.04-0.86,0.08-2.44,1.5-2.43
							c1.42,0.02,2.16,0.7,2.67,2.9c0.52,2.2,1.03,3.66,1.89,3.79c0.86,0.13,1.72-1.4,1.72-1.4l3.98-8.27c0,0,2.33-5.12,3.53-4.6
							c1.2,0.52,1.91,0.99,1.7,2.07c-0.2,1.08-0.92,4.28-0.92,4.28l-1.25,4.07c0,0,1.37-1.4,2.62-0.8c0.68,0.33,1.39,0.91,1.27,2.58
							c0.62,0.29,2.02-0.14,2.39,0.19c1.46,1.35,0.99,2.47,0.99,2.47s0.71-0.78,1.85,0.24c1.14,1.02,1.04,0.93,0.91,1.91
							c-0.13,0.98-1.28,2.72-2.48,3.92c-1.2,1.2-9.43,7.78-9.43,7.78l-6.02,11.43l-12.08-8L96.32,141.89z"/>
					</g>
				</g>
				<g>
					<g>
						<path class="st3" d="M47.87,97.54c-0.49-0.14-1.02-0.18-1.57-0.11c-2.11,0.29-3.59,2.24-3.3,4.35
							c0.29,2.11,2.24,3.59,4.35,3.3c0.59-0.08,1.13-0.29,1.59-0.59L47.87,97.54z"/>
					</g>
				</g>
				<g>
					<g>
						<path class="st2" d="M46.83,105.79c-2.13,0-3.99-1.58-4.29-3.74c-0.16-1.15,0.14-2.29,0.84-3.21c0.7-0.92,1.72-1.52,2.86-1.67
							c0.59-0.08,1.18-0.04,1.76,0.12c0.25,0.07,0.4,0.33,0.33,0.58c-0.07,0.25-0.33,0.4-0.58,0.33c-0.45-0.13-0.91-0.16-1.37-0.09
							c-0.9,0.12-1.69,0.59-2.24,1.31c-0.55,0.72-0.78,1.61-0.66,2.51c0.25,1.85,1.97,3.15,3.82,2.9c0.51-0.07,0.98-0.25,1.4-0.52
							c0.22-0.14,0.51-0.08,0.65,0.14c0.14,0.22,0.08,0.51-0.14,0.65c-0.54,0.35-1.14,0.58-1.79,0.67
							C47.22,105.77,47.02,105.79,46.83,105.79z"/>
					</g>
				</g>
				<g>
					<g>
						<path class="st2" d="M44.88,102.11c-0.23,0-0.43-0.17-0.47-0.4c-0.11-0.76,0.09-1.5,0.57-2.03c0.48-0.52,1.17-0.8,1.95-0.75
							c0.26,0.01,0.46,0.23,0.45,0.49c-0.01,0.26-0.23,0.48-0.49,0.45c-0.49-0.01-0.92,0.13-1.2,0.45
							c-0.29,0.32-0.41,0.77-0.34,1.26c0.04,0.26-0.14,0.5-0.4,0.53C44.93,102.11,44.91,102.11,44.88,102.11z"/>
					</g>
				</g>
				<g>
					<g>
						<path class="st2" d="M58.45,96.35c0.11,0.8-0.18,1.51-0.65,1.57c-0.47,0.06-0.94-0.54-1.05-1.34
							c-0.11-0.8,0.18-1.51,0.65-1.57C57.87,94.94,58.34,95.54,58.45,96.35z"/>
					</g>
				</g>
				<g>
					<g>
						<path class="st2" d="M55.4,92.25c-0.18,0-0.35-0.1-0.43-0.27c-0.11-0.24-0.01-0.52,0.23-0.63c1.41-0.66,2.82-0.89,4.19-0.68
							c0.26,0.04,0.43,0.28,0.39,0.54c-0.04,0.26-0.28,0.43-0.54,0.39c-1.18-0.18-2.41,0.02-3.64,0.6
							C55.54,92.23,55.47,92.25,55.4,92.25z"/>
					</g>
				</g>
				<g>
					<g>
						<path class="st2" d="M51.69,115.64c-1.05,0-2.54-0.15-4.72-0.68c-0.25-0.06-0.41-0.32-0.35-0.57
							c0.06-0.25,0.32-0.41,0.57-0.35c3.55,0.86,5.18,0.64,5.72,0.57c6.31-0.86,9.1-4.88,8.31-11.94l-0.05-0.42l0.42-0.09
							c0,0,0.56-0.12,0.75-0.15c0.46-0.06,1.38-0.63,1.33-1.11c-0.04-0.36-0.32-0.55-0.9-0.9c-0.25-0.15-0.52-0.32-0.8-0.52
							c-0.97-0.73-1.55-2.07-1.77-4.11c-0.18-1.65-0.88-6.61-0.89-6.66c-0.06-0.45-0.28-1.64-0.95-2.83
							c-0.13-0.23-0.05-0.51,0.18-0.64c0.23-0.13,0.51-0.05,0.64,0.18c0.75,1.34,0.99,2.66,1.06,3.16c0.01,0.05,0.71,5.03,0.89,6.69
							c0.19,1.74,0.66,2.9,1.4,3.45c0.25,0.19,0.5,0.34,0.72,0.48c0.62,0.38,1.26,0.77,1.34,1.62c0.12,1.18-1.35,2.03-2.14,2.14
							c-0.06,0.01-0.16,0.03-0.27,0.05c0.68,7.3-2.48,11.64-9.16,12.55C52.69,115.6,52.25,115.64,51.69,115.64z"/>
					</g>
				</g>
				<g>
					<g>
						<path class="st2" d="M34.28,122.74c-0.13,0-0.25-0.05-0.35-0.15c-0.18-0.19-0.16-0.49,0.03-0.66
							c1.37-1.25,2.29-4.18,2.53-8.03c0.02-0.26,0.22-0.46,0.5-0.44c0.26,0.02,0.46,0.24,0.44,0.5c-0.26,4.15-1.26,7.23-2.83,8.67
							C34.51,122.7,34.4,122.74,34.28,122.74z"/>
					</g>
				</g>
				<g>
					<g>
						<path class="st2" d="M52.94,124.29c-0.17,0-0.34-0.1-0.42-0.26c-0.92-1.89-0.71-5.54-0.47-8.11c0.02-0.26,0.26-0.45,0.51-0.43
							c0.26,0.02,0.45,0.25,0.43,0.51c-0.35,3.81-0.23,6.37,0.38,7.61c0.11,0.23,0.02,0.52-0.22,0.63
							C53.08,124.28,53.01,124.29,52.94,124.29z"/>
					</g>
				</g>
				<g>
					<g>
						<path class="st2" d="M80.34,183.69c-0.09,0-0.18,0-0.27,0c-11.2-0.25-18.74-12.41-21.96-17.6c-1.38-2.22-5.26-8.89-5.3-8.95
							c-0.13-0.23-0.05-0.51,0.17-0.64c0.22-0.13,0.51-0.06,0.64,0.17c0.04,0.07,3.92,6.72,5.29,8.93
							c3.41,5.49,10.49,16.91,21.18,17.15c11.41,0.23,20.35-17.7,21.67-20.48l-13.31-8.95l-6.74,8.45l-0.33-0.66
							c-0.05-0.09-4.8-9.61-9.33-18.43c-6.01-11.71-10.96-14.5-19.12-18.3c-6.41,1.67-13.02,1.07-18.65-1.69
							c-0.23-0.11-0.33-0.4-0.22-0.63c0.11-0.23,0.4-0.33,0.63-0.22c5.47,2.68,11.92,3.24,18.16,1.58l0.16-0.04l0.15,0.07
							c8.45,3.93,13.53,6.73,19.72,18.8c3.84,7.49,7.85,15.47,9.01,17.78l6.36-7.98l14.69,9.88l-0.16,0.36
							C102.4,163.17,93.11,183.69,80.34,183.69z"/>
					</g>
				</g>
				<g>
					<g>
						<path class="st2" d="M11.66,202.69c-0.01,0-0.03,0-0.04,0c-0.26-0.02-0.45-0.25-0.43-0.51c0.03-0.32,2.61-32.04,3.83-43.14
							c0.03-0.26,0.26-0.44,0.52-0.42c0.26,0.03,0.44,0.26,0.42,0.52c-1.22,11.08-3.8,42.79-3.83,43.11
							C12.11,202.5,11.9,202.69,11.66,202.69z"/>
					</g>
				</g>
				<g>
					<g>
						<path class="st2" d="M59.68,202.69c-0.03,0-0.06,0-0.09-0.01c-0.26-0.05-0.42-0.3-0.37-0.55l5.35-27.09
							c0.05-0.26,0.3-0.43,0.55-0.37c0.26,0.05,0.42,0.3,0.37,0.55l-5.35,27.09C60.09,202.53,59.9,202.69,59.68,202.69z"/>
					</g>
				</g>
				<g>
					<g>
						<path class="st2" d="M36.88,114.17l-0.12-0.04c-8.3-2.69-12.88-9.87-12.58-19.7c0.18-6.05,1.62-13.57,11.16-18
							c5.69-2.65,13.66-2.5,19.38,0.35c3.79,1.89,5.6,4.93,4.73,7.94c-1.48,5.09-3.97,9.32-11.34,13.43
							c-0.23,0.13-0.51,0.05-0.64-0.18c-0.13-0.23-0.05-0.51,0.18-0.64c7.09-3.96,9.48-8.01,10.89-12.87
							c0.88-3.04-1.61-5.52-4.24-6.83c-5.48-2.73-13.11-2.87-18.56-0.34c-9.07,4.21-10.43,11.39-10.61,17.18
							c-0.29,9.33,4.02,16.15,11.81,18.74c5.19-1.17,7.17-5.95,7.49-8.33c0.04-0.26,0.27-0.45,0.53-0.4
							c0.26,0.03,0.44,0.27,0.4,0.53c-0.36,2.63-2.56,7.92-8.35,9.16L36.88,114.17z"/>
					</g>
				</g>
				<g>
					<g>
						<path class="st2" d="M57.82,109.07c-1.34,0-2.67-0.43-3.69-1.23c-0.2-0.16-0.24-0.46-0.08-0.66c0.16-0.2,0.46-0.24,0.66-0.08
							c1.28,1.01,3.15,1.31,4.75,0.76c0.25-0.08,0.51,0.05,0.6,0.29c0.08,0.25-0.05,0.51-0.29,0.6
							C59.14,108.97,58.48,109.07,57.82,109.07z"/>
					</g>
				</g>
				<g>
					<g>
						<path class="st2" d="M8.23,186.99c-5.32,0-7.24-4.01-7.77-5.5c-1.62-4.54,1.04-14.26,8.37-30.59
							c7.02-15.66,11.68-22.05,25.45-29.05c0.23-0.12,0.51-0.03,0.63,0.21c0.12,0.23,0.03,0.51-0.21,0.63
							c-13.52,6.87-18.1,13.17-25.02,28.6c-4.54,10.13-10.35,24.24-8.34,29.89c0.76,2.14,3.4,6.81,11.44,4
							c0.25-0.09,0.51,0.04,0.6,0.29c0.09,0.25-0.04,0.51-0.29,0.6C11.22,186.72,9.61,186.99,8.23,186.99z"/>
					</g>
				</g>
				<g>
					<g>
						<path class="st5" d="M25.85,97.69c-11.29,5.26-13.47-7.05-11.02-13.73c2.96-8.08,10.89-7.29,14.31-0.97
							C30.17,87.32,29.46,92.74,25.85,97.69z"/>
					</g>
				</g>
				<g>
					<g>
						<path class="st3" d="M16.3,85.81c2.47-6.75,8.4-7.29,12.28-3.62c-3.68-5.37-10.89-5.66-13.69,1.97
							c-1.56,4.26-1.24,10.81,2.13,13.63C15,94.54,14.99,89.38,16.3,85.81z"/>
					</g>
				</g>
				<g>
					<g>
						<path class="st2" d="M20.94,99.38c-1.88,0-3.53-0.61-4.84-1.82c-3.02-2.78-3.71-8.31-1.71-13.77c1.32-3.6,3.88-5.8,7.02-6.03
							c3.23-0.24,6.35,1.68,8.15,5l0.04,0.12c1.19,5.03-0.04,10.53-3.37,15.09l-0.07,0.1l-0.11,0.05
							C24.23,98.96,22.5,99.38,20.94,99.38z M21.94,78.68c-0.15,0-0.31,0.01-0.46,0.02c-2.76,0.2-5.02,2.17-6.21,5.42
							c-1.87,5.11-1.28,10.23,1.46,12.76c2.09,1.92,5.22,2.07,8.81,0.44c3.11-4.3,4.26-9.45,3.16-14.16
							C27.17,80.36,24.61,78.68,21.94,78.68z M25.85,97.69L25.85,97.69L25.85,97.69z"/>
					</g>
				</g>
				<g>
					<g>
						<path class="st2" d="M102.01,161.8c-0.07,0-0.15-0.02-0.22-0.05c-0.23-0.12-0.32-0.41-0.2-0.64l5.88-11.16
							c0.08-0.06,7.64-6.42,9.41-8.23c3.35-3.44,2.62-4.3,2.13-4.86c-0.24-0.28-0.49-0.42-0.77-0.44c-0.31-0.03-0.69,0.13-1,0.4
							l-0.28,0.24l-0.35-0.17l-0.3-0.21l0.14-0.39c0.4-1.02,0.26-1.67-0.47-2.24c-0.59-0.45-1.55-0.31-2.05,0.1l-0.28,0.23
							l-0.65-0.4l0.11-0.41c0.23-0.63,0.24-1.16,0.03-1.57c-0.27-0.53-0.88-0.8-1.34-0.93c-1.12-0.32-2.31,1.31-2.32,1.32
							c-0.15,0.21-0.44,0.27-0.65,0.12c-0.21-0.15-0.27-0.44-0.12-0.65c0.06-0.09,1.56-2.2,3.36-1.69c0.92,0.27,1.58,0.75,1.92,1.41
							c0.21,0.41,0.29,0.87,0.24,1.38c0.8-0.24,1.71-0.13,2.33,0.35c0.78,0.6,1.13,1.35,1.04,2.25c0.21-0.07,0.45-0.1,0.71-0.08
							c0.53,0.04,1.02,0.3,1.42,0.77c1.07,1.24,1.12,2.76-2.17,6.13c-1.73,1.78-8.58,7.54-9.41,8.23l-5.72,10.93
							C102.34,161.71,102.18,161.8,102.01,161.8z"/>
					</g>
				</g>
				<g>
					<g>
						<path class="st2" d="M89.54,153.62c-0.08,0-0.17-0.02-0.24-0.07c-0.22-0.13-0.29-0.42-0.16-0.65l6.79-11.25
							c0.01-1.2-0.3-3.01-0.64-4.92c-0.77-4.42-1.15-7.16,0.1-8c0.7-0.47,1.42-0.56,2.1-0.26c1.26,0.55,2.18,2.36,2.6,5.08
							c0.16,1.01,0.51,1.65,0.97,1.75c0.26,0.05,0.47-0.08,0.53-0.16c1.16-1.73,1.76-2.7,3.95-7.73c0.17-0.39,0.34-0.79,0.51-1.21
							c0.99-2.38,2.01-4.84,3.61-5.48c0.56-0.23,1.15-0.21,1.74,0.05c1.69,0.74,1.13,2.94,0.41,5.14c-0.48,1.47-1.1,3.16-1.65,4.65
							c-0.34,0.94-0.66,1.79-0.88,2.45c-0.08,0.25-0.35,0.38-0.6,0.29c-0.25-0.08-0.38-0.35-0.29-0.6c0.23-0.66,0.54-1.52,0.89-2.46
							c0.54-1.48,1.16-3.16,1.64-4.62c0.83-2.54,0.87-3.65,0.11-3.98c-0.36-0.16-0.69-0.17-1.01-0.04c-1.23,0.5-2.22,2.87-3.09,4.97
							c-0.18,0.42-0.35,0.83-0.52,1.22c-2.23,5.1-2.85,6.1-4.03,7.88c-0.26,0.39-0.86,0.7-1.52,0.56c-0.51-0.11-1.4-0.59-1.7-2.53
							c-0.36-2.32-1.12-3.95-2.05-4.36c-0.38-0.17-0.77-0.11-1.2,0.18c-0.82,0.55-0.14,4.46,0.31,7.05
							c0.35,2.02,0.68,3.94,0.65,5.23l0,0.12l-6.92,11.47C89.85,153.54,89.69,153.62,89.54,153.62z"/>
					</g>
				</g>
				<g>
					<g>
						<path class="st2" d="M112.52,135.77c-0.09,0-0.18-0.03-0.26-0.08c-0.22-0.15-0.27-0.44-0.12-0.65l0.95-1.4
							c0.15-0.21,0.44-0.27,0.65-0.12c0.22,0.15,0.27,0.44,0.12,0.65l-0.95,1.4C112.81,135.7,112.67,135.77,112.52,135.77z"/>
					</g>
				</g>
				<g>
					<g>
						<path class="st2" d="M115.8,138.35c-0.1,0-0.21-0.03-0.29-0.1c-0.2-0.16-0.23-0.46-0.07-0.66l1.13-1.41
							c0.16-0.2,0.46-0.23,0.66-0.07c0.2,0.16,0.23,0.46,0.07,0.66l-1.13,1.41C116.07,138.29,115.93,138.35,115.8,138.35z"/>
					</g>
				</g>
			</g>
		</g>
		<g>
			<g>
				<g>
					<g>
						<path class="st3" d="M235.23,122.93h28.99c1.36,0,2.45,1.1,2.45,2.45v24.5c0,1.36-1.1,2.45-2.45,2.45h-55.64
							c-1.36,0-2.45-1.1-2.45-2.45v-24.5c0-1.36,1.1-2.45,2.45-2.45h16.87H235.23z"/>
					</g>
				</g>
				<g>
					<g>
						<path class="st2" d="M264.22,153h-55.64c-1.61,0-2.92-1.31-2.92-2.92v-24.5c0-1.61,1.31-2.92,2.92-2.92h16.87
							c0.26,0,0.47,0.21,0.47,0.47c0,0.26-0.21,0.47-0.47,0.47h-16.87c-1.09,0-1.98,0.89-1.98,1.98v24.5c0,1.09,0.89,1.98,1.98,1.98
							h55.64c1.09,0,1.98-0.89,1.98-1.98v-24.5c0-1.09-0.89-1.98-1.98-1.98h-28.99c-0.26,0-0.47-0.21-0.47-0.47
							c0-0.26,0.21-0.47,0.47-0.47h28.99c1.61,0,2.92,1.31,2.92,2.92v24.5C267.14,151.69,265.83,153,264.22,153z"/>
					</g>
				</g>
				<g>
					<g>
						<circle class="st1" cx="219.73" cy="137.89" r="7.68"/>
					</g>
				</g>
				<g>
					<g>
						<path class="st3" d="M214.14,138.34c0-4.24,3.44-7.68,7.68-7.68c0.19,0,0.37,0.01,0.55,0.03c-0.82-0.3-1.71-0.48-2.64-0.48
							c-4.24,0-7.68,3.44-7.68,7.68c0,4.05,3.15,7.37,7.13,7.65C216.24,144.46,214.14,141.65,214.14,138.34z"/>
					</g>
				</g>
				<g>
					<g>
						<path class="st2" d="M219.73,146.04c-4.49,0-8.15-3.65-8.15-8.15c0-4.49,3.65-8.15,8.15-8.15c4.49,0,8.15,3.65,8.15,8.15
							C227.88,142.38,224.22,146.04,219.73,146.04z M219.73,130.68c-3.97,0-7.21,3.23-7.21,7.21c0,3.97,3.23,7.21,7.21,7.21
							c3.97,0,7.21-3.23,7.21-7.21C226.94,133.92,223.7,130.68,219.73,130.68z"/>
					</g>
				</g>
				<g>
					<g>
						<path class="st2" d="M252.63,134.08h-18.67c-0.26,0-0.47-0.21-0.47-0.47c0-0.26,0.21-0.47,0.47-0.47h18.67
							c0.26,0,0.47,0.21,0.47,0.47C253.1,133.86,252.89,134.08,252.63,134.08z"/>
					</g>
				</g>
				<g>
					<g>
						<path class="st2" d="M257.93,140.5h-23.98c-0.26,0-0.47-0.21-0.47-0.47c0-0.26,0.21-0.47,0.47-0.47h23.98
							c0.26,0,0.47,0.21,0.47,0.47C258.4,140.29,258.19,140.5,257.93,140.5z"/>
					</g>
				</g>
				<g>
					<g>
						<path class="st3" d="M218.82,141.43l-0.37-0.31c-0.26-0.23-2.57-2.2-2.82-2.46c-0.18-0.18-0.18-0.48,0-0.67
							c0.18-0.18,0.48-0.18,0.67,0c0.15,0.15,1.41,1.24,2.4,2.09l4.77-5.9c0.16-0.2,0.46-0.23,0.66-0.07
							c0.2,0.16,0.23,0.46,0.07,0.66L218.82,141.43z"/>
					</g>
				</g>
			</g>
			<g>
				<g>
					<g>
						<polygon class="st4" points="247.2,149.57 240.7,144.9 239.9,152.86 239.11,160.83 243.2,158.98 248.9,171.61 255.14,168.79 
							249.44,156.16 253.7,154.24 						"/>
					</g>
				</g>
				<g>
					<g>
						<g>
							<polygon class="st3" points="250.82,169.96 245.08,157.58 240.99,159.42 241.82,151.21 242.34,146 240.93,144.99 
								240.14,152.95 239.15,160.2 243.43,159.07 249.14,171.7 							"/>
						</g>
					</g>
				</g>
				<g>
					<g>
						<path class="st2" d="M248.67,172.23l-5.7-12.63l-4.4,1.99l1.75-17.55l7.16,5.15h0l7.16,5.15l-4.57,2.07l5.7,12.63
							L248.67,172.23z M243.43,158.36l5.7,12.63l5.38-2.43l-5.7-12.63l3.95-1.78l-11.68-8.39l-1.43,14.31L243.43,158.36z"/>
					</g>
				</g>
			</g>
		</g>
		<g>
			<g>
				<g>
					<path class="st3" d="M189.66,183.54c0.52-18.94,7.85-29.05,18.42-32.64c4.68,9.65,1.57,26.19-9.3,32.4L189.66,183.54z"/>
				</g>
			</g>
			<g>
				<g>
					<path class="st3" d="M183.13,164.48c-2.12-4.34-1.69-12.09,0.15-19.16c7.61,0.4,14.44,8.17,14.79,13.46
						c-0.76,7.06-5.41,15.53-5.53,15.35C192.43,173.97,183.13,164.48,183.13,164.48z"/>
				</g>
			</g>
			<g>
				<g>
					<path class="st3" d="M191.46,182.92c3.07-12.3-4.12-21.19-13.39-22.99c-3.35,9.22-1.18,18.07,5.89,23.24L191.46,182.92z"/>
				</g>
			</g>
			<g>
				<g>
					<path class="st5" d="M202.15,183.54h-20.93c-0.45,0-0.8,0.4-0.73,0.85l1.96,12.94c0.41,2.69,2.72,4.67,5.44,4.67h7.59
						c2.72,0,5.03-1.99,5.44-4.67l1.96-12.94C202.95,183.95,202.6,183.54,202.15,183.54z"/>
				</g>
			</g>
			<g>
				<g>
					<path class="st3" d="M184.75,197.34l-1.96-12.94c-0.07-0.45,0.28-0.85,0.73-0.85h-2.43c-0.45,0-0.8,0.4-0.73,0.85l1.96,12.94
						c0.41,2.69,2.72,4.67,5.44,4.67h2.43C187.46,202.01,185.15,200.03,184.75,197.34z"/>
				</g>
			</g>
			<g>
				<g>
					<path class="st2" d="M195.48,202.49h-7.59c-2.97,0-5.46-2.13-5.9-5.07l-1.96-12.94c-0.05-0.35,0.05-0.7,0.28-0.97
						c0.23-0.27,0.57-0.42,0.92-0.42h20.93c0.35,0,0.69,0.15,0.92,0.42c0.23,0.27,0.33,0.62,0.28,0.97l-1.96,12.94
						C200.94,200.35,198.46,202.49,195.48,202.49z M181.22,184.01c-0.11,0-0.18,0.06-0.21,0.09c-0.03,0.03-0.08,0.11-0.06,0.22
						l1.96,12.94c0.38,2.48,2.47,4.27,4.97,4.27h7.59c2.5,0,4.59-1.8,4.97-4.27l1.96-12.94c0.02-0.11-0.03-0.18-0.06-0.22
						c-0.03-0.03-0.1-0.09-0.21-0.09H181.22z"/>
				</g>
			</g>
			<g>
				<g>
					<path class="st2" d="M198.78,183.96c-0.16,0-0.32-0.09-0.41-0.24c-0.13-0.23-0.05-0.51,0.18-0.64
						c10.5-5.99,13.6-21.92,9.29-31.41c-8.85,3.16-14.63,10.43-15.89,20.02c-0.03,0.26-0.27,0.44-0.53,0.41
						c-0.26-0.03-0.44-0.27-0.4-0.53c1.33-10.09,7.5-17.72,16.92-20.92l0.39-0.13l0.18,0.37c4.74,9.79,1.57,26.7-9.5,33.01
						C198.94,183.94,198.86,183.96,198.78,183.96z"/>
				</g>
			</g>
			<g>
				<g>
					<path class="st2" d="M183.96,183.84c-0.1,0-0.19-0.03-0.28-0.09c-7.16-5.23-9.48-14.34-6.05-23.78l0.14-0.38l0.39,0.08
						c4.85,0.94,9.1,3.8,11.68,7.85c2.82,4.43,3.53,9.86,2.07,15.71c-0.06,0.25-0.32,0.4-0.57,0.34c-0.25-0.06-0.41-0.32-0.34-0.57
						c1.4-5.6,0.72-10.78-1.95-14.98c-2.37-3.72-6.24-6.39-10.67-7.35c-3.08,8.89-0.86,17.41,5.86,22.32
						c0.21,0.15,0.26,0.45,0.1,0.66C184.25,183.77,184.11,183.84,183.96,183.84z"/>
				</g>
			</g>
			<g>
				<g>
					<path class="st2" d="M187.62,183.71c-0.25,0-0.45-0.19-0.47-0.44l-0.04-0.61c-0.22-3.93-0.48-8.38-3.38-12.42
						c-0.15-0.21-0.1-0.51,0.11-0.66c0.21-0.15,0.5-0.1,0.66,0.11c3.06,4.26,3.33,8.86,3.56,12.92l0.03,0.61
						c0.02,0.26-0.18,0.48-0.44,0.5C187.64,183.71,187.63,183.71,187.62,183.71z"/>
				</g>
			</g>
			<g>
				<g>
					<path class="st2" d="M195.49,184.01c-0.24,0-0.45-0.19-0.47-0.44c-0.5-6.91,2.94-15.75,6.56-20.3c0.16-0.2,0.46-0.24,0.66-0.08
						c0.2,0.16,0.24,0.46,0.08,0.66c-3.51,4.41-6.84,12.97-6.35,19.65c0.02,0.26-0.18,0.48-0.44,0.5
						C195.51,184.01,195.5,184.01,195.49,184.01z"/>
				</g>
			</g>
			<g>
				<g>
					<path class="st2" d="M182.14,161.81c-0.21,0-0.4-0.14-0.46-0.35c-1.33-5.17-0.25-10.01,0.89-15.12l0.38-1.72l0.47,0.12
						c8.66,2.17,13.53,6.35,14.88,12.78c0.05,0.25-0.11,0.5-0.36,0.56c-0.25,0.06-0.5-0.11-0.56-0.36
						c-1.25-5.93-5.74-9.83-13.72-11.94l-0.17,0.78c-1.12,5-2.17,9.73-0.9,14.68c0.06,0.25-0.09,0.51-0.34,0.57
						C182.22,161.81,182.18,161.81,182.14,161.81z"/>
				</g>
			</g>
			<g>
				<g>
					<path class="st2" d="M193.27,164.95c-0.22,0-0.42-0.15-0.46-0.38c-1.03-5.13-2.91-7.6-4.42-9.58l0.34-0.33l0.37-0.28
						l-0.37,0.28l0.41-0.24c1.49,1.95,3.52,4.62,4.59,9.97c0.05,0.26-0.11,0.5-0.37,0.55C193.33,164.95,193.3,164.95,193.27,164.95z
						"/>
				</g>
			</g>
		</g>
		<g>
			<g>
				<path class="st2" d="M266.51,202.74H3.39c-0.35,0-0.63-0.21-0.63-0.47c0-0.26,0.28-0.47,0.63-0.47h263.12
					c0.35,0,0.63,0.21,0.63,0.47C267.14,202.53,266.86,202.74,266.51,202.74z"/>
			</g>
		</g>
	</g>
</g>
</svg>
