<svg width="33" height="33" viewBox="0 0 33 33" fill="none" xmlns="http://www.w3.org/2000/svg">
<g clip-path="url(#clip0_54_403)">
<path d="M9.96649 23.7415C9.67104 23.6611 9.67104 23.6693 9.35032 23.5987V22.2988C9.78654 22.3416 10.1042 22.6881 10.1047 23.0696L11.2597 23.0702C11.2597 22.1972 10.5326 21.3237 9.35032 21.1716V20.4812H8.2443V21.1716C7.12952 21.3191 6.40558 22.1508 6.40558 22.8917C6.40558 23.6399 6.88821 24.2267 7.58533 24.419C7.8581 24.4938 8.00041 24.534 8.25462 24.583V25.969C7.74518 25.8643 7.49097 25.426 7.49097 25.096H6.31226C6.31226 25.8298 7.06455 26.9528 8.2443 27.0879V27.8273H9.35032V27.0879C10.5729 26.9281 11.3143 26.2918 11.3143 25.3642C11.3143 24.7604 11.0663 24.0406 9.96649 23.7415ZM8.2443 23.396C7.74982 23.3079 7.61318 23.0965 7.61318 22.8685C7.61318 22.6025 7.94833 22.3457 8.2443 22.3112V23.396ZM9.36372 25.9644V24.7929C9.85202 24.863 10.1614 25.0728 10.1614 25.3745C10.1614 25.6411 9.87368 25.9453 9.36372 25.9644Z" fill="black"/>
<path d="M28.9126 0.283081H4.36116C2.11665 0.283081 0.288757 2.11097 0.288757 4.35755V28.9059C0.288757 31.153 2.11665 32.9804 4.36116 32.9804H28.9126C31.1582 32.9804 32.9861 31.153 32.9861 28.9059V4.35755C32.9861 2.11149 31.1582 0.283081 28.9126 0.283081ZM24.1044 4.48594C24.6226 4.49431 25.1167 4.70603 25.4802 5.07543C25.8437 5.44482 26.0474 5.94229 26.0474 6.46053C26.0474 6.97876 25.8437 7.47623 25.4802 7.84562C25.1167 8.21502 24.6226 8.42674 24.1044 8.43511C23.8452 8.43511 23.5885 8.38404 23.349 8.28481C23.1095 8.18559 22.8919 8.04015 22.7086 7.85681C22.5253 7.67347 22.3799 7.45582 22.2807 7.21629C22.1816 6.97675 22.1306 6.72003 22.1306 6.46078C22.1306 6.20151 22.1816 5.94476 22.2807 5.7052C22.3799 5.46564 22.5252 5.24795 22.7085 5.06457C22.8918 4.88119 23.1094 4.73571 23.3489 4.63642C23.5885 4.53714 23.8452 4.48601 24.1044 4.48594ZM9.51999 4.57411C9.77527 4.57418 10.028 4.62453 10.2639 4.72228C10.4997 4.82003 10.7139 4.96328 10.8944 5.14383C11.0749 5.32439 11.218 5.53872 11.3156 5.77459C11.4132 6.01047 11.4635 6.26326 11.4634 6.51853C11.4633 6.77381 11.413 7.02658 11.3152 7.2624C11.2175 7.49822 11.0742 7.71247 10.8937 7.89293C10.7131 8.07339 10.4988 8.21652 10.2629 8.31415C10.027 8.41178 9.77424 8.46199 9.51896 8.46192C9.0034 8.46179 8.50902 8.25685 8.14456 7.8922C7.78011 7.52755 7.57543 7.03306 7.57557 6.5175C7.57571 6.00195 7.78064 5.50756 8.14529 5.14311C8.50994 4.77865 9.00444 4.57398 9.51999 4.57411ZM5.46254 11.1267C5.75541 10.1599 6.7119 9.13482 7.9659 9.13482H11.0741C12.3276 9.13482 13.2841 10.1599 13.5764 11.1272L14.6726 15.1243H12.9639L12.0564 11.8284H11.2901L12.1755 15.1243H6.86452L7.74985 11.8284H6.98363L6.07562 15.1243H4.36684L5.46202 11.1272L5.46254 11.1267ZM8.80173 28.7781C7.57465 28.7781 6.39783 28.2906 5.53015 27.4229C4.66248 26.5553 4.17502 25.3784 4.17502 24.1514C4.17502 22.9243 4.66248 21.7475 5.53015 20.8798C6.39783 20.0121 7.57465 19.5247 8.80173 19.5247C10.0288 19.5247 11.2056 20.0121 12.0733 20.8798C12.941 21.7475 13.4284 22.9243 13.4284 24.1514C13.4284 25.3784 12.941 26.5553 12.0733 27.4229C11.2056 28.2906 10.0288 28.7781 8.80173 28.7781ZM29.0993 18.4687L26.811 18.4697V27.6195C26.8096 27.9273 26.6863 28.222 26.4681 28.439C26.2498 28.6561 25.9545 28.7778 25.6467 28.7775C25.3397 28.7773 25.0453 28.6552 24.8283 28.438C24.6112 28.2209 24.4892 27.9265 24.4891 27.6195V18.4707H23.7512V27.6195C23.751 27.9267 23.6287 28.2213 23.4114 28.4384C23.194 28.6556 22.8994 28.7775 22.5921 28.7775C22.2845 28.7777 21.9893 28.6559 21.7712 28.4388C21.5532 28.2218 21.4301 27.9271 21.4289 27.6195V18.4712L4.17554 18.4764V16.2592H21.4294V11.0705L17.7437 15.4347C16.9682 16.3304 15.5879 15.2115 16.3654 14.2539L20.1847 9.66539C20.4316 9.41944 20.6534 9.11522 21.565 9.11522H26.2149C26.6806 9.11508 27.1273 9.29991 27.4567 9.62906C27.7861 9.95821 27.9714 10.4047 27.9716 10.8704L27.9685 16.2597H29.0998V18.4692L29.0993 18.4687Z" fill="black"/>
</g>
<defs>
<clipPath id="clip0_54_403">
<rect width="33" height="33" fill="white"/>
</clipPath>
</defs>
</svg>
