<svg width="28" height="31" viewBox="0 0 28 31" fill="none" xmlns="http://www.w3.org/2000/svg">
<path d="M0 28.8621H28V31H0V28.8621ZM22.5 10.6897H6C5.46973 10.6902 4.96133 10.9156 4.58637 11.3165C4.21141 11.7173 4.00053 12.2607 4 12.8276V21.3793C4.00159 22.7963 4.52888 24.1548 5.46622 25.1568C6.40356 26.1588 7.6744 26.7224 9 26.7241H17C18.3256 26.7224 19.5964 26.1588 20.5338 25.1568C21.4711 24.1548 21.9984 22.7963 22 21.3793V20.3103H22.5C23.6935 20.3103 24.8381 19.8035 25.682 18.9014C26.5259 17.9993 27 16.7758 27 15.5C27 14.2242 26.5259 13.0007 25.682 12.0986C24.8381 11.1965 23.6935 10.6897 22.5 10.6897ZM20 21.3793C19.9992 22.2296 19.6829 23.0448 19.1204 23.646C18.558 24.2472 17.7954 24.5854 17 24.5862H9C8.20459 24.5854 7.44199 24.2472 6.87956 23.646C6.31712 23.0448 6.00079 22.2296 6 21.3793V12.8276H20V21.3793ZM22.5 18.1724H22V12.8276H22.5C23.163 12.8276 23.7989 13.1091 24.2678 13.6103C24.7366 14.1115 25 14.7912 25 15.5C25 16.2088 24.7366 16.8885 24.2678 17.3897C23.7989 17.8909 23.163 18.1724 22.5 18.1724ZM17 8.55172H15V8.39566C15.0015 7.99834 14.8987 7.60855 14.7034 7.27051C14.5081 6.93248 14.228 6.65975 13.895 6.48328L11.21 5.04979C10.5442 4.69655 9.98428 4.15102 9.59368 3.47502C9.20307 2.79902 8.99741 2.01958 9 1.22503V0H11V1.22503C10.9989 1.62241 11.1019 2.01218 11.2973 2.35018C11.4928 2.68818 11.773 2.96089 12.106 3.13741L14.789 4.5709C15.4549 4.92409 16.015 5.46958 16.4057 6.14557C16.7965 6.82155 17.0024 7.60102 17 8.39566V8.55172Z" fill="black"/>
</svg>
