<svg width="34" height="31" viewBox="0 0 34 31" fill="none" xmlns="http://www.w3.org/2000/svg">
<g clip-path="url(#clip0_54_231)">
<path d="M14.7328 4.77991C9.18125 4.77991 4.66094 9.34152 4.66094 14.9826C4.66094 20.6062 9.18125 25.1853 14.7328 25.1853C20.3016 25.1853 24.8047 20.6062 24.8047 14.9826C24.8047 9.34152 20.3016 4.77991 14.7328 4.77991ZM12.4469 21.0067C10.0578 20.0839 8.35625 17.7335 8.35625 14.9826C8.35625 12.2317 10.0578 9.88125 12.4469 8.94107V21.0067ZM17.0188 21.0241V8.94107C19.4078 9.88125 21.1094 12.2317 21.1094 14.9826C21.1094 17.7335 19.4078 20.0839 17.0188 21.0241ZM31.25 2H3.75C2.23177 2 1 3.24777 1 4.78571V25.2143C1 26.7522 2.23177 28 3.75 28H31.25C32.7682 28 34 26.7522 34 25.2143V4.78571C34 3.24777 32.7682 2 31.25 2ZM19.8891 26.1429H14.7156C8.63125 26.1429 3.6125 21.1808 3.6125 15.1045C3.6125 8.45357 8.63125 3.85714 14.7156 3.85714H19.8891C25.9047 3.85714 31.3875 8.45357 31.3875 15.1045C31.3875 21.1808 25.9047 26.1429 19.8891 26.1429Z" fill="black"/>
</g>
<defs>
<clipPath id="clip0_54_231">
<rect width="33" height="29.3333" fill="white" transform="translate(0.5 0.976196)"/>
</clipPath>
</defs>
</svg>
