<svg width="25" height="32" viewBox="0 0 25 32" fill="none" xmlns="http://www.w3.org/2000/svg">
<path d="M21.7812 5.15625H21.6059V7.21875H21.7812C22.0548 7.21875 22.3171 7.3274 22.5105 7.5208C22.7039 7.71419 22.8125 7.9765 22.8125 8.25V28.875C22.8125 29.1485 22.7039 29.4108 22.5105 29.6042C22.3171 29.7976 22.0548 29.9062 21.7812 29.9062H3.21875C2.94525 29.9062 2.68294 29.7976 2.48955 29.6042C2.29615 29.4108 2.1875 29.1485 2.1875 28.875V8.25C2.1875 7.9765 2.29615 7.71419 2.48955 7.5208C2.68294 7.3274 2.94525 7.21875 3.21875 7.21875H3.39406V5.15625H3.21875C2.39824 5.15625 1.61133 5.4822 1.03114 6.06239C0.450948 6.64258 0.125 7.42949 0.125 8.25V28.875C0.125 29.6955 0.450948 30.4824 1.03114 31.0626C1.61133 31.6428 2.39824 31.9688 3.21875 31.9688H21.7812C22.6018 31.9688 23.3887 31.6428 23.9689 31.0626C24.5491 30.4824 24.875 29.6955 24.875 28.875V8.25C24.875 7.42949 24.5491 6.64258 23.9689 6.06239C23.3887 5.4822 22.6018 5.15625 21.7812 5.15625Z" fill="black"/>
<path d="M19.7188 3.09375H16.625V0H8.375V3.09375H5.28125V9.28125H19.7188V3.09375ZM17.6562 7.21875H7.34375V5.15625H10.4375V2.0625H14.5625V5.15625H17.6562V7.21875Z" fill="black"/>
<path d="M6.3125 13.4062H18.6875V15.4688H6.3125V13.4062ZM6.3125 18.5625H18.6875V20.625H6.3125V18.5625ZM6.3125 23.7188H18.6875V25.7812H6.3125V23.7188Z" fill="black"/>
</svg>
