<svg width="17" height="17" viewBox="0 0 17 17" fill="none" xmlns="http://www.w3.org/2000/svg">
<g id="mingcute:search-line" clip-path="url(#clip0_176_565)">
<g id="Group">
<path id="Vector" fill-rule="evenodd" clip-rule="evenodd" d="M7.43756 1.41675C6.47748 1.41683 5.53134 1.64651 4.67807 2.08661C3.82481 2.52672 3.08916 3.1645 2.53252 3.94674C1.97587 4.72898 1.61436 5.63299 1.47814 6.58336C1.34193 7.53373 1.43496 8.50289 1.74948 9.41C2.064 10.3171 2.59089 11.1358 3.28618 11.7979C3.98148 12.4599 4.82502 12.9461 5.74642 13.2159C6.66783 13.4856 7.64038 13.5311 8.58295 13.3486C9.52551 13.166 10.4107 12.7607 11.1648 12.1664L13.7516 14.7532C13.8852 14.8823 14.0642 14.9537 14.2499 14.9521C14.4356 14.9504 14.6133 14.876 14.7446 14.7446C14.8759 14.6133 14.9504 14.4356 14.952 14.2499C14.9536 14.0642 14.8823 13.8853 14.7532 13.7517L12.1664 11.1648C12.8662 10.277 13.302 9.21012 13.4238 8.08622C13.5455 6.96233 13.3485 5.82685 12.8551 4.80973C12.3616 3.79262 11.5919 2.93496 10.6338 2.33491C9.67569 1.73487 8.56803 1.41667 7.43756 1.41675ZM2.83339 7.43758C2.83339 6.21648 3.31847 5.04539 4.18192 4.18194C5.04537 3.3185 6.21646 2.83341 7.43756 2.83341C8.65866 2.83341 9.82975 3.3185 10.6932 4.18194C11.5566 5.04539 12.0417 6.21648 12.0417 7.43758C12.0417 8.65868 11.5566 9.82977 10.6932 10.6932C9.82975 11.5567 8.65866 12.0417 7.43756 12.0417C6.21646 12.0417 5.04537 11.5567 4.18192 10.6932C3.31847 9.82977 2.83339 8.65868 2.83339 7.43758Z" fill="black"/>
</g>
</g>
<defs>
<clipPath id="clip0_176_565">
<rect width="17" height="17" fill="white"/>
</clipPath>
</defs>
</svg>
