<svg width="25" height="26" viewBox="0 0 25 26" fill="none" xmlns="http://www.w3.org/2000/svg">
<g id="solar:bill-check-linear" clip-path="url(#clip0_164_394)">
<g id="Group">
<path id="Vector" d="M17.0068 2.28564H7.10059C5.89329 2.28564 5.29017 2.28564 4.80267 2.45544C4.34306 2.61841 3.92721 2.88513 3.5874 3.23488C3.24758 3.58463 2.99296 4.00799 2.84329 4.4721C2.67871 4.97419 2.67871 5.59502 2.67871 6.83773V21.4252C2.67871 22.319 3.70475 22.794 4.35371 22.2002C4.53578 22.032 4.77457 21.9386 5.02246 21.9386C5.27035 21.9386 5.50914 22.032 5.69121 22.2002L6.19434 22.6606C6.5133 22.9556 6.93177 23.1194 7.36621 23.1194C7.80065 23.1194 8.21912 22.9556 8.53809 22.6606C8.85705 22.3657 9.27552 22.2019 9.70996 22.2019C10.1444 22.2019 10.5629 22.3657 10.8818 22.6606C11.2008 22.9556 11.6193 23.1194 12.0537 23.1194C12.4882 23.1194 12.9066 22.9556 13.2256 22.6606C13.5446 22.3657 13.963 22.2019 14.3975 22.2019C14.8319 22.2019 15.2504 22.3657 15.5693 22.6606C15.8883 22.9556 16.3068 23.1194 16.7412 23.1194C17.1757 23.1194 17.5941 22.9556 17.9131 22.6606L18.4162 22.2002C18.5983 22.032 18.8371 21.9386 19.085 21.9386C19.3329 21.9386 19.5716 22.032 19.7537 22.2002C20.4027 22.794 21.4287 22.319 21.4287 21.4252V6.83773C21.4287 5.59502 21.4287 4.97314 21.2641 4.47314C21.1147 4.00881 20.8601 3.58519 20.5203 3.23525C20.1805 2.8853 19.7645 2.61845 19.3048 2.45544C18.8173 2.28564 18.2141 2.28564 17.0068 2.28564Z" stroke="black" stroke-width="3"/>
<path id="Vector_2" d="M9.44971 11.0356L10.9382 12.7023L14.658 8.53564" stroke="black" stroke-width="3" stroke-linecap="round" stroke-linejoin="round"/>
<path id="Vector_3" d="M7.36621 16.3481H16.7412" stroke="black" stroke-width="3" stroke-linecap="round"/>
</g>
</g>
<defs>
<clipPath id="clip0_164_394">
<rect width="25" height="25" fill="white" transform="translate(0 0.5)"/>
</clipPath>
</defs>
</svg>
