<svg width="24" height="21" viewBox="0 0 24 21" fill="none" xmlns="http://www.w3.org/2000/svg">
<path d="M2.68015 21C0.916742 21 0.208708 18.5199 0.0617574 17.5321C-0.096445 16.573 0.050444 15.598 0.489249 14.6946C0.682109 14.2648 1.01384 13.8818 1.45184 13.5833C1.88984 13.2848 2.41903 13.0811 2.98741 12.9922C4.55043 12.782 5.65923 13.5176 7.0753 13.7699C7.3413 13.837 7.62489 13.8488 7.89841 13.8041C8.17192 13.7593 8.42603 13.6596 8.63594 13.5146C8.84585 13.3695 9.0044 13.1842 9.09613 12.9766C9.18786 12.769 9.20963 12.5463 9.15933 12.3301C8.57152 10.5226 4.39012 10.4911 2.68015 10.4911C2.68015 8.53642 5.40541 8.2842 7.35584 8.43133C8.51292 8.51924 9.65226 8.71684 10.7491 9.01983C11.417 9.19848 12.1918 9.65036 12.9266 9.60833C14.0354 9.53476 14.2625 8.631 13.7816 7.96893C12.6193 6.41361 9.31963 6.28751 7.35584 6.28751C7.35584 4.18572 9.66697 3.78638 11.8846 4.10165C13.0297 4.2788 14.1456 4.55731 15.211 4.93186C15.8923 5.16305 16.7072 5.60443 17.4553 5.40476C19.3791 4.94236 17.3752 3.32399 16.5202 2.93516C15.9201 2.67468 15.2835 2.47013 14.6232 2.32564C13.9018 2.1575 13.0201 2.22055 13.6747 1.55849C14.6983 0.848103 15.9682 0.394348 17.3218 0.255384C19.8466 -0.207008 23.3334 -0.29108 23.9479 2.21004C24.1527 3.53054 23.7499 4.86509 22.8124 5.97224C20.3236 9.32106 17.2424 12.3747 13.6614 15.0414C11.7646 16.571 9.70906 17.9735 7.51615 19.2345C6.18024 19.9911 4.41683 21 2.68015 21Z" fill="black"/>
</svg>
