<svg width="28" height="38" viewBox="0 0 28 38" fill="none" xmlns="http://www.w3.org/2000/svg">
<path d="M24.5 11.2097H24.4315C24.6003 9.6751 24.4564 8.12054 24.0092 6.64801C23.562 5.17549 22.8217 3.81827 21.8367 2.66537C20.8517 1.51246 19.6443 0.589916 18.2938 -0.0417672C16.9432 -0.67345 15.48 -1 14 -1C12.52 -1 11.0568 -0.67345 9.70625 -0.0417672C8.35569 0.589916 7.14832 1.51246 6.16333 2.66537C5.17834 3.81827 4.43798 5.17549 3.9908 6.64801C3.54361 8.12054 3.39972 9.6751 3.56854 11.2097H3.5C2.57174 11.2097 1.6815 11.5946 1.02513 12.2797C0.368749 12.9648 0 13.894 0 14.8629C0 15.8318 0.368749 16.761 1.02513 17.4461C1.6815 18.1312 2.57174 18.5161 3.5 18.5161H24.5C25.4283 18.5161 26.3185 18.1312 26.9749 17.4461C27.6313 16.761 28 15.8318 28 14.8629C28 13.894 27.6313 12.9648 26.9749 12.2797C26.3185 11.5946 25.4283 11.2097 24.5 11.2097ZM11.9131 36.6062C12.0971 37.0223 12.3914 37.3747 12.7612 37.6217C13.1311 37.8687 13.5609 38 14 38C14.4391 38 14.8689 37.8687 15.2388 37.6217C15.6086 37.3747 15.9029 37.0223 16.0869 36.6062L23.3333 20.9515H4.66667L11.9131 36.6062Z" fill="black"/>
</svg>
