<svg width="25" height="28" viewBox="0 0 25 28" fill="none" xmlns="http://www.w3.org/2000/svg">
<path d="M2.875 25.125V5.875H5.625V10H19.375V5.875H22.125V13.6713L24.875 10.9213V5.875C24.875 4.3625 23.6375 3.125 22.125 3.125H16.3775C15.8 1.53 14.2875 0.375 12.5 0.375C10.7125 0.375 9.2 1.53 8.6225 3.125H2.875C1.3625 3.125 0.125 4.3625 0.125 5.875V25.125C0.125 26.6375 1.3625 27.875 2.875 27.875H14.81L12.06 25.125H2.875ZM12.5 3.125C13.2563 3.125 13.875 3.74375 13.875 4.5C13.875 5.25625 13.2563 5.875 12.5 5.875C11.7437 5.875 11.125 5.25625 11.125 4.5C11.125 3.74375 11.7437 3.125 12.5 3.125Z" fill="black"/>
</svg>
