<svg width="29" height="29" viewBox="0 0 29 29" fill="none" xmlns="http://www.w3.org/2000/svg">
<path d="M9 7.60162C8.63533 7.60162 8.28559 7.74649 8.02773 8.00435C7.76987 8.26221 7.625 8.61195 7.625 8.97662C7.625 9.3413 7.76987 9.69103 8.02773 9.94889C8.28559 10.2068 8.63533 10.3516 9 10.3516H20C20.3647 10.3516 20.7144 10.2068 20.9723 9.94889C21.2301 9.69103 21.375 9.3413 21.375 8.97662C21.375 8.61195 21.2301 8.26221 20.9723 8.00435C20.7144 7.74649 20.3647 7.60162 20 7.60162H9ZM7.625 14.5C7.625 14.1353 7.76987 13.7856 8.02773 13.5277C8.28559 13.2699 8.63533 13.125 9 13.125H20C20.3647 13.125 20.7144 13.2699 20.9723 13.5277C21.2301 13.7856 21.375 14.1353 21.375 14.5C21.375 14.8647 21.2301 15.2144 20.9723 15.4723C20.7144 15.7301 20.3647 15.875 20 15.875H9C8.63533 15.875 8.28559 15.7301 8.02773 15.4723C7.76987 15.2144 7.625 14.8647 7.625 14.5ZM9 18.6484C8.63533 18.6484 8.28559 18.7932 8.02773 19.0511C7.76987 19.309 7.625 19.6587 7.625 20.0234C7.625 20.388 7.76987 20.7378 8.02773 20.9956C8.28559 21.2535 8.63533 21.3984 9 21.3984H20C20.3647 21.3984 20.7144 21.2535 20.9723 20.9956C21.2301 20.7378 21.375 20.388 21.375 20.0234C21.375 19.6587 21.2301 19.309 20.9723 19.0511C20.7144 18.7932 20.3647 18.6484 20 18.6484H9Z" fill="black"/>
<path fill-rule="evenodd" clip-rule="evenodd" d="M28.25 14.5C28.25 22.0941 22.0941 28.25 14.5 28.25C6.90588 28.25 0.75 22.0941 0.75 14.5C0.75 6.90588 6.90588 0.75 14.5 0.75C22.0941 0.75 28.25 6.90588 28.25 14.5ZM25.5 14.5C25.5 17.4174 24.3411 20.2153 22.2782 22.2782C20.2153 24.3411 17.4174 25.5 14.5 25.5C11.5826 25.5 8.78473 24.3411 6.72183 22.2782C4.65893 20.2153 3.5 17.4174 3.5 14.5C3.5 11.5826 4.65893 8.78473 6.72183 6.72183C8.78473 4.65893 11.5826 3.5 14.5 3.5C17.4174 3.5 20.2153 4.65893 22.2782 6.72183C24.3411 8.78473 25.5 11.5826 25.5 14.5Z" fill="black"/>
</svg>
